<svg width="200" height="50" viewBox="0 0 200 50" fill="none" xmlns="http://www.w3.org/2000/svg">
<g clip-path="url(#clip0_362_362)">
<path fill-rule="evenodd" clip-rule="evenodd" d="M124.725 0H25.0905C11.2915 0 0 11.2501 0 24.9985V49.997H99.6349C113.434 49.997 124.725 38.7469 124.725 24.9985V0ZM30.3617 33.8346C31.3123 34.1924 32.4016 34.3727 33.6297 34.3727L33.6267 34.3697C35.3406 34.3697 36.8373 34.027 38.1167 33.3415C39.3961 32.6561 40.398 31.685 41.1161 30.4313C41.8373 29.1776 42.1964 27.6955 42.1964 25.9878C42.1964 24.5327 41.9278 23.2189 41.3877 22.0494C40.8476 20.8799 40.0509 19.9449 38.9918 19.2504C37.9357 18.5559 36.6231 18.2071 35.057 18.2071C34.4867 18.2071 33.847 18.2853 33.1378 18.4447C32.4287 18.604 31.7347 18.8836 31.0588 19.2835C30.3829 19.6863 29.7884 20.2666 29.2815 21.0242C29.2815 20.5582 29.3267 20.1433 29.4233 19.7735C29.5199 19.4037 29.6406 19.061 29.7884 18.7453C29.9363 18.4296 30.0841 18.1771 30.232 17.9877C30.6997 17.3984 31.3213 16.9655 32.1059 16.6919C32.8874 16.4183 33.7655 16.2289 34.7401 16.1237C35.7118 16.0185 36.6744 15.9223 37.6279 15.8381C37.8814 15.817 38.1409 15.799 38.4064 15.79C38.6689 15.778 38.9405 15.7629 39.2151 15.7419C39.4897 15.7208 39.7552 15.6968 40.0087 15.6637C40.2622 15.6306 40.5006 15.5946 40.7238 15.5525C40.9471 15.5104 41.1523 15.4683 41.3424 15.4262V10.207C41.089 10.2491 40.7993 10.3032 40.4704 10.3664C40.1415 10.4295 39.6707 10.5047 39.0582 10.5888C38.4426 10.673 37.5555 10.7783 36.3907 10.9045C35.2471 11.0518 34.194 11.2112 33.2314 11.3795C32.2688 11.5479 31.3847 11.8125 30.582 12.1702C29.4837 12.5941 28.5573 13.1533 27.8059 13.8478C27.0546 14.5423 26.4631 15.3751 26.0286 16.3462C25.5941 17.3172 25.2773 18.4326 25.0751 19.6983C24.8729 20.964 24.7733 22.3861 24.7733 23.9675C24.7733 25.0859 24.882 26.1592 25.1053 27.1934C25.3286 28.2276 25.6665 29.1806 26.1222 30.0555C26.5778 30.9304 27.1602 31.688 27.8693 32.3314C28.5784 32.9748 29.4082 33.4768 30.3617 33.8346ZM35.6303 29.376C35.0992 29.7338 34.4324 29.9142 33.6297 29.9142C32.824 29.9142 32.1572 29.7338 31.6291 29.376C31.101 29.0183 30.7088 28.5643 30.4553 28.0171C30.2018 27.47 30.0751 26.9198 30.0751 26.3095C30.0751 25.6992 30.2169 25.128 30.5036 24.6018C30.7872 24.0757 31.2006 23.6488 31.7407 23.3211C32.2809 22.9934 32.9085 22.831 33.6931 22.831C34.4776 22.831 35.1264 22.9994 35.6454 23.3361C36.1644 23.6728 36.5506 24.0998 36.8041 24.6169C37.0576 25.134 37.1843 25.7202 37.1843 26.3095C37.1843 26.8988 37.0576 27.47 36.8041 28.0171C36.5506 28.5643 36.1584 29.0183 35.6303 29.376ZM48.3249 33.3445C49.5531 34.03 51.0135 34.3727 52.7063 34.3727L52.7124 34.3758C54.1306 34.3758 55.4191 34.1292 56.5838 33.6332C57.7456 33.1371 58.6931 32.4065 59.4233 31.4355C60.1535 30.4674 60.5488 29.2648 60.6122 27.8307H55.5971C55.4493 28.4831 55.1264 28.9792 54.6285 29.3159C54.1306 29.6526 53.5211 29.821 52.8029 29.821C52.0214 29.821 51.3817 29.6316 50.8838 29.2528C50.3859 28.871 50.0268 28.3719 49.8035 27.7496C49.5832 27.1272 49.4716 26.4778 49.4716 25.8044C49.4716 25.2151 49.5712 24.6018 49.7733 23.9705C49.9755 23.3391 50.3135 22.807 50.7902 22.3741C51.264 21.9411 51.949 21.7247 52.8361 21.7247C53.5362 21.7247 54.1216 21.887 54.5983 22.2147C55.0751 22.5424 55.398 23.0445 55.5669 23.7179H60.4553C60.3708 22.3049 59.9966 21.1144 59.3298 20.1433C58.6629 19.1722 57.7727 18.4296 56.6623 17.9125C55.5518 17.3954 54.2875 17.1369 52.8693 17.1369C51.1553 17.1369 49.6738 17.4886 48.4245 18.1951C47.1753 18.9016 46.2066 19.9028 45.5187 21.1986C44.8307 22.4943 44.4867 24.0817 44.4867 25.8315C44.4867 27.5812 44.8186 29.0995 45.4855 30.3862C46.1493 31.673 47.0968 32.6591 48.3249 33.3445ZM68.4818 33.8346C69.4324 34.1924 70.5217 34.3727 71.7498 34.3727L71.7468 34.3697C73.4607 34.3697 74.9574 34.027 76.2368 33.3415C77.5162 32.6561 78.5181 31.685 79.2362 30.4313C79.9574 29.1776 80.3165 27.6955 80.3165 25.9878C80.3165 24.5327 80.0479 23.2189 79.5078 22.0494C78.9677 20.8799 78.171 19.9449 77.1119 19.2504C76.0558 18.5559 74.7432 18.2071 73.1771 18.2071C72.6068 18.2071 71.9671 18.2853 71.2579 18.4447C70.5488 18.604 69.8548 18.8836 69.1789 19.2835C68.503 19.6863 67.9085 20.2666 67.4016 21.0242C67.4016 20.5582 67.4468 20.1433 67.5434 19.7735C67.64 19.4037 67.7607 19.061 67.9085 18.7453C68.0564 18.4296 68.2042 18.1771 68.3521 17.9877C68.8198 17.3984 69.4444 16.9655 70.226 16.6919C71.0075 16.4183 71.8856 16.2289 72.8602 16.1237C73.8319 16.0185 74.7944 15.9223 75.748 15.8381C76.0014 15.817 76.261 15.799 76.5265 15.79C76.789 15.778 77.0606 15.7629 77.3352 15.7419C77.6098 15.7208 77.8753 15.6968 78.1288 15.6637C78.3823 15.6306 78.6207 15.5946 78.8439 15.5525C79.0672 15.5104 79.2724 15.4683 79.4625 15.4262V10.207C79.2091 10.2491 78.9194 10.3032 78.5905 10.3664C78.2616 10.4295 77.7908 10.5047 77.1783 10.5888C76.5627 10.673 75.6756 10.7783 74.5108 10.9045C73.3672 11.0518 72.3141 11.2112 71.3515 11.3795C70.3889 11.5479 69.5048 11.8125 68.7021 12.1702C67.6037 12.5941 66.6774 13.1533 65.926 13.8478C65.1747 14.5423 64.5832 15.3751 64.1487 16.3462C63.7142 17.3172 63.3974 18.4326 63.1952 19.6983C62.993 20.964 62.8934 22.3861 62.8934 23.9675C62.8934 25.0859 63.0021 26.1592 63.2254 27.1934C63.4487 28.2276 63.7866 29.1806 64.2422 30.0555C64.6979 30.9304 65.2803 31.688 65.9894 32.3314C66.6985 32.9748 67.5283 33.4768 68.4818 33.8346ZM73.7504 29.376C73.2193 29.7338 72.5524 29.9142 71.7498 29.9142C70.9441 29.9142 70.2773 29.7338 69.7492 29.376C69.2211 29.0183 68.8289 28.5643 68.5754 28.0171C68.3219 27.47 68.1952 26.9198 68.1952 26.3095C68.1952 25.6992 68.337 25.128 68.6237 24.6018C68.9073 24.0757 69.3207 23.6488 69.8608 23.3211C70.401 22.9934 71.0286 22.831 71.8132 22.831C72.5977 22.831 73.2465 22.9994 73.7655 23.3361C74.2845 23.6728 74.6707 24.0998 74.9242 24.6169C75.1777 25.134 75.3044 25.7202 75.3044 26.3095C75.3044 26.8988 75.1777 27.47 74.9242 28.0171C74.6707 28.5643 74.2785 29.0183 73.7504 29.376ZM82.9236 34.1172V34.1202L82.9206 34.1172H82.9236ZM82.9236 34.1172H87.9689V28.0773H90.6031L93.9375 34.1172H99.713L94.6979 25.2632L99.8095 17.4525H94.1608L90.3829 23.5887H87.9719V17.4525H82.9236V34.1172Z" fill="white"/>
<path d="M136.053 11.0211V4.1875H140.721V4.95113H136.898V7.01054H138.461C138.796 7.01054 139.119 7.0376 139.427 7.08871C139.735 7.13982 140.009 7.23302 140.248 7.36831C140.486 7.5036 140.676 7.69601 140.815 7.94254C140.954 8.18906 141.023 8.51376 141.023 8.91361C141.023 9.31347 140.96 9.63816 140.83 9.90874C140.7 10.1793 140.519 10.3958 140.287 10.5611C140.054 10.7265 139.78 10.8437 139.463 10.9129C139.146 10.982 138.799 11.0181 138.425 11.0181H136.056L136.053 11.0211ZM136.898 10.2575H138.313C138.546 10.2575 138.775 10.2425 138.998 10.2094C139.222 10.1763 139.421 10.1192 139.596 10.029C139.771 9.94181 139.91 9.81254 140.012 9.64117C140.115 9.4698 140.166 9.24733 140.166 8.97074C140.166 8.69414 140.118 8.47467 140.015 8.31233C139.916 8.15299 139.777 8.03273 139.602 7.95456C139.427 7.87639 139.234 7.82829 139.019 7.80424C138.805 7.78019 138.585 7.77117 138.359 7.77117H136.895V10.2545L136.898 10.2575Z" fill="white"/>
<path d="M144.418 11.0782C143.875 11.0782 143.425 10.967 143.069 10.7445C142.713 10.522 142.447 10.2154 142.272 9.82155C142.097 9.4277 142.01 8.97975 142.01 8.47767C142.01 7.9756 142.1 7.51862 142.287 7.13079C142.474 6.74296 142.743 6.4333 143.096 6.20781C143.452 5.98233 143.89 5.87109 144.406 5.87109C144.786 5.87109 145.121 5.94325 145.41 6.08756C145.697 6.23187 145.939 6.42728 146.129 6.67081C146.319 6.91433 146.458 7.18791 146.545 7.49156C146.633 7.79521 146.669 8.10788 146.657 8.42957C146.651 8.48669 146.648 8.54682 146.648 8.60394C146.648 8.66106 146.645 8.72119 146.639 8.77832H142.846C142.873 9.07595 142.945 9.34352 143.069 9.58103C143.193 9.81854 143.365 10.0079 143.594 10.1462C143.823 10.2845 144.101 10.3537 144.439 10.3537C144.608 10.3537 144.777 10.3326 144.949 10.2906C145.121 10.2485 145.275 10.1763 145.414 10.0741C145.552 9.97187 145.652 9.83357 145.709 9.6592H146.554C146.476 9.9869 146.331 10.2575 146.117 10.4649C145.902 10.6754 145.649 10.8287 145.35 10.9279C145.054 11.0271 144.741 11.0782 144.418 11.0782ZM142.867 8.06278H145.827C145.821 7.77417 145.754 7.51862 145.634 7.29915C145.51 7.07968 145.344 6.90831 145.133 6.78806C144.922 6.66479 144.674 6.60466 144.382 6.60466C144.065 6.60466 143.796 6.6708 143.582 6.80609C143.365 6.94138 143.199 7.11876 143.081 7.33823C142.963 7.5577 142.894 7.79822 142.867 8.06278Z" fill="white"/>
<path d="M147.251 11.0336V10.318C147.381 10.318 147.496 10.291 147.601 10.2369C147.704 10.1827 147.794 10.0986 147.873 9.99033C147.963 9.86105 148.033 9.67465 148.087 9.43113C148.138 9.18761 148.175 8.92605 148.193 8.64946C148.22 8.33979 148.238 8.03614 148.25 7.7355C148.262 7.43486 148.274 7.13722 148.283 6.83958C148.292 6.54495 148.298 6.2413 148.298 5.93164H151.85V11.0245H151.026V6.65619H149.104C149.098 6.87566 149.089 7.09513 149.08 7.31761C149.071 7.54008 149.059 7.76256 149.05 7.98503C149.041 8.20751 149.029 8.42999 149.017 8.65547C149.011 8.91402 148.983 9.20264 148.938 9.52734C148.893 9.84902 148.796 10.1437 148.645 10.4082C148.504 10.6578 148.332 10.8261 148.126 10.9103C147.924 10.9945 147.628 11.0366 147.248 11.0366L147.251 11.0336Z" fill="white"/>
<path d="M155.38 11.0782C154.843 11.0782 154.394 10.967 154.032 10.7445C153.669 10.522 153.398 10.2154 153.223 9.82155C153.048 9.4277 152.957 8.97975 152.957 8.47767C152.957 7.9756 153.045 7.51862 153.223 7.13079C153.401 6.74296 153.672 6.4333 154.032 6.20781C154.394 5.98233 154.849 5.87109 155.401 5.87109C155.954 5.87109 156.385 5.98534 156.744 6.20781C157.103 6.4333 157.372 6.73995 157.55 7.13079C157.728 7.52163 157.815 7.96958 157.815 8.47767C157.815 8.98576 157.725 9.4277 157.544 9.82155C157.363 10.2154 157.094 10.522 156.735 10.7445C156.376 10.967 155.926 11.0782 155.38 11.0782ZM155.38 10.3537C155.754 10.3537 156.062 10.2695 156.298 10.1011C156.533 9.93279 156.708 9.7073 156.823 9.4247C156.937 9.14209 156.992 8.82642 156.992 8.47767C156.992 8.12893 156.934 7.81325 156.823 7.53064C156.708 7.24804 156.536 7.02256 156.298 6.8542C156.059 6.68584 155.754 6.60166 155.38 6.60166C155.006 6.60166 154.71 6.68584 154.472 6.8542C154.234 7.02256 154.062 7.24804 153.947 7.53064C153.832 7.81325 153.778 8.12893 153.778 8.47767C153.778 8.82642 153.835 9.14209 153.947 9.4247C154.059 9.7073 154.234 9.93279 154.472 10.1011C154.707 10.2695 155.012 10.3537 155.38 10.3537Z" fill="white"/>
<path d="M158.923 12.858V5.92822H159.708L159.747 6.71289C159.922 6.4363 160.161 6.22585 160.459 6.08455C160.761 5.94325 161.084 5.87109 161.434 5.87109C161.95 5.87109 162.375 5.98534 162.704 6.21383C163.033 6.44232 163.278 6.75499 163.438 7.14582C163.597 7.53966 163.676 7.98462 163.676 8.48068C163.676 8.97674 163.594 9.42169 163.431 9.81553C163.272 10.2094 163.021 10.519 162.686 10.7445C162.348 10.97 161.92 11.0812 161.395 11.0812C161.135 11.0812 160.903 11.0542 160.698 11.0001C160.489 10.946 160.308 10.8678 160.154 10.7626C159.998 10.6603 159.862 10.5431 159.747 10.4138V12.8611H158.923V12.858ZM161.328 10.3537C161.702 10.3537 162.001 10.2695 162.221 10.0981C162.442 9.92677 162.602 9.70129 162.701 9.41568C162.801 9.13007 162.852 8.8204 162.852 8.47767C162.852 8.13494 162.801 7.81325 162.701 7.53064C162.602 7.24804 162.439 7.02256 162.212 6.8542C161.986 6.68584 161.684 6.60166 161.31 6.60166C160.972 6.60166 160.689 6.68884 160.45 6.8572C160.212 7.02556 160.034 7.25706 159.91 7.54267C159.786 7.82828 159.726 8.14396 159.726 8.48368C159.726 8.82341 159.783 9.15712 159.901 9.43973C160.016 9.72233 160.194 9.94481 160.435 10.1072C160.673 10.2665 160.972 10.3477 161.328 10.3477V10.3537Z" fill="white"/>
<path d="M164.907 13.2073V12.4226C165.224 12.4226 165.477 12.3775 165.664 12.2933C165.851 12.2061 166.008 12.0709 166.135 11.8875C166.262 11.7041 166.382 11.4696 166.5 11.187L164.258 5.92871H165.23L166.956 10.2219L168.371 5.92871H169.303L167.867 9.93929C167.795 10.1467 167.716 10.3782 167.626 10.6338C167.535 10.8923 167.435 11.1539 167.324 11.4215C167.215 11.689 167.091 11.9356 166.962 12.1641C166.829 12.3925 166.681 12.5789 166.521 12.7202C166.385 12.8435 166.253 12.9397 166.123 13.0089C165.993 13.081 165.836 13.1291 165.652 13.1592C165.468 13.1892 165.221 13.2043 164.91 13.2043L164.907 13.2073Z" fill="white"/>
<path d="M172.254 11.0783C171.717 11.0783 171.27 10.9671 170.92 10.7446C170.57 10.5221 170.308 10.2155 170.136 9.82162C169.964 9.42778 169.879 8.98283 169.879 8.48677C169.879 7.99071 169.967 7.56379 170.145 7.16694C170.323 6.77009 170.594 6.45442 170.959 6.21992C171.325 5.98542 171.789 5.86816 172.354 5.86816C172.704 5.86816 173.014 5.92529 173.289 6.04254C173.564 6.15979 173.793 6.32815 173.974 6.55062C174.155 6.7731 174.282 7.0527 174.351 7.38641H173.506C173.41 7.10381 173.256 6.90238 173.045 6.78212C172.833 6.66186 172.586 6.60173 172.302 6.60173C171.913 6.60173 171.605 6.69193 171.37 6.87231C171.137 7.0527 170.965 7.2872 170.86 7.57281C170.754 7.85842 170.7 8.16508 170.7 8.48677C170.7 8.80846 170.754 9.13014 170.866 9.41576C170.978 9.70137 171.147 9.92685 171.379 10.0982C171.611 10.2696 171.913 10.3538 172.281 10.3538C172.553 10.3538 172.809 10.2966 173.054 10.1794C173.298 10.0621 173.455 9.8577 173.533 9.56006H174.387C174.324 9.90881 174.185 10.1944 173.974 10.4199C173.763 10.6454 173.509 10.8107 173.207 10.919C172.906 11.0242 172.589 11.0783 172.254 11.0783Z" fill="white"/>
<path d="M177.716 11.0783C177.179 11.0783 176.732 10.967 176.382 10.7445C176.032 10.5221 175.77 10.2154 175.598 9.82156C175.426 9.42772 175.341 8.98277 175.341 8.48671C175.341 7.99065 175.429 7.56373 175.607 7.16688C175.785 6.77003 176.056 6.45436 176.421 6.21986C176.786 5.98535 177.251 5.8681 177.815 5.8681C178.165 5.8681 178.476 5.92523 178.751 6.04248C179.025 6.15973 179.255 6.32809 179.436 6.55056C179.617 6.77304 179.744 7.05264 179.813 7.38635H178.968C178.872 7.10375 178.718 6.90232 178.506 6.78206C178.295 6.6618 178.048 6.60167 177.764 6.60167C177.375 6.60167 177.067 6.69187 176.832 6.87225C176.599 7.05264 176.427 7.28714 176.322 7.57275C176.216 7.85836 176.162 8.16502 176.162 8.48671C176.162 8.8084 176.216 9.13008 176.328 9.41569C176.439 9.70131 176.608 9.92679 176.841 10.0982C177.073 10.2695 177.375 10.3537 177.743 10.3537C178.015 10.3537 178.271 10.2966 178.515 10.1793C178.76 10.0621 178.917 9.85764 178.995 9.56H179.849C179.786 9.90875 179.647 10.1944 179.436 10.4198C179.225 10.6453 178.971 10.8107 178.669 10.9189C178.368 11.0241 178.051 11.0783 177.716 11.0783Z" fill="white"/>
<path d="M180.896 11.0216V5.92871H181.72V8.12341H182.613L184.128 5.92871H185.07L183.362 8.3549L185.215 11.0216H184.243L182.71 8.83593H181.72V11.0216H180.896Z" fill="white"/>
<path d="M187.474 11.0783C187.242 11.0783 187.016 11.0482 186.801 10.9881C186.587 10.9279 186.391 10.8317 186.219 10.7085C186.047 10.5822 185.911 10.4259 185.812 10.2334C185.712 10.044 185.661 9.82156 185.661 9.57203C185.661 9.28341 185.715 9.03689 185.821 8.83846C185.926 8.64004 186.071 8.48069 186.252 8.36645C186.433 8.2492 186.645 8.16803 186.883 8.11391C187.121 8.05979 187.372 8.03574 187.631 8.03574H189.134C189.134 7.74412 189.095 7.49458 189.013 7.28113C188.932 7.06767 188.802 6.90232 188.621 6.78206C188.44 6.6618 188.202 6.60167 187.903 6.60167C187.722 6.60167 187.553 6.61971 187.399 6.6588C187.245 6.69788 187.112 6.75801 187.001 6.84219C186.892 6.92637 186.811 7.04061 186.759 7.17891H185.875C185.92 6.94741 186.011 6.74899 186.144 6.58364C186.276 6.41828 186.436 6.28299 186.629 6.17777C186.823 6.07254 187.025 5.99137 187.245 5.94026C187.465 5.88915 187.686 5.86209 187.906 5.86209C188.398 5.86209 188.793 5.9613 189.089 6.15672C189.387 6.35515 189.605 6.63174 189.741 6.9895C189.876 7.34727 189.943 7.77118 189.943 8.26123V11.0151H189.255L189.206 10.3657C189.065 10.5581 188.893 10.7085 188.693 10.8107C188.491 10.9129 188.286 10.982 188.078 11.0181C187.87 11.0542 187.671 11.0722 187.48 11.0722L187.474 11.0783ZM187.553 10.3537C187.876 10.3537 188.156 10.2996 188.392 10.1944C188.627 10.0891 188.811 9.9328 188.941 9.72536C189.071 9.51791 189.134 9.26838 189.134 8.97074V8.72121H188.232C188.021 8.72121 187.809 8.72422 187.601 8.73023C187.393 8.73624 187.206 8.7633 187.04 8.8084C186.871 8.85349 186.738 8.93166 186.639 9.03989C186.539 9.14812 186.488 9.30746 186.488 9.51491C186.488 9.70732 186.539 9.86666 186.639 9.98692C186.738 10.1102 186.871 10.2004 187.037 10.2635C187.203 10.3236 187.375 10.3537 187.556 10.3537H187.553Z" fill="white"/>
<path d="M190.9 11.0216L192.227 9.01031C191.859 8.90809 191.567 8.73973 191.355 8.50222C191.144 8.26471 191.035 7.95204 191.035 7.5612C191.035 7.25154 191.081 6.99299 191.171 6.78254C191.262 6.57209 191.395 6.40673 191.57 6.28046C191.745 6.15419 191.956 6.064 192.2 6.00988C192.445 5.95577 192.728 5.92871 193.045 5.92871H195.1V11.0216H194.276V9.13658H193.102L191.859 11.0216H190.9ZM193.664 8.42104H194.276V6.65326H193.181C192.988 6.65326 192.81 6.66228 192.647 6.68333C192.487 6.70136 192.348 6.74345 192.233 6.80358C192.119 6.86672 192.031 6.9509 191.965 7.06514C191.898 7.17939 191.868 7.32971 191.868 7.52513C191.868 7.73858 191.923 7.90394 192.028 8.0272C192.134 8.15047 192.273 8.23765 192.445 8.29477C192.617 8.34889 192.807 8.38497 193.021 8.4C193.235 8.41503 193.449 8.42405 193.661 8.42405L193.664 8.42104Z" fill="white"/>
<path d="M138.829 22.1003C138.123 22.1003 137.538 21.95 137.067 21.6524C136.599 21.3517 136.249 20.9398 136.02 20.4137C135.791 19.8876 135.676 19.2863 135.676 18.6098C135.676 17.9334 135.791 17.3441 136.026 16.818C136.258 16.2919 136.608 15.877 137.079 15.5703C137.55 15.2637 138.138 15.1104 138.85 15.1104C139.354 15.1104 139.789 15.1885 140.154 15.3479C140.519 15.5072 140.815 15.7237 141.041 16.0003C141.267 16.2768 141.424 16.6015 141.506 16.9773H140.652C140.555 16.6406 140.347 16.3761 140.027 16.1746C139.707 15.9732 139.306 15.874 138.82 15.874C138.277 15.874 137.837 16.0033 137.505 16.2558C137.17 16.5114 136.928 16.8421 136.771 17.2509C136.614 17.6598 136.539 18.1048 136.539 18.5798C136.539 19.0819 136.621 19.5448 136.78 19.9627C136.943 20.3806 137.194 20.7143 137.538 20.9639C137.882 21.2134 138.316 21.3367 138.847 21.3367C139.17 21.3367 139.46 21.2916 139.716 21.2014C139.973 21.1112 140.184 20.9819 140.356 20.8136C140.528 20.6452 140.646 20.4528 140.709 20.2333H141.63C141.533 20.6061 141.358 20.9338 141.111 21.2134C140.863 21.493 140.546 21.7125 140.166 21.8658C139.786 22.0221 139.339 22.0973 138.826 22.0973L138.829 22.1003Z" fill="white"/>
<path d="M144.04 22.0216V17.6533H142.284V16.9287H146.62V17.6533H144.864V22.0216H144.04Z" fill="white"/>
<path d="M147.357 23.859V16.9292H148.141L148.181 17.7139C148.356 17.4373 148.594 17.2268 148.893 17.0855C149.195 16.9442 149.517 16.8721 149.867 16.8721C150.383 16.8721 150.809 16.9863 151.138 17.2148C151.467 17.4433 151.711 17.756 151.871 18.1468C152.031 18.5406 152.109 18.9856 152.109 19.4817C152.109 19.9777 152.028 20.4227 151.865 20.8165C151.705 21.2104 151.455 21.52 151.12 21.7455C150.782 21.971 150.353 22.0822 149.828 22.0822C149.569 22.0822 149.336 22.0552 149.131 22.001C148.923 21.9469 148.742 21.8688 148.588 21.7635C148.431 21.6613 148.295 21.5441 148.181 21.4148V23.862H147.357V23.859ZM149.762 21.3547C150.136 21.3547 150.435 21.2705 150.655 21.0991C150.875 20.9278 151.035 20.7023 151.135 20.4167C151.234 20.131 151.286 19.8214 151.286 19.4786C151.286 19.1359 151.234 18.8142 151.135 18.5316C151.035 18.249 150.872 18.0235 150.646 17.8552C150.42 17.6868 150.118 17.6026 149.744 17.6026C149.406 17.6026 149.122 17.6898 148.884 17.8582C148.645 18.0265 148.467 18.258 148.344 18.5436C148.22 18.8293 148.16 19.1449 148.16 19.4847C148.16 19.8244 148.217 20.1581 148.335 20.4407C148.449 20.7233 148.627 20.9458 148.869 21.1081C149.107 21.2675 149.406 21.3487 149.762 21.3487V21.3547Z" fill="white"/>
<path d="M155.411 22.0792C154.874 22.0792 154.424 21.968 154.062 21.7455C153.7 21.523 153.428 21.2164 153.253 20.8225C153.078 20.4287 152.988 19.9807 152.988 19.4786C152.988 18.9766 153.075 18.5196 153.253 18.1318C153.431 17.7439 153.703 17.4343 154.062 17.2088C154.424 16.9833 154.88 16.8721 155.432 16.8721C155.984 16.8721 156.416 16.9863 156.775 17.2088C157.134 17.4343 157.402 17.7409 157.58 18.1318C157.758 18.5226 157.846 18.9706 157.846 19.4786C157.846 19.9867 157.755 20.4287 157.574 20.8225C157.393 21.2164 157.125 21.523 156.766 21.7455C156.407 21.968 155.957 22.0792 155.411 22.0792ZM155.411 21.3547C155.785 21.3547 156.093 21.2705 156.328 21.1021C156.564 20.9338 156.739 20.7083 156.853 20.4257C156.968 20.1431 157.022 19.8274 157.022 19.4786C157.022 19.1299 156.965 18.8142 156.853 18.5316C156.739 18.249 156.567 18.0235 156.328 17.8552C156.09 17.6868 155.785 17.6026 155.411 17.6026C155.037 17.6026 154.741 17.6868 154.503 17.8552C154.264 18.0235 154.092 18.249 153.978 18.5316C153.863 18.8142 153.809 19.1299 153.809 19.4786C153.809 19.8274 153.866 20.1431 153.978 20.4257C154.089 20.7083 154.264 20.9338 154.503 21.1021C154.738 21.2705 155.043 21.3547 155.411 21.3547Z" fill="white"/>
<path d="M158.95 22.0217V16.9288H159.774V20.8341C159.819 20.7439 159.879 20.6447 159.958 20.5395C160.036 20.4343 160.097 20.3501 160.142 20.293L162.616 16.9288H163.431V22.0217H162.607V18.1163C162.556 18.2125 162.499 18.3027 162.438 18.3869C162.375 18.4711 162.321 18.5462 162.269 18.6184L159.756 22.0217H158.95Z" fill="white"/>
<path d="M165.926 22.0216V17.6533H164.17V16.9287H168.506V17.6533H166.75V22.0216H165.926Z" fill="white"/>
<path d="M171.458 22.0792C170.915 22.0792 170.465 21.968 170.109 21.7455C169.753 21.523 169.487 21.2164 169.312 20.8225C169.137 20.4287 169.05 19.9807 169.05 19.4786C169.05 18.9766 169.14 18.5196 169.327 18.1318C169.515 17.7439 169.783 17.4343 170.136 17.2088C170.492 16.9833 170.93 16.8721 171.446 16.8721C171.826 16.8721 172.161 16.9442 172.451 17.0885C172.737 17.2328 172.979 17.4283 173.169 17.6718C173.359 17.9153 173.498 18.1889 173.585 18.4925C173.673 18.7962 173.709 19.1089 173.697 19.4305C173.691 19.4877 173.688 19.5478 173.688 19.6049C173.688 19.662 173.685 19.7222 173.679 19.7793H169.886C169.913 20.0769 169.985 20.3445 170.109 20.582C170.233 20.8195 170.405 21.0089 170.634 21.1472C170.863 21.2855 171.141 21.3547 171.479 21.3547C171.648 21.3547 171.817 21.3336 171.989 21.2915C172.161 21.2494 172.315 21.1773 172.454 21.0751C172.592 20.9728 172.692 20.8346 172.749 20.6602H173.594C173.516 20.9879 173.371 21.2585 173.157 21.4659C172.942 21.6764 172.689 21.8297 172.39 21.9289C172.094 22.0281 171.781 22.0792 171.458 22.0792ZM169.907 19.0638H172.867C172.861 18.7751 172.795 18.5196 172.674 18.3001C172.55 18.0807 172.384 17.9093 172.173 17.789C171.962 17.6658 171.714 17.6056 171.422 17.6056C171.105 17.6056 170.836 17.6718 170.622 17.8071C170.405 17.9424 170.239 18.1197 170.121 18.3392C170.003 18.5587 169.934 18.7992 169.907 19.0638Z" fill="white"/>
<path d="M174.291 22.0306V21.3151C174.42 21.3151 174.535 21.288 174.641 21.2339C174.743 21.1798 174.834 21.0956 174.912 20.9874C175.003 20.8581 175.072 20.6717 175.126 20.4282C175.178 20.1847 175.214 19.9231 175.232 19.6465C175.259 19.3369 175.277 19.0332 175.289 18.7326C175.301 18.4319 175.314 18.1343 175.323 17.8367C175.332 17.542 175.338 17.2384 175.338 16.9287H178.889V22.0216H178.065V17.6533H176.143C176.137 17.8727 176.128 18.0922 176.119 18.3147C176.11 18.5372 176.098 18.7596 176.089 18.9821C176.08 19.2046 176.068 19.4271 176.056 19.6525C176.05 19.9111 176.023 20.1997 175.977 20.5244C175.932 20.8461 175.836 21.1407 175.685 21.4053C175.543 21.6548 175.371 21.8232 175.166 21.9074C174.964 21.9915 174.668 22.0336 174.288 22.0336L174.291 22.0306Z" fill="white"/>
<path d="M180.19 22.0216V16.9287H181.035V18.8709H182.16C182.465 18.8709 182.737 18.8949 182.978 18.943C183.22 18.9911 183.431 19.0723 183.606 19.1895C183.781 19.3038 183.914 19.4601 184.007 19.6586C184.101 19.857 184.149 20.1065 184.149 20.4072C184.149 20.6837 184.101 20.9243 184.004 21.1257C183.907 21.3301 183.772 21.4955 183.597 21.6278C183.422 21.7601 183.213 21.8593 182.972 21.9224C182.731 21.9855 182.462 22.0186 182.172 22.0186H180.193L180.19 22.0216ZM181.035 21.3061H181.521C181.747 21.3061 181.964 21.3001 182.175 21.288C182.387 21.276 182.58 21.2429 182.752 21.1918C182.927 21.1407 183.063 21.0535 183.165 20.9363C183.268 20.819 183.316 20.6507 183.316 20.4372C183.316 20.2238 183.277 20.0734 183.195 19.9592C183.114 19.845 183.008 19.7608 182.882 19.7067C182.755 19.6525 182.613 19.6195 182.459 19.6044C182.305 19.5894 182.157 19.5834 182.009 19.5834H181.041V21.3031L181.035 21.3061Z" fill="white"/>
<path d="M185.224 22.0216V16.9287H186.047V19.1625H188.609V16.9287H189.433V22.0216H188.609V19.884H186.047V22.0216H185.224Z" fill="white"/>
<path d="M192.375 22.0785C192.143 22.0785 191.916 22.0484 191.702 21.9883C191.488 21.9281 191.292 21.8319 191.12 21.7087C190.948 21.5824 190.812 21.4261 190.712 21.2337C190.613 21.0443 190.562 20.8218 190.562 20.5722C190.562 20.2836 190.616 20.0371 190.721 19.8387C190.827 19.6402 190.972 19.4809 191.153 19.3667C191.334 19.2494 191.545 19.1682 191.784 19.1141C192.022 19.06 192.272 19.036 192.532 19.036H194.035C194.035 18.7443 193.995 18.4948 193.914 18.2813C193.832 18.0679 193.703 17.9025 193.522 17.7823C193.341 17.662 193.102 17.6019 192.804 17.6019C192.622 17.6019 192.453 17.6199 192.3 17.659C192.146 17.6981 192.013 17.7582 191.901 17.8424C191.793 17.9266 191.711 18.0408 191.66 18.1791H190.776C190.821 17.9476 190.912 17.7492 191.044 17.5838C191.177 17.4185 191.337 17.2832 191.53 17.178C191.723 17.0728 191.925 16.9916 192.146 16.9405C192.366 16.8894 192.586 16.8623 192.807 16.8623C193.298 16.8623 193.694 16.9615 193.989 17.1569C194.288 17.3554 194.505 17.632 194.641 17.9897C194.777 18.3475 194.843 18.7714 194.843 19.2614V22.0153H194.155L194.107 21.3659C193.965 21.5584 193.793 21.7087 193.594 21.8109C193.392 21.9131 193.187 21.9823 192.979 22.0183C192.77 22.0544 192.571 22.0725 192.381 22.0725L192.375 22.0785ZM192.453 21.3539C192.776 21.3539 193.057 21.2998 193.292 21.1946C193.528 21.0894 193.712 20.933 193.842 20.7256C193.971 20.5181 194.035 20.2686 194.035 19.971V19.7214H193.132C192.921 19.7214 192.71 19.7244 192.502 19.7304C192.294 19.7365 192.106 19.7635 191.941 19.8086C191.772 19.8537 191.639 19.9319 191.539 20.0401C191.44 20.1483 191.388 20.3077 191.388 20.5151C191.388 20.7075 191.44 20.8669 191.539 20.9871C191.639 21.1104 191.772 21.2006 191.938 21.2637C192.103 21.3239 192.275 21.3539 192.457 21.3539H192.453Z" fill="white"/>
<path d="M195.8 22.0216L197.128 20.0103C196.76 19.9081 196.467 19.7397 196.256 19.5022C196.044 19.2647 195.936 18.952 195.936 18.5612C195.936 18.2515 195.981 17.993 196.072 17.7825C196.162 17.5721 196.295 17.4067 196.47 17.2805C196.645 17.1542 196.856 17.064 197.101 17.0099C197.345 16.9558 197.629 16.9287 197.945 16.9287H200V22.0216H199.177V20.1366H198.003L196.76 22.0216H195.8ZM198.564 19.421H199.177V17.6533H198.081C197.888 17.6533 197.71 17.6623 197.547 17.6833C197.387 17.7014 197.248 17.7435 197.134 17.8036C197.019 17.8667 196.932 17.9509 196.865 18.0651C196.799 18.1794 196.769 18.3297 196.769 18.5251C196.769 18.7386 196.823 18.9039 196.929 19.0272C197.034 19.1505 197.173 19.2377 197.345 19.2948C197.517 19.3489 197.707 19.385 197.921 19.4C198.136 19.415 198.35 19.4241 198.561 19.4241L198.564 19.421Z" fill="white"/>
<path d="M136.053 33.0222V26.1886H140.721V26.9522H136.898V29.0116H138.461C138.796 29.0116 139.119 29.0387 139.427 29.0898C139.735 29.1409 140.009 29.2341 140.248 29.3694C140.486 29.5047 140.676 29.6971 140.815 29.9436C140.954 30.1902 141.023 30.5149 141.023 30.9147C141.023 31.3146 140.96 31.6393 140.83 31.9098C140.7 32.1804 140.519 32.3969 140.287 32.5622C140.054 32.7276 139.78 32.8448 139.463 32.914C139.146 32.9831 138.799 33.0192 138.425 33.0192H136.056L136.053 33.0222ZM136.898 32.2586H138.313C138.546 32.2586 138.775 32.2436 138.998 32.2105C139.222 32.1774 139.421 32.1203 139.596 32.0301C139.771 31.9429 139.91 31.8136 140.012 31.6423C140.115 31.4709 140.166 31.2484 140.166 30.9718C140.166 30.6952 140.118 30.4758 140.015 30.3134C139.916 30.1541 139.777 30.0338 139.602 29.9557C139.427 29.8775 139.234 29.8294 139.019 29.8053C138.805 29.7813 138.585 29.7723 138.359 29.7723H136.895V32.2556L136.898 32.2586Z" fill="white"/>
<path d="M143.845 33.0793C143.612 33.0793 143.386 33.0493 143.172 32.9891C142.957 32.929 142.761 32.8328 142.589 32.7095C142.417 32.5833 142.281 32.4269 142.182 32.2345C142.082 32.0451 142.031 31.8226 142.031 31.5731C142.031 31.2845 142.085 31.038 142.191 30.8395C142.297 30.6411 142.441 30.4818 142.622 30.3675C142.803 30.2503 143.015 30.1691 143.253 30.115C143.491 30.0609 143.742 30.0368 144.001 30.0368H145.504C145.504 29.7452 145.465 29.4957 145.383 29.2822C145.302 29.0687 145.172 28.9034 144.991 28.7831C144.81 28.6629 144.572 28.6027 144.273 28.6027C144.092 28.6027 143.923 28.6208 143.769 28.6599C143.615 28.6989 143.482 28.7591 143.371 28.8433C143.262 28.9274 143.181 29.0417 143.129 29.18H142.245C142.291 28.9485 142.381 28.7501 142.514 28.5847C142.647 28.4193 142.807 28.2841 143 28.1788C143.193 28.0736 143.395 27.9924 143.615 27.9413C143.835 27.8902 144.056 27.8632 144.276 27.8632C144.768 27.8632 145.163 27.9624 145.459 28.1578C145.758 28.3562 145.975 28.6328 146.111 28.9906C146.246 29.3483 146.313 29.7722 146.313 30.2623V33.0162H145.625L145.577 32.3668C145.435 32.5592 145.263 32.7095 145.064 32.8117C144.861 32.914 144.656 32.9831 144.448 33.0192C144.24 33.0553 144.041 33.0733 143.851 33.0733L143.845 33.0793ZM143.923 32.3548C144.246 32.3548 144.526 32.3007 144.762 32.1954C144.997 32.0902 145.181 31.9339 145.311 31.7264C145.441 31.519 145.504 31.2694 145.504 30.9718V30.7223H144.602C144.391 30.7223 144.179 30.7253 143.971 30.7313C143.763 30.7373 143.576 30.7644 143.41 30.8095C143.241 30.8546 143.108 30.9327 143.009 31.041C142.909 31.1492 142.858 31.3085 142.858 31.516C142.858 31.7084 142.909 31.8677 143.009 31.988C143.108 32.1113 143.241 32.2014 143.407 32.2646C143.573 32.3247 143.745 32.3548 143.926 32.3548H143.923Z" fill="white"/>
<path d="M149.774 33.0793C149.237 33.0793 148.79 32.9681 148.44 32.7456C148.09 32.5231 147.827 32.2165 147.655 31.8226C147.483 31.4288 147.399 30.9838 147.399 30.4878C147.399 29.9917 147.486 29.5648 147.664 29.168C147.842 28.7711 148.114 28.4554 148.479 28.2209C148.844 27.9864 149.309 27.8692 149.873 27.8692C150.223 27.8692 150.534 27.9263 150.809 28.0435C151.083 28.1608 151.313 28.3292 151.494 28.5516C151.675 28.7741 151.801 29.0537 151.871 29.3874H151.026C150.929 29.1048 150.776 28.9034 150.564 28.7831C150.353 28.6629 150.106 28.6027 149.822 28.6027C149.433 28.6027 149.125 28.6929 148.89 28.8733C148.657 29.0537 148.485 29.2882 148.38 29.5738C148.274 29.8594 148.22 30.1661 148.22 30.4878C148.22 30.8095 148.274 31.1312 148.386 31.4168C148.497 31.7024 148.666 31.9279 148.899 32.0992C149.131 32.2706 149.433 32.3548 149.801 32.3548C150.072 32.3548 150.329 32.2977 150.573 32.1804C150.818 32.0631 150.975 31.8587 151.053 31.5611H151.907C151.844 31.9098 151.705 32.1954 151.494 32.4209C151.282 32.6464 151.029 32.8118 150.727 32.92C150.425 33.0252 150.109 33.0793 149.774 33.0793Z" fill="white"/>
<path d="M155.235 33.0793C154.698 33.0793 154.251 32.9681 153.901 32.7456C153.551 32.5231 153.289 32.2164 153.117 31.8226C152.945 31.4288 152.86 30.9838 152.86 30.4877C152.86 29.9917 152.948 29.5648 153.126 29.1679C153.304 28.7711 153.576 28.4554 153.941 28.2209C154.306 27.9864 154.77 27.8691 155.335 27.8691C155.685 27.8691 155.996 27.9263 156.27 28.0435C156.545 28.1608 156.774 28.3291 156.955 28.5516C157.136 28.7741 157.263 29.0537 157.332 29.3874H156.487C156.391 29.1048 156.237 28.9034 156.026 28.7831C155.814 28.6628 155.567 28.6027 155.283 28.6027C154.894 28.6027 154.586 28.6929 154.351 28.8733C154.119 29.0537 153.947 29.2882 153.841 29.5738C153.735 29.8594 153.681 30.1661 153.681 30.4877C153.681 30.8094 153.735 31.1311 153.847 31.4167C153.959 31.7023 154.128 31.9278 154.36 32.0992C154.592 32.2706 154.894 32.3547 155.262 32.3547C155.534 32.3547 155.79 32.2976 156.035 32.1804C156.279 32.0631 156.436 31.8587 156.515 31.561H157.369C157.305 31.9098 157.166 32.1954 156.955 32.4209C156.744 32.6464 156.49 32.8117 156.189 32.92C155.887 33.0252 155.57 33.0793 155.235 33.0793Z" fill="white"/>
<path d="M160.631 33.0793C160.088 33.0793 159.638 32.9681 159.282 32.7456C158.926 32.5231 158.66 32.2165 158.485 31.8226C158.31 31.4288 158.223 30.9808 158.223 30.4788C158.223 29.9767 158.313 29.5197 158.501 29.1319C158.688 28.7441 158.956 28.4344 159.309 28.2089C159.665 27.9834 160.103 27.8722 160.619 27.8722C160.999 27.8722 161.334 27.9443 161.624 28.0887C161.91 28.233 162.152 28.4284 162.342 28.6719C162.532 28.9154 162.671 29.189 162.758 29.4927C162.846 29.7963 162.882 30.109 162.87 30.4307C162.864 30.4878 162.861 30.5479 162.861 30.605C162.861 30.6622 162.858 30.7223 162.852 30.7794H159.059C159.086 31.077 159.158 31.3446 159.282 31.5821C159.406 31.8196 159.578 32.009 159.807 32.1473C160.036 32.2856 160.314 32.3548 160.652 32.3548C160.821 32.3548 160.99 32.3337 161.162 32.2917C161.334 32.2496 161.488 32.1774 161.627 32.0752C161.765 31.973 161.865 31.8347 161.922 31.6603H162.767C162.689 31.988 162.544 32.2586 162.33 32.466C162.115 32.6765 161.862 32.8298 161.563 32.929C161.268 33.0282 160.954 33.0793 160.631 33.0793ZM159.08 30.0639H162.04C162.034 29.7753 161.968 29.5197 161.847 29.3002C161.723 29.0808 161.557 28.9094 161.346 28.7892C161.135 28.6659 160.887 28.6058 160.595 28.6058C160.278 28.6058 160.009 28.6719 159.795 28.8072C159.578 28.9425 159.412 29.1199 159.294 29.3393C159.176 29.5588 159.107 29.7993 159.08 30.0639Z" fill="white"/>
<path d="M163.977 33.0219V27.929H164.801V31.8343C164.846 31.7441 164.906 31.6449 164.985 31.5397C165.063 31.4345 165.123 31.3503 165.169 31.2932L167.643 27.929H168.458V33.0219H167.634V29.1165C167.583 29.2127 167.525 29.3029 167.465 29.3871C167.402 29.4713 167.347 29.5464 167.296 29.6186L164.782 33.0219H163.977ZM166.285 27.2134C165.775 27.2134 165.374 27.1052 165.087 26.8857C164.801 26.6663 164.65 26.3476 164.638 25.9297H165.395C165.407 26.1552 165.495 26.3205 165.652 26.4227C165.808 26.525 166.026 26.5791 166.297 26.5791C166.569 26.5791 166.783 26.528 166.943 26.4227C167.103 26.3205 167.187 26.1552 167.199 25.9297H167.957C167.951 26.2063 167.878 26.4438 167.743 26.6362C167.607 26.8286 167.417 26.9729 167.169 27.0721C166.925 27.1683 166.629 27.2164 166.285 27.2164V27.2134Z" fill="white"/>
<path d="M169.759 33.0226V27.9297H170.582V30.1635H173.144V27.9297H173.968V33.0226H173.144V30.885H170.582V33.0226H169.759Z" fill="white"/>
<path d="M177.502 33.0793C176.965 33.0793 176.515 32.9681 176.153 32.7456C175.791 32.5231 175.519 32.2165 175.344 31.8226C175.169 31.4288 175.079 30.9808 175.079 30.4788C175.079 29.9767 175.166 29.5197 175.344 29.1319C175.522 28.7441 175.794 28.4344 176.153 28.2089C176.515 27.9834 176.971 27.8722 177.523 27.8722C178.075 27.8722 178.506 27.9864 178.866 28.2089C179.225 28.4344 179.493 28.7411 179.671 29.1319C179.849 29.5227 179.937 29.9707 179.937 30.4788C179.937 30.9869 179.846 31.4288 179.665 31.8226C179.484 32.2165 179.216 32.5231 178.857 32.7456C178.497 32.9681 178.048 33.0793 177.502 33.0793ZM177.502 32.3548C177.876 32.3548 178.184 32.2706 178.419 32.1022C178.654 31.9339 178.829 31.7084 178.944 31.4258C179.059 31.1432 179.113 30.8275 179.113 30.4788C179.113 30.13 179.056 29.8143 178.944 29.5317C178.829 29.2491 178.657 29.0237 178.419 28.8553C178.181 28.6869 177.876 28.6028 177.502 28.6028C177.127 28.6028 176.832 28.6869 176.593 28.8553C176.355 29.0237 176.183 29.2491 176.068 29.5317C175.954 29.8143 175.899 30.13 175.899 30.4788C175.899 30.8275 175.957 31.1432 176.068 31.4258C176.18 31.7084 176.355 31.9339 176.593 32.1022C176.829 32.2706 177.134 32.3548 177.502 32.3548Z" fill="white"/>
<path d="M181.041 33.0226V27.9297H183.02C183.247 27.9297 183.473 27.9447 183.693 27.9748C183.916 28.0048 184.122 28.062 184.306 28.1492C184.49 28.2363 184.638 28.3626 184.752 28.531C184.867 28.6993 184.921 28.9218 184.921 29.1984C184.921 29.3668 184.894 29.5201 184.843 29.6584C184.791 29.7967 184.713 29.9169 184.613 30.0222C184.514 30.1274 184.384 30.2146 184.23 30.2927C184.58 30.3709 184.831 30.5212 184.988 30.7467C185.144 30.9722 185.22 31.2308 185.22 31.5194C185.22 31.7779 185.172 32.0004 185.078 32.1898C184.985 32.3792 184.855 32.5355 184.689 32.6588C184.523 32.7821 184.333 32.8723 184.116 32.9354C183.898 32.9955 183.669 33.0256 183.422 33.0256H181.035L181.041 33.0226ZM181.886 30.1033H182.592C182.721 30.1033 182.872 30.0973 183.044 30.0853C183.216 30.0733 183.382 30.0402 183.548 29.9921C183.714 29.944 183.85 29.8688 183.956 29.7666C184.061 29.6644 184.116 29.5231 184.116 29.3397C184.116 29.1022 184.049 28.9368 183.916 28.8406C183.784 28.7474 183.627 28.6933 183.446 28.6753C183.265 28.6602 183.096 28.6512 182.942 28.6512H181.886V30.1003V30.1033ZM181.886 32.3071H183.234C183.434 32.3071 183.624 32.289 183.796 32.2499C183.968 32.2108 184.113 32.1387 184.224 32.0335C184.336 31.9282 184.39 31.7749 184.39 31.5735C184.39 31.3721 184.345 31.2127 184.248 31.1045C184.155 30.9993 184.037 30.9241 183.889 30.882C183.741 30.8399 183.587 30.8159 183.418 30.8099C183.25 30.8038 183.093 30.8008 182.945 30.8008H181.889V32.3101L181.886 32.3071Z" fill="white"/>
<path d="M187.987 33.0794C187.755 33.0794 187.528 33.0494 187.314 32.9893C187.1 32.9291 186.904 32.8329 186.732 32.7097C186.56 32.5834 186.424 32.427 186.324 32.2346C186.225 32.0452 186.173 31.8228 186.173 31.5732C186.173 31.2846 186.228 31.0381 186.333 30.8397C186.439 30.6412 186.584 30.4819 186.765 30.3676C186.946 30.2504 187.157 30.1692 187.395 30.1151C187.634 30.061 187.884 30.0369 188.144 30.0369H189.646C189.646 29.7453 189.607 29.4958 189.526 29.2823C189.444 29.0689 189.315 28.9035 189.134 28.7832C188.952 28.663 188.714 28.6029 188.415 28.6029C188.234 28.6029 188.065 28.6209 187.911 28.66C187.758 28.6991 187.625 28.7592 187.513 28.8434C187.404 28.9276 187.323 29.0418 187.272 29.1801H186.388C186.433 28.9486 186.523 28.7502 186.656 28.5848C186.789 28.4195 186.949 28.2842 187.142 28.179C187.335 28.0737 187.537 27.9926 187.758 27.9414C187.978 27.8903 188.198 27.8633 188.418 27.8633C188.91 27.8633 189.306 27.9625 189.601 28.1579C189.9 28.3563 190.117 28.6329 190.253 28.9907C190.389 29.3485 190.455 29.7724 190.455 30.2624V33.0163H189.767L189.719 32.3669C189.577 32.5593 189.405 32.7097 189.206 32.8119C189.004 32.9141 188.799 32.9832 188.59 33.0193C188.382 33.0554 188.183 33.0734 187.993 33.0734L187.987 33.0794ZM188.065 32.3549C188.388 32.3549 188.669 32.3008 188.904 32.1956C189.14 32.0903 189.324 31.934 189.453 31.7265C189.583 31.5191 189.646 31.2696 189.646 30.9719V30.7224H188.744C188.533 30.7224 188.322 30.7254 188.114 30.7314C187.905 30.7374 187.718 30.7645 187.552 30.8096C187.383 30.8547 187.251 30.9329 187.151 31.0411C187.051 31.1493 187 31.3087 187 31.5161C187 31.7085 187.051 31.8679 187.151 31.9881C187.251 32.1114 187.383 32.2016 187.549 32.2647C187.715 32.3248 187.887 32.3549 188.068 32.3549H188.065Z" fill="white"/>
<path d="M191.412 33.0226L192.74 31.0113C192.372 30.9091 192.079 30.7407 191.868 30.5032C191.657 30.2657 191.548 29.953 191.548 29.5622C191.548 29.2525 191.593 28.994 191.684 28.7835C191.774 28.5731 191.907 28.4077 192.082 28.2814C192.257 28.1552 192.468 28.065 192.713 28.0109C192.957 27.9567 193.241 27.9297 193.558 27.9297H195.612V33.0226H194.789V31.1376H193.615L192.372 33.0226H191.412ZM194.176 30.422H194.789V28.6542H193.693C193.5 28.6542 193.322 28.6633 193.159 28.6843C192.999 28.7023 192.861 28.7444 192.746 28.8046C192.631 28.8677 192.544 28.9519 192.477 29.0661C192.411 29.1804 192.381 29.3307 192.381 29.5261C192.381 29.7396 192.435 29.9049 192.541 30.0282C192.646 30.1514 192.785 30.2386 192.957 30.2957C193.129 30.3499 193.319 30.3859 193.533 30.401C193.748 30.416 193.962 30.425 194.173 30.425L194.176 30.422Z" fill="white"/>
<path d="M136.053 44.0201V37.1865H136.898V40.3373H137.918L140.151 37.1865H141.12L138.655 40.5778L141.138 44.0201H140.139L137.985 41.1009H136.898V44.0201H136.053Z" fill="white"/>
<path d="M143.962 44.0802C143.425 44.0802 142.975 43.9689 142.613 43.7465C142.251 43.524 141.98 43.2173 141.805 42.8235C141.63 42.4297 141.539 41.9817 141.539 41.4796C141.539 40.9775 141.627 40.5206 141.805 40.1327C141.983 39.7449 142.254 39.4352 142.613 39.2098C142.975 38.9843 143.431 38.873 143.983 38.873C144.535 38.873 144.967 38.9873 145.326 39.2098C145.685 39.4352 145.954 39.7419 146.132 40.1327C146.31 40.5236 146.397 40.9715 146.397 41.4796C146.397 41.9877 146.307 42.4297 146.126 42.8235C145.945 43.2173 145.676 43.524 145.317 43.7465C144.958 43.9689 144.508 44.0802 143.962 44.0802ZM143.962 43.3556C144.336 43.3556 144.644 43.2715 144.879 43.1031C145.115 42.9347 145.29 42.7093 145.404 42.4266C145.519 42.144 145.573 41.8284 145.573 41.4796C145.573 41.1309 145.516 40.8152 145.404 40.5326C145.29 40.25 145.118 40.0245 144.879 39.8562C144.641 39.6878 144.336 39.6036 143.962 39.6036C143.588 39.6036 143.292 39.6878 143.054 39.8562C142.815 40.0245 142.643 40.25 142.529 40.5326C142.414 40.8152 142.36 41.1309 142.36 41.4796C142.36 41.8284 142.417 42.144 142.529 42.4266C142.64 42.7093 142.815 42.9347 143.054 43.1031C143.289 43.2715 143.594 43.3556 143.962 43.3556Z" fill="white"/>
<path d="M147.502 44.0197V38.9268H148.607L150.266 41.4792L151.896 38.9268H152.982V44.0197H152.167V39.8347L150.363 42.7149H150.13L148.317 39.8347V44.0197H147.502Z" fill="white"/>
<path d="M154.285 44.0197V38.9268H158.525V44.0197H157.701V39.6513H155.109V44.0197H154.285Z" fill="white"/>
<path d="M161.463 44.0794C161.231 44.0794 161.005 44.0494 160.79 43.9893C160.576 43.9291 160.38 43.8329 160.208 43.7097C160.036 43.5834 159.9 43.427 159.801 43.2346C159.701 43.0452 159.65 42.8228 159.65 42.5732C159.65 42.2846 159.704 42.0381 159.81 41.8396C159.915 41.6412 160.06 41.4819 160.241 41.3676C160.422 41.2504 160.633 41.1692 160.872 41.1151C161.11 41.061 161.361 41.0369 161.62 41.0369H163.123C163.123 40.7453 163.084 40.4958 163.002 40.2823C162.921 40.0689 162.791 39.9035 162.61 39.7832C162.429 39.663 162.19 39.6029 161.892 39.6029C161.711 39.6029 161.542 39.6209 161.388 39.66C161.234 39.6991 161.101 39.7592 160.989 39.8434C160.881 39.9276 160.799 40.0418 160.748 40.1801H159.864C159.909 39.9486 160 39.7502 160.132 39.5848C160.265 39.4195 160.425 39.2842 160.618 39.179C160.811 39.0737 161.014 38.9926 161.234 38.9414C161.454 38.8903 161.674 38.8633 161.895 38.8633C162.387 38.8633 162.782 38.9625 163.078 39.1579C163.376 39.3563 163.594 39.6329 163.729 39.9907C163.865 40.3485 163.931 40.7724 163.931 41.2624V44.0163H163.243L163.195 43.3669C163.053 43.5593 162.881 43.7097 162.682 43.8119C162.48 43.9141 162.275 43.9832 162.067 44.0193C161.858 44.0554 161.659 44.0734 161.469 44.0734L161.463 44.0794ZM161.542 43.3549C161.864 43.3549 162.145 43.3008 162.38 43.1955C162.616 43.0903 162.8 42.934 162.93 42.7265C163.059 42.5191 163.123 42.2696 163.123 41.9719V41.7224H162.221C162.009 41.7224 161.798 41.7254 161.59 41.7314C161.382 41.7374 161.195 41.7645 161.029 41.8096C160.86 41.8547 160.727 41.9328 160.627 42.0411C160.528 42.1493 160.476 42.3087 160.476 42.5161C160.476 42.7085 160.528 42.8679 160.627 42.9881C160.727 43.1114 160.86 43.2016 161.026 43.2647C161.192 43.3248 161.364 43.3549 161.545 43.3549H161.542Z" fill="white"/>
<path d="M165.208 44.0197V38.9268H166.032V41.1605H168.593V38.9268H169.417V44.0197H168.593V41.8821H166.032V44.0197H165.208Z" fill="white"/>
<path d="M170.721 44.0197V38.9268H171.545V42.8321C171.59 42.7419 171.65 42.6427 171.729 42.5375C171.807 42.4323 171.868 42.3481 171.913 42.291L174.387 38.9268H175.202V44.0197H174.378V40.1143C174.327 40.2105 174.27 40.3007 174.209 40.3849C174.146 40.4691 174.091 40.5442 174.04 40.6164L171.527 44.0197H170.721Z" fill="white"/>
<path d="M176.183 44.0197L177.511 42.0084C177.142 41.9062 176.85 41.7379 176.639 41.5004C176.427 41.2628 176.319 40.9502 176.319 40.5593C176.319 40.2497 176.364 39.9911 176.454 39.7807C176.545 39.5702 176.678 39.4049 176.853 39.2786C177.028 39.1523 177.239 39.0621 177.483 39.008C177.728 38.9539 178.011 38.9268 178.328 38.9268H180.383V44.0197H179.559V42.1347H178.386L177.142 44.0197H176.183ZM178.947 41.4192H179.559V39.6514H178.464C178.271 39.6514 178.093 39.6604 177.93 39.6815C177.77 39.6995 177.631 39.7416 177.517 39.8017C177.402 39.8649 177.314 39.949 177.248 40.0633C177.182 40.1775 177.151 40.3278 177.151 40.5233C177.151 40.7367 177.206 40.9021 177.311 41.0253C177.417 41.1486 177.556 41.2358 177.728 41.2929C177.9 41.347 178.09 41.3831 178.304 41.3981C178.518 41.4132 178.733 41.4222 178.944 41.4222L178.947 41.4192Z" fill="white"/>
</g>
<defs>
<clipPath id="clip0_362_362">
<rect width="200" height="50" fill="white"/>
</clipPath>
</defs>
</svg>
