<svg width="138" height="55" viewBox="0 0 138 55" fill="none" xmlns="http://www.w3.org/2000/svg">
<path fill-rule="evenodd" clip-rule="evenodd" d="M27.7621 0H138V27.5C138 42.625 125.507 55 110.238 55H0V27.5C0 12.375 12.493 0 27.7621 0Z" fill="#000064"/>
<path d="M37.2123 37.807C35.8575 37.807 34.6471 37.609 33.5921 37.213C32.5372 36.817 31.6155 36.267 30.8381 35.563C30.0497 34.859 29.4056 34.023 28.9059 33.055C28.4062 32.087 28.0286 31.042 27.7843 29.909C27.54 28.776 27.4178 27.588 27.4178 26.356C27.4178 24.618 27.5289 23.056 27.751 21.659C27.9731 20.262 28.3284 19.041 28.806 17.974C29.2835 16.907 29.9386 15.994 30.7715 15.224C31.6044 14.454 32.626 13.849 33.8476 13.376C34.7359 12.98 35.7132 12.694 36.7792 12.507C37.8453 12.32 39.0113 12.144 40.2773 11.99C41.5654 11.847 42.5538 11.737 43.2312 11.638C43.9086 11.55 44.4305 11.462 44.7969 11.396C45.1634 11.33 45.4854 11.264 45.7631 11.22V16.962C45.5521 17.006 45.3189 17.05 45.0746 17.105C44.8303 17.149 44.5637 17.193 44.2861 17.226C44.0085 17.259 43.7087 17.292 43.4088 17.314C43.109 17.336 42.8092 17.358 42.5093 17.369C42.2206 17.38 41.9319 17.402 41.6543 17.424C40.5993 17.512 39.5332 17.622 38.4561 17.732C37.3789 17.853 36.4128 18.062 35.5466 18.359C34.6804 18.656 33.9919 19.14 33.47 19.789C33.3034 19.998 33.1368 20.273 32.9814 20.625C32.8148 20.977 32.6815 21.351 32.5816 21.758C32.4817 22.165 32.4261 22.627 32.4261 23.133C32.9925 22.297 33.6477 21.659 34.3917 21.219C35.1357 20.779 35.9131 20.471 36.6904 20.295C37.4788 20.119 38.1784 20.031 38.8114 20.031C40.5438 20.031 41.9985 20.416 43.1645 21.175C44.3305 21.945 45.2189 22.968 45.8186 24.255C46.4182 25.542 46.7181 26.983 46.7181 28.589C46.7181 30.47 46.3183 32.098 45.5188 33.473C44.7192 34.848 43.6198 35.915 42.1984 36.674C40.777 37.433 39.1224 37.807 37.2345 37.807H37.2123ZM37.2123 32.901C38.1007 32.901 38.8447 32.703 39.4222 32.307C40.0107 31.911 40.4438 31.416 40.7215 30.811C40.9991 30.206 41.1434 29.579 41.1434 28.93C41.1434 28.281 40.9991 27.632 40.7215 27.071C40.4438 26.499 40.0108 26.037 39.4444 25.663C38.867 25.289 38.1562 25.102 37.2901 25.102C36.4239 25.102 35.7243 25.278 35.1357 25.641C34.5472 26.004 34.0808 26.466 33.7698 27.049C33.4589 27.632 33.2923 28.259 33.2923 28.93C33.2923 29.601 33.4367 30.206 33.7143 30.811C33.9919 31.416 34.425 31.911 35.0136 32.307C35.6021 32.703 36.335 32.901 37.2234 32.901H37.2123ZM58.3227 37.807C56.4459 37.807 54.8357 37.433 53.4809 36.674C52.1261 35.915 51.0712 34.837 50.3383 33.418C49.6053 31.999 49.2278 30.338 49.2278 28.413C49.2278 26.488 49.6053 24.739 50.3716 23.32C51.1378 21.89 52.2039 20.79 53.5809 20.02C54.9579 19.25 56.6014 18.854 58.5003 18.854C60.0661 18.854 61.4653 19.14 62.698 19.701C63.9306 20.273 64.9078 21.087 65.6519 22.154C66.3848 23.221 66.8068 24.53 66.8956 26.081H61.4875C61.2988 25.344 60.9434 24.783 60.4215 24.431C59.8995 24.068 59.2444 23.892 58.467 23.892C57.4787 23.892 56.7236 24.134 56.2016 24.607C55.6797 25.08 55.3021 25.663 55.08 26.367C54.8579 27.06 54.7469 27.731 54.7469 28.38C54.7469 29.117 54.869 29.832 55.1134 30.525C55.3577 31.207 55.7574 31.757 56.3127 32.175C56.8679 32.593 57.5675 32.802 58.4337 32.802C59.2332 32.802 59.8995 32.615 60.4548 32.241C61.01 31.867 61.3654 31.328 61.5209 30.602H67.0733C67.0066 32.175 66.5625 33.506 65.7518 34.573C64.9411 35.64 63.8973 36.443 62.6091 36.993C61.321 37.543 59.8884 37.807 58.3227 37.807ZM79.3997 37.807C78.0449 37.807 76.8344 37.609 75.7795 37.213C74.7245 36.817 73.8028 36.267 73.0255 35.563C72.237 34.859 71.5929 34.023 71.0932 33.055C70.5935 32.087 70.216 31.042 69.9716 29.909C69.7273 28.776 69.6052 27.588 69.6052 26.356C69.6052 24.618 69.7162 23.056 69.9383 21.659C70.1604 20.262 70.5158 19.041 70.9933 17.974C71.4708 16.907 72.126 15.994 72.9588 15.224C73.7917 14.454 74.8134 13.849 76.0349 13.376C76.9233 12.98 77.9005 12.694 78.9666 12.507C80.0326 12.32 81.1987 12.144 82.4646 11.99C83.7528 11.847 84.7411 11.737 85.4185 11.638C86.0959 11.55 86.6178 11.462 86.9843 11.396C87.3507 11.33 87.6728 11.264 87.9504 11.22V16.962C87.7394 17.006 87.5062 17.05 87.2619 17.105C87.0176 17.149 86.7511 17.193 86.4735 17.226C86.1958 17.259 85.896 17.292 85.5962 17.314C85.2963 17.336 84.9965 17.358 84.6967 17.369C84.4079 17.38 84.1192 17.402 83.8416 17.424C82.7866 17.512 81.7206 17.622 80.6434 17.732C79.5662 17.853 78.6001 18.062 77.7228 18.359C76.8566 18.656 76.1682 19.14 75.6462 19.789C75.4797 19.998 75.3131 20.273 75.1576 20.625C74.991 20.977 74.8578 21.351 74.7578 21.758C74.6468 22.165 74.6024 22.627 74.6024 23.133C75.1687 22.297 75.8239 21.659 76.5679 21.219C77.3119 20.779 78.0893 20.471 78.8666 20.295C79.6551 20.119 80.3547 20.031 80.9877 20.031C82.72 20.031 84.1747 20.416 85.3408 21.175C86.5068 21.945 87.3952 22.968 87.9948 24.255C88.5945 25.542 88.8943 26.983 88.8943 28.589C88.8943 30.47 88.4945 32.098 87.695 33.473C86.8954 34.848 85.7961 35.915 84.3746 36.674C82.9532 37.433 81.2986 37.807 79.3997 37.807ZM79.3997 32.901C80.288 32.901 81.0321 32.703 81.6095 32.307C82.1981 31.911 82.6312 31.416 82.9088 30.811C83.1864 30.206 83.3308 29.579 83.3308 28.93C83.3308 28.281 83.1864 27.632 82.9088 27.071C82.6312 26.499 82.1981 26.037 81.6317 25.663C81.0543 25.289 80.3436 25.102 79.4774 25.102C78.6112 25.102 77.9116 25.278 77.3231 25.641C76.7234 26.004 76.2681 26.466 75.9572 27.049C75.6462 27.632 75.4796 28.259 75.4796 28.93C75.4796 29.601 75.624 30.206 75.9016 30.811C76.1793 31.416 76.6123 31.911 77.2009 32.307C77.7895 32.703 78.5224 32.901 79.4108 32.901H79.3997ZM91.7594 37.532V19.195H97.3451V25.949H100.01L104.186 19.195H110.438L104.785 27.786L110.338 37.532H103.941L100.255 30.888H97.3451V37.532H91.7594Z" fill="white"/>
</svg>
