<svg width="202" height="55" viewBox="0 0 202 55" fill="none" xmlns="http://www.w3.org/2000/svg">
<path fill-rule="evenodd" clip-rule="evenodd" d="M27.6284 0H202V27.5C202 42.625 189.562 55 174.361 55H0V27.5C0 12.375 12.4377 0 27.6394 0H27.6284Z" fill="#009FE3"/>
<path d="M33.9412 38.0487C32.0727 38.0487 30.4696 37.6747 29.1208 36.9157C27.772 36.1567 26.7217 35.0787 25.9921 33.6597C25.2624 32.2407 24.8865 30.5797 24.8865 28.6547C24.8865 26.7297 25.2624 24.9807 26.0252 23.5617C26.7881 22.1427 27.8494 21.0317 29.2203 20.2617C30.5913 19.4807 32.2275 19.0957 34.1181 19.0957C35.6769 19.0957 37.0699 19.3817 38.2971 19.9427C39.5243 20.5147 40.4972 21.3287 41.238 22.3957C41.9676 23.4627 42.3878 24.7717 42.4762 26.3227H37.092C36.9041 25.5857 36.5503 25.0247 36.0307 24.6727C35.5111 24.3097 34.8698 24.1337 34.1291 24.1337C33.1783 24.1337 32.4265 24.3757 31.8737 24.8487C31.3209 25.3217 30.945 25.9047 30.7239 26.6087C30.5028 27.3127 30.3922 27.9837 30.3922 28.6657C30.3922 29.4027 30.5139 30.1177 30.7571 30.7887C31.0003 31.4597 31.3983 32.0097 31.9511 32.4277C32.5039 32.8457 33.2004 33.0547 34.0628 33.0547C34.8588 33.0547 35.5221 32.8677 36.0749 32.4937C36.6277 32.1197 36.9815 31.5807 37.1363 30.8547H42.6642C42.5978 32.4277 42.1556 33.7587 41.3485 34.8257C40.5414 35.8927 39.5022 36.6957 38.2197 37.2457C36.9373 37.7957 35.5111 38.0597 33.9522 38.0597L33.9412 38.0487ZM54.1511 38.0487C52.3048 38.0487 50.6685 37.6747 49.2423 36.9377C47.8051 36.2007 46.6885 35.1227 45.8703 33.7147C45.0522 32.3067 44.6431 30.6237 44.6431 28.6547C44.6431 26.6857 45.0522 24.9147 45.8814 23.4847C46.7106 22.0547 47.8383 20.9657 49.2534 20.2177C50.6796 19.4587 52.2827 19.0847 54.0737 19.0847C55.8647 19.0847 57.501 19.4697 58.894 20.2507C60.2981 21.0317 61.4037 22.1317 62.2108 23.5507C63.0289 24.9807 63.4379 26.6967 63.4379 28.7207C63.4379 30.7447 63.051 32.3727 62.266 33.7697C61.4811 35.1667 60.3976 36.2227 58.9935 36.9487C57.5895 37.6747 55.9753 38.0487 54.129 38.0487H54.1511ZM54.0516 32.9337C55.0356 32.9337 55.8095 32.7247 56.3954 32.3067C56.9814 31.8887 57.3904 31.3607 57.6337 30.7117C57.8769 30.0627 57.9985 29.3917 57.9985 28.6987C57.9985 28.0057 57.8769 27.3017 57.6337 26.6087C57.3904 25.9157 56.9814 25.3437 56.4065 24.8817C55.8316 24.4307 55.0466 24.1997 54.0516 24.1997C53.0566 24.1997 52.2937 24.4307 51.7078 24.8817C51.1218 25.3327 50.7017 25.9047 50.4474 26.5867C50.1931 27.2687 50.0605 27.9727 50.0605 28.6877C50.0605 29.4027 50.1931 30.0627 50.4585 30.7227C50.7238 31.3827 51.1439 31.9217 51.7188 32.3177C52.2937 32.7247 53.0676 32.9227 54.0405 32.9227L54.0516 32.9337ZM66.3235 37.7737V19.4367H71.2544L71.7408 21.4167C72.2494 20.7457 72.8022 20.2397 73.3992 19.8987C73.9962 19.5577 74.5711 19.3487 75.146 19.2497C75.7209 19.1617 76.1963 19.1067 76.5943 19.1067C77.6225 19.1067 78.5623 19.2937 79.4246 19.6677C80.287 20.0417 80.9835 20.7127 81.5252 21.6807C82.0338 20.9877 82.5976 20.4597 83.2057 20.0967C83.8137 19.7337 84.4329 19.4807 85.0631 19.3267C85.6932 19.1727 86.3234 19.0957 86.9536 19.0957C88.424 19.0957 89.5959 19.3927 90.4804 19.9867C91.3648 20.5807 92.0171 21.4167 92.4373 22.4947C92.8574 23.5727 93.0674 24.8157 93.0674 26.2347V37.7517H87.5395V27.4557C87.5395 27.1257 87.5174 26.7737 87.4732 26.3777C87.429 25.9817 87.3295 25.6187 87.1747 25.2777C87.0199 24.9367 86.7988 24.6617 86.4892 24.4417C86.1907 24.2217 85.7706 24.1117 85.2289 24.1117C84.6871 24.1117 84.2449 24.2217 83.9022 24.4417C83.5484 24.6617 83.272 24.9477 83.0619 25.3107C82.8519 25.6737 82.7082 26.0697 82.6197 26.5097C82.5423 26.9497 82.4981 27.3897 82.4981 27.8297V37.7407H76.9702V27.4117C76.9702 27.1147 76.937 26.7627 76.8818 26.3887C76.8265 26.0037 76.7159 25.6407 76.5722 25.2887C76.4174 24.9367 76.1853 24.6617 75.8757 24.4417C75.5661 24.2217 75.1128 24.1117 74.5269 24.1117C73.7309 24.1117 73.1449 24.3317 72.758 24.7717C72.371 25.2117 72.1278 25.7287 72.0283 26.3337C71.9288 26.9387 71.8735 27.4887 71.8735 28.0057V37.7517H66.3125L66.3235 37.7737ZM96.4947 44.6927V19.4367H101.636L101.912 21.5927C102.73 20.6907 103.593 20.0417 104.521 19.6567C105.439 19.2717 106.478 19.0847 107.617 19.0847C109.408 19.0847 110.9 19.5027 112.094 20.3497C113.288 21.1967 114.173 22.3297 114.77 23.7377C115.367 25.1567 115.665 26.7517 115.665 28.5337C115.665 30.3157 115.356 31.9327 114.726 33.3737C114.095 34.8147 113.167 35.9477 111.929 36.7837C110.69 37.6197 109.165 38.0377 107.351 38.0377C106.578 38.0377 105.859 37.9497 105.185 37.7627C104.51 37.5757 103.902 37.3337 103.371 37.0367C102.83 36.7397 102.398 36.4097 102.078 36.0577V44.6817H96.5168L96.4947 44.6927ZM106.29 33.0437C107.318 33.0437 108.103 32.8237 108.667 32.3837C109.231 31.9437 109.618 31.3827 109.861 30.7117C110.093 30.0407 110.215 29.3697 110.215 28.6987C110.215 27.9617 110.082 27.2357 109.828 26.5207C109.574 25.8167 109.154 25.2447 108.568 24.7937C107.982 24.3537 107.197 24.1337 106.191 24.1337C105.284 24.1337 104.521 24.3537 103.902 24.7827C103.283 25.2117 102.819 25.7617 102.498 26.4327C102.188 27.1037 102.023 27.8297 102.023 28.5887C102.023 29.3477 102.177 30.0737 102.476 30.7447C102.774 31.4157 103.25 31.9657 103.88 32.3947C104.51 32.8237 105.317 33.0437 106.29 33.0437ZM127.34 38.0487C125.494 38.0487 123.858 37.6747 122.432 36.9377C120.994 36.2007 119.878 35.1227 119.06 33.7147C118.241 32.3067 117.832 30.6237 117.832 28.6547C117.832 26.6857 118.241 24.9147 119.071 23.4847C119.9 22.0547 121.027 20.9657 122.443 20.2177C123.869 19.4587 125.472 19.0847 127.263 19.0847C129.054 19.0847 130.69 19.4697 132.083 20.2507C133.487 21.0317 134.593 22.1317 135.4 23.5507C136.218 24.9807 136.627 26.6967 136.627 28.7207C136.627 30.7447 136.24 32.3727 135.455 33.7697C134.67 35.1667 133.587 36.2227 132.183 36.9487C130.779 37.6747 129.165 38.0487 127.318 38.0487H127.34ZM127.241 32.9337C128.225 32.9337 128.999 32.7247 129.585 32.3067C130.171 31.8887 130.58 31.3607 130.823 30.7117C131.066 30.0627 131.188 29.3917 131.188 28.6987C131.188 28.0057 131.066 27.3017 130.823 26.6087C130.58 25.9157 130.171 25.3437 129.596 24.8817C129.021 24.4307 128.236 24.1997 127.241 24.1997C126.246 24.1997 125.483 24.4307 124.897 24.8817C124.311 25.3327 123.891 25.9047 123.637 26.5867C123.382 27.2687 123.25 27.9727 123.25 28.6877C123.25 29.4027 123.382 30.0627 123.648 30.7227C123.913 31.3827 124.333 31.9217 124.908 32.3177C125.483 32.7247 126.257 32.9227 127.23 32.9227L127.241 32.9337ZM146.887 38.0487C146.002 38.0487 145.096 37.9497 144.178 37.7407C143.261 37.5317 142.398 37.1907 141.613 36.7287C140.817 36.2667 140.154 35.6287 139.623 34.8147C139.093 34.0007 138.728 32.9777 138.54 31.7567H144.134C144.278 32.1307 144.488 32.4497 144.775 32.7137C145.063 32.9777 145.428 33.1757 145.859 33.3077C146.29 33.4397 146.732 33.4947 147.174 33.4947C147.473 33.4947 147.771 33.4727 148.048 33.4287C148.324 33.3847 148.578 33.2967 148.8 33.1867C149.021 33.0657 149.187 32.9227 149.308 32.7467C149.43 32.5707 149.485 32.3617 149.485 32.0977C149.485 31.7237 149.363 31.4487 149.12 31.2837C148.877 31.1077 148.534 30.9757 148.103 30.8657C147.672 30.7667 147.174 30.6457 146.622 30.5357C145.715 30.3487 144.742 30.1177 143.703 29.8427C142.664 29.5677 141.79 29.1937 141.061 28.7317C140.707 28.5007 140.408 28.2367 140.154 27.9507C139.9 27.6647 139.69 27.3457 139.546 27.0157C139.391 26.6747 139.281 26.3227 139.192 25.9377C139.115 25.5527 139.071 25.1457 139.071 24.7057C139.071 23.6827 139.303 22.8137 139.756 22.0987C140.209 21.3837 140.806 20.8007 141.536 20.3607C142.266 19.9207 143.095 19.6017 144.001 19.4037C144.908 19.2057 145.815 19.1067 146.732 19.1067C148.015 19.1067 149.198 19.3047 150.303 19.7117C151.409 20.1187 152.315 20.7677 153.045 21.6587C153.775 22.5497 154.239 23.7157 154.427 25.1567H149.076C149.01 24.6947 148.733 24.3207 148.269 24.0457C147.805 23.7707 147.219 23.6277 146.522 23.6277C146.268 23.6277 146.014 23.6607 145.748 23.7157C145.494 23.7707 145.262 23.8477 145.063 23.9247C144.864 24.0017 144.698 24.1227 144.576 24.2877C144.444 24.4527 144.388 24.6507 144.388 24.8817C144.388 25.0467 144.444 25.2117 144.543 25.3657C144.643 25.5307 144.808 25.6737 145.03 25.8057C145.251 25.9377 145.538 26.0587 145.881 26.1687C146.677 26.3337 147.44 26.4877 148.192 26.6417C148.932 26.7957 149.651 26.9387 150.325 27.0817C151.066 27.2467 151.796 27.4997 152.492 27.8627C153.189 28.2257 153.764 28.7317 154.228 29.3807C154.681 30.0297 154.913 30.9097 154.913 32.0207C154.913 33.1317 154.67 34.1547 154.195 34.9467C153.719 35.7387 153.078 36.3547 152.293 36.7947C151.497 37.2347 150.635 37.5647 149.706 37.7737C148.777 37.9827 147.838 38.0817 146.909 38.0817L146.887 38.0487ZM157.478 37.7737V19.4367H163.039V37.7737H157.478ZM160.275 17.9077C159.247 17.9077 158.429 17.6107 157.81 17.0057C157.191 16.4007 156.881 15.6087 156.881 14.6407C156.881 13.6727 157.213 12.8367 157.865 12.2097C158.518 11.5827 159.336 11.2747 160.309 11.2747C161.282 11.2747 162.033 11.5717 162.686 12.1767C163.338 12.7817 163.67 13.5957 163.67 14.6077C163.67 15.6197 163.36 16.4007 162.73 17.0057C162.1 17.6107 161.282 17.9077 160.287 17.9077H160.275ZM175.245 37.7737C173.664 37.7737 172.315 37.5977 171.221 37.2347C170.126 36.8717 169.297 36.2447 168.722 35.3537C168.147 34.4627 167.86 33.1977 167.86 31.5807V24.3427H165.206V19.4367H167.86V14.7067H173.421V19.4367H177.091V24.3427H173.421V30.7777C173.421 31.3827 173.52 31.8777 173.73 32.2517C173.94 32.6367 174.471 32.8237 175.333 32.8237H176.903V37.7627H175.223L175.245 37.7737Z" fill="white"/>
</svg>
