<svg width="242" height="55" viewBox="0 0 242 55" fill="none" xmlns="http://www.w3.org/2000/svg">
<path d="M235.387 36.156C233.948 36.156 232.744 35.8613 231.773 35.272C230.82 34.6826 230.1 33.868 229.615 32.828C229.147 31.7706 228.913 30.5573 228.913 29.188C228.913 27.836 229.156 26.6313 229.641 25.574C230.144 24.4993 230.889 23.6586 231.877 23.052C232.882 22.428 234.122 22.116 235.595 22.116C236.6 22.116 237.493 22.2893 238.273 22.636C239.053 22.9653 239.686 23.4593 240.171 24.118C240.674 24.7593 241.003 25.5653 241.159 26.536H238.481C238.256 25.8253 237.874 25.314 237.337 25.002C236.817 24.69 236.202 24.534 235.491 24.534C234.538 24.534 233.775 24.7593 233.203 25.21C232.631 25.6606 232.215 26.2413 231.955 26.952C231.712 27.6626 231.591 28.408 231.591 29.188C231.591 30.0026 231.721 30.7566 231.981 31.45C232.258 32.1433 232.674 32.7066 233.229 33.14C233.801 33.556 234.546 33.764 235.465 33.764C236.158 33.764 236.8 33.6166 237.389 33.322C237.978 33.01 238.36 32.49 238.533 31.762H241.289C241.133 32.7673 240.769 33.5993 240.197 34.258C239.625 34.8993 238.914 35.376 238.065 35.688C237.233 36 236.34 36.156 235.387 36.156Z" fill="#000064"/>
<path d="M213.818 35.9999V22.2979H216.496V31.9959C216.617 31.7879 216.773 31.5625 216.964 31.3199C217.154 31.0599 217.302 30.8519 217.406 30.6959L223.672 22.2979H226.168V35.9999H223.49V26.3539C223.351 26.5792 223.204 26.8045 223.048 27.0299C222.892 27.2379 222.744 27.4285 222.606 27.6019L216.34 35.9999H213.818Z" fill="#000064"/>
<path d="M199.447 35.9999V22.2979H205.219C205.808 22.2979 206.397 22.3412 206.987 22.4279C207.593 22.4972 208.139 22.6532 208.625 22.8959C209.127 23.1385 209.526 23.4939 209.821 23.9619C210.133 24.4125 210.289 25.0105 210.289 25.7559C210.289 26.2065 210.219 26.6139 210.081 26.9779C209.942 27.3419 209.743 27.6625 209.483 27.9399C209.24 28.1999 208.928 28.4252 208.547 28.6159C209.413 28.8412 210.037 29.2485 210.419 29.8379C210.817 30.4099 211.017 31.0945 211.017 31.8919C211.017 32.6199 210.878 33.2439 210.601 33.7639C210.323 34.2839 209.951 34.7085 209.483 35.0379C209.015 35.3672 208.486 35.6099 207.897 35.7659C207.307 35.9219 206.701 35.9999 206.077 35.9999H199.447ZM202.177 33.6599H205.609C206.094 33.6599 206.536 33.6165 206.935 33.5299C207.351 33.4259 207.68 33.2439 207.923 32.9839C208.183 32.7239 208.313 32.3685 208.313 31.9179C208.313 31.4499 208.209 31.0945 208.001 30.8519C207.793 30.5919 207.524 30.4099 207.195 30.3059C206.865 30.2019 206.51 30.1412 206.129 30.1239C205.747 30.0892 205.375 30.0719 205.011 30.0719H202.177V33.6599ZM202.177 28.0439H204.205C204.517 28.0439 204.872 28.0265 205.271 27.9919C205.669 27.9399 206.051 27.8532 206.415 27.7319C206.796 27.6105 207.099 27.4372 207.325 27.2119C207.567 26.9692 207.689 26.6399 207.689 26.2239C207.689 25.6692 207.533 25.2879 207.221 25.0799C206.926 24.8545 206.571 24.7245 206.155 24.6899C205.739 24.6379 205.331 24.6119 204.933 24.6119H202.177V28.0439Z" fill="#000064"/>
<path d="M183.654 40.992V22.298H186.202L186.332 24.274C186.817 23.546 187.458 23.0086 188.256 22.662C189.053 22.298 189.902 22.116 190.804 22.116C192.156 22.116 193.274 22.428 194.158 23.052C195.042 23.676 195.7 24.5166 196.134 25.574C196.567 26.6313 196.784 27.8273 196.784 29.162C196.784 30.4966 196.558 31.6926 196.108 32.75C195.674 33.8073 194.998 34.6393 194.08 35.246C193.178 35.8526 192.026 36.156 190.622 36.156C189.946 36.156 189.339 36.0866 188.802 35.948C188.264 35.8093 187.796 35.61 187.398 35.35C186.999 35.0726 186.644 34.778 186.332 34.466V40.992H183.654ZM190.31 33.764C191.246 33.764 191.991 33.556 192.546 33.14C193.1 32.7066 193.499 32.1433 193.742 31.45C193.984 30.7566 194.106 30.0026 194.106 29.188C194.106 28.3386 193.976 27.5673 193.716 26.874C193.473 26.1633 193.066 25.6 192.494 25.184C191.939 24.7506 191.194 24.534 190.258 24.534C189.408 24.534 188.689 24.7506 188.1 25.184C187.51 25.6 187.06 26.1633 186.748 26.874C186.453 27.5846 186.306 28.356 186.306 29.188C186.306 30.0373 186.444 30.8173 186.722 31.528C187.016 32.2213 187.458 32.7673 188.048 33.166C188.654 33.5646 189.408 33.764 190.31 33.764Z" fill="#000064"/>
<path d="M174.756 36.156C173.317 36.156 172.113 35.8613 171.142 35.272C170.171 34.6826 169.435 33.868 168.932 32.828C168.447 31.7706 168.204 30.5573 168.204 29.188C168.204 27.8013 168.455 26.5793 168.958 25.522C169.478 24.4646 170.223 23.6326 171.194 23.026C172.182 22.4193 173.369 22.116 174.756 22.116C175.779 22.116 176.671 22.3066 177.434 22.688C178.214 23.052 178.864 23.5633 179.384 24.222C179.921 24.8633 180.311 25.5913 180.554 26.406C180.797 27.2206 180.909 28.0786 180.892 28.98C180.875 29.1706 180.857 29.3526 180.84 29.526C180.84 29.6993 180.831 29.8813 180.814 30.072H170.908C170.96 30.7653 171.133 31.398 171.428 31.97C171.74 32.542 172.173 33.0013 172.728 33.348C173.283 33.6773 173.967 33.842 174.782 33.842C175.233 33.842 175.666 33.79 176.082 33.686C176.515 33.5646 176.897 33.3826 177.226 33.14C177.573 32.88 177.815 32.5506 177.954 32.152H180.658C180.433 33.0706 180.025 33.8333 179.436 34.44C178.864 35.0293 178.162 35.4626 177.33 35.74C176.515 36.0173 175.657 36.156 174.756 36.156ZM170.96 27.94H178.24C178.223 27.264 178.067 26.666 177.772 26.146C177.477 25.6086 177.07 25.1926 176.55 24.898C176.03 24.586 175.406 24.43 174.678 24.43C173.881 24.43 173.213 24.5946 172.676 24.924C172.156 25.2533 171.749 25.6866 171.454 26.224C171.177 26.744 171.012 27.316 170.96 27.94Z" fill="#000064"/>
<path d="M160.231 36.156C158.792 36.156 157.587 35.8613 156.617 35.272C155.663 34.6826 154.944 33.868 154.459 32.828C153.991 31.7706 153.757 30.5573 153.757 29.188C153.757 27.836 153.999 26.6313 154.485 25.574C154.987 24.4993 155.733 23.6586 156.721 23.052C157.726 22.428 158.965 22.116 160.439 22.116C161.444 22.116 162.337 22.2893 163.117 22.636C163.897 22.9653 164.529 23.4593 165.015 24.118C165.517 24.7593 165.847 25.5653 166.003 26.536H163.325C163.099 25.8253 162.718 25.314 162.181 25.002C161.661 24.69 161.045 24.534 160.335 24.534C159.381 24.534 158.619 24.7593 158.047 25.21C157.475 25.6606 157.059 26.2413 156.799 26.952C156.556 27.6626 156.435 28.408 156.435 29.188C156.435 30.0026 156.565 30.7566 156.825 31.45C157.102 32.1433 157.518 32.7066 158.073 33.14C158.645 33.556 159.39 33.764 160.309 33.764C161.002 33.764 161.643 33.6166 162.233 33.322C162.822 33.01 163.203 32.49 163.377 31.762H166.133C165.977 32.7673 165.613 33.5993 165.041 34.258C164.469 34.8993 163.758 35.376 162.909 35.688C162.077 36 161.184 36.156 160.231 36.156Z" fill="#000064"/>
<path fill-rule="evenodd" clip-rule="evenodd" d="M27.7621 0H138V27.5C138 42.625 125.507 55 110.238 55H0V27.5C0 12.375 12.493 0 27.7621 0Z" fill="#000064"/>
<path d="M37.2124 37.807C35.8576 37.807 34.6472 37.609 33.5922 37.213C32.5372 36.817 31.6155 36.267 30.8382 35.563C30.0498 34.859 29.4057 34.023 28.906 33.055C28.4062 32.087 28.0287 31.042 27.7844 29.909C27.5401 28.776 27.4179 27.588 27.4179 26.356C27.4179 24.618 27.529 23.056 27.7511 21.659C27.9731 20.262 28.3285 19.041 28.806 17.974C29.2835 16.907 29.9387 15.994 30.7716 15.224C31.6044 14.454 32.6261 13.849 33.8476 13.376C34.736 12.98 35.7132 12.694 36.7793 12.507C37.8454 12.32 39.0114 12.144 40.2773 11.99C41.5655 11.847 42.5538 11.737 43.2312 11.638C43.9086 11.55 44.4305 11.462 44.797 11.396C45.1635 11.33 45.4855 11.264 45.7631 11.22V16.962C45.5521 17.006 45.3189 17.05 45.0746 17.105C44.8303 17.149 44.5638 17.193 44.2862 17.226C44.0086 17.259 43.7087 17.292 43.4089 17.314C43.1091 17.336 42.8092 17.358 42.5094 17.369C42.2207 17.38 41.9319 17.402 41.6543 17.424C40.5994 17.512 39.5333 17.622 38.4561 17.732C37.379 17.853 36.4128 18.062 35.5467 18.359C34.6805 18.656 33.992 19.14 33.4701 19.789C33.3035 19.998 33.1369 20.273 32.9814 20.625C32.8149 20.977 32.6816 21.351 32.5817 21.758C32.4817 22.165 32.4262 22.627 32.4262 23.133C32.9925 22.297 33.6477 21.659 34.3918 21.219C35.1358 20.779 35.9131 20.471 36.6905 20.295C37.4789 20.119 38.1785 20.031 38.8115 20.031C40.5438 20.031 41.9986 20.416 43.1646 21.175C44.3306 21.945 45.219 22.968 45.8186 24.255C46.4183 25.542 46.7181 26.983 46.7181 28.589C46.7181 30.47 46.3184 32.098 45.5188 33.473C44.7193 34.848 43.6199 35.915 42.1985 36.674C40.777 37.433 39.1224 37.807 37.2346 37.807H37.2124ZM37.2124 32.901C38.1008 32.901 38.8448 32.703 39.4223 32.307C40.0108 31.911 40.4439 31.416 40.7215 30.811C40.9991 30.206 41.1435 29.579 41.1435 28.93C41.1435 28.281 40.9991 27.632 40.7215 27.071C40.4439 26.499 40.0108 26.037 39.4445 25.663C38.867 25.289 38.1563 25.102 37.2901 25.102C36.4239 25.102 35.7243 25.278 35.1358 25.641C34.5472 26.004 34.0808 26.466 33.7699 27.049C33.4589 27.632 33.2924 28.259 33.2924 28.93C33.2924 29.601 33.4367 30.206 33.7144 30.811C33.992 31.416 34.4251 31.911 35.0136 32.307C35.6022 32.703 36.3351 32.901 37.2235 32.901H37.2124ZM58.3227 37.807C56.446 37.807 54.8358 37.433 53.481 36.674C52.1262 35.915 51.0712 34.837 50.3383 33.418C49.6054 31.999 49.2278 30.338 49.2278 28.413C49.2278 26.488 49.6054 24.739 50.3716 23.32C51.1379 21.89 52.2039 20.79 53.5809 20.02C54.9579 19.25 56.6015 18.854 58.5004 18.854C60.0662 18.854 61.4654 19.14 62.698 19.701C63.9307 20.273 64.9079 21.087 65.6519 22.154C66.3848 23.221 66.8068 24.53 66.8957 26.081H61.4876C61.2988 25.344 60.9435 24.783 60.4215 24.431C59.8996 24.068 59.2444 23.892 58.4671 23.892C57.4787 23.892 56.7236 24.134 56.2017 24.607C55.6798 25.08 55.3022 25.663 55.0801 26.367C54.858 27.06 54.747 27.731 54.747 28.38C54.747 29.117 54.8691 29.832 55.1134 30.525C55.3577 31.207 55.7575 31.757 56.3127 32.175C56.868 32.593 57.5676 32.802 58.4338 32.802C59.2333 32.802 59.8996 32.615 60.4548 32.241C61.0101 31.867 61.3654 31.328 61.5209 30.602H67.0733C67.0067 32.175 66.5625 33.506 65.7519 34.573C64.9412 35.64 63.8974 36.443 62.6092 36.993C61.321 37.543 59.8885 37.807 58.3227 37.807ZM79.3997 37.807C78.0449 37.807 76.8345 37.609 75.7795 37.213C74.7246 36.817 73.8029 36.267 73.0255 35.563C72.2371 34.859 71.593 34.023 71.0933 33.055C70.5936 32.087 70.216 31.042 69.9717 29.909C69.7274 28.776 69.6052 27.588 69.6052 26.356C69.6052 24.618 69.7163 23.056 69.9384 21.659C70.1605 20.262 70.5158 19.041 70.9934 17.974C71.4709 16.907 72.126 15.994 72.9589 15.224C73.7918 14.454 74.8134 13.849 76.035 13.376C76.9233 12.98 77.9006 12.694 78.9666 12.507C80.0327 12.32 81.1987 12.144 82.4647 11.99C83.7528 11.847 84.7412 11.737 85.4186 11.638C86.096 11.55 86.6179 11.462 86.9843 11.396C87.3508 11.33 87.6728 11.264 87.9505 11.22V16.962C87.7395 17.006 87.5063 17.05 87.262 17.105C87.0177 17.149 86.7511 17.193 86.4735 17.226C86.1959 17.259 85.8961 17.292 85.5962 17.314C85.2964 17.336 84.9966 17.358 84.6967 17.369C84.408 17.38 84.1193 17.402 83.8417 17.424C82.7867 17.512 81.7206 17.622 80.6435 17.732C79.5663 17.853 78.6002 18.062 77.7229 18.359C76.8567 18.656 76.1682 19.14 75.6463 19.789C75.4797 19.998 75.3131 20.273 75.1577 20.625C74.9911 20.977 74.8578 21.351 74.7579 21.758C74.6469 22.165 74.6024 22.627 74.6024 23.133C75.1688 22.297 75.824 21.659 76.568 21.219C77.312 20.779 78.0894 20.471 78.8667 20.295C79.6551 20.119 80.3547 20.031 80.9877 20.031C82.7201 20.031 84.1748 20.416 85.3408 21.175C86.5068 21.945 87.3952 22.968 87.9949 24.255C88.5945 25.542 88.8944 26.983 88.8944 28.589C88.8944 30.47 88.4946 32.098 87.6951 33.473C86.8955 34.848 85.7961 35.915 84.3747 36.674C82.9533 37.433 81.2987 37.807 79.3997 37.807ZM79.3997 32.901C80.2881 32.901 81.0321 32.703 81.6096 32.307C82.1981 31.911 82.6312 31.416 82.9089 30.811C83.1865 30.206 83.3308 29.579 83.3308 28.93C83.3308 28.281 83.1865 27.632 82.9089 27.071C82.6312 26.499 82.1982 26.037 81.6318 25.663C81.0544 25.289 80.3436 25.102 79.4775 25.102C78.6113 25.102 77.9117 25.278 77.3231 25.641C76.7235 26.004 76.2682 26.466 75.9572 27.049C75.6463 27.632 75.4797 28.259 75.4797 28.93C75.4797 29.601 75.6241 30.206 75.9017 30.811C76.1793 31.416 76.6124 31.911 77.201 32.307C77.7895 32.703 78.5224 32.901 79.4108 32.901H79.3997ZM91.7594 37.532V19.195H97.3452V25.949H100.01L104.186 19.195H110.438L104.785 27.786L110.338 37.532H103.941L100.255 30.888H97.3452V37.532H91.7594Z" fill="white"/>
</svg>
