<svg width="170" height="55" viewBox="0 0 170 55" fill="none" xmlns="http://www.w3.org/2000/svg">
<g clip-path="url(#clip0_1_498)">
<path d="M170 0H27.9837C20.2902 0 13.2943 3.09225 8.22046 8.08088C3.14666 13.0645 0 19.9395 0 27.5V55H142.011C149.705 55 156.701 51.9077 161.775 46.9191C166.848 41.9355 169.995 35.0605 169.995 27.495V0H170Z" fill="#005564"/>
<path d="M134.027 35.0554C135.236 35.0554 136.335 34.8552 137.324 34.455C138.313 34.0547 139.095 33.4542 139.678 32.6536C140.26 31.8531 140.546 30.8573 140.546 29.6715V28.2154H136.175C135.407 28.2154 134.629 28.2354 133.841 28.2705C133.053 28.3055 132.335 28.4306 131.693 28.6357C131.051 28.8409 130.534 29.1711 130.137 29.6164C129.741 30.0668 129.545 30.7022 129.545 31.5278C129.545 32.3534 129.756 33.0239 130.172 33.5493C130.594 34.0697 131.146 34.4549 131.839 34.6951C132.531 34.9403 133.259 35.0604 134.022 35.0604M133.836 37.317C132.998 37.317 132.17 37.212 131.352 37.0068C130.539 36.8017 129.796 36.4714 129.129 36.0261C128.461 35.5758 127.924 34.9953 127.518 34.2798C127.111 33.5643 126.905 32.7187 126.905 31.748C126.905 30.6572 127.111 29.7465 127.518 29.016C127.924 28.2905 128.476 27.705 129.164 27.2697C129.856 26.8344 130.644 26.5242 131.532 26.3441C132.421 26.1639 133.359 26.0689 134.348 26.0689H140.536C140.536 24.878 140.37 23.8322 140.034 22.9216C139.703 22.0109 139.156 21.2904 138.403 20.755C137.65 20.2196 136.641 19.9544 135.382 19.9544C134.714 19.9544 134.072 20.0295 133.455 20.1746C132.837 20.3197 132.29 20.5548 131.808 20.8851C131.327 21.2153 130.95 21.6556 130.679 22.2161H127.864C128.085 21.3654 128.461 20.6499 128.993 20.0695C129.525 19.4891 130.147 19.0187 130.865 18.6685C131.583 18.3182 132.335 18.068 133.123 17.9229C133.911 17.7778 134.669 17.7028 135.382 17.7028C138.147 17.7028 140.124 18.5184 141.309 20.1395C142.493 21.7657 143.085 23.9473 143.085 26.6943V37.1069H140.827L140.716 34.485C140.174 35.2155 139.527 35.7859 138.774 36.1962C138.021 36.6065 137.224 36.9017 136.385 37.0719C135.547 37.242 134.694 37.327 133.831 37.327M114.384 35.0704C115.915 35.0704 117.129 34.7251 118.032 34.0346C118.936 33.3441 119.588 32.4285 119.995 31.2876C120.401 30.1468 120.607 28.8959 120.607 27.5399C120.607 26.1839 120.396 24.893 119.98 23.7522C119.558 22.6113 118.881 21.6957 117.942 21.0052C117.004 20.3147 115.769 19.9694 114.238 19.9694C112.828 19.9694 111.639 20.3197 110.665 21.0252C109.691 21.7307 108.954 22.6614 108.462 23.8272C107.97 24.9931 107.719 26.244 107.719 27.5749C107.719 29.006 107.96 30.2869 108.442 31.4127C108.924 32.5386 109.666 33.4342 110.665 34.0897C111.664 34.7452 112.908 35.0704 114.389 35.0704M105.165 44.207V17.9229H107.684L107.794 21.0902C108.562 19.9494 109.531 19.0988 110.7 18.5434C111.875 17.983 113.189 17.7078 114.645 17.7078C116.622 17.7078 118.238 18.1431 119.498 19.0187C120.757 19.8944 121.696 21.0752 122.313 22.5663C122.931 24.0574 123.242 25.7286 123.242 27.5699C123.242 29.4113 122.926 31.1475 122.298 32.6286C121.671 34.1097 120.707 35.2605 119.407 36.0861C118.113 36.9117 116.477 37.322 114.499 37.322C113.586 37.322 112.708 37.227 111.87 37.0318C111.031 36.8367 110.264 36.5165 109.571 36.0661C108.878 35.6158 108.286 35.0304 107.794 34.2998V44.202H105.165V44.207ZM93.3861 37.327C92.5229 37.327 91.6597 37.247 90.7915 37.0919C89.9282 36.9318 89.1102 36.6616 88.3474 36.2713C87.5795 35.881 86.9321 35.3606 86.4002 34.7051C85.8682 34.0497 85.5069 33.2491 85.3061 32.3034H88.0111C88.3072 33.0089 88.7589 33.5593 89.3611 33.9596C89.9684 34.3599 90.6409 34.6451 91.3786 34.8152C92.1214 34.9853 92.824 35.0704 93.4914 35.0704C93.9582 35.0704 94.4851 35.0404 95.0673 34.9803C95.6495 34.9203 96.1965 34.7802 96.7184 34.56C97.2353 34.3399 97.6619 34.0246 97.9982 33.6143C98.3294 33.204 98.5 32.6536 98.5 31.9781C98.5 31.3727 98.3595 30.8874 98.0734 30.5221C97.7874 30.1568 97.411 29.8666 96.9442 29.6465C96.4725 29.4263 95.9556 29.2712 95.3885 29.1711C94.5002 28.976 93.5467 28.7958 92.5379 28.6257C91.5242 28.4556 90.6108 28.1504 89.7978 27.715C89.3059 27.5449 88.8292 27.3348 88.3725 27.0796C87.9158 26.8244 87.5043 26.5142 87.1329 26.1489C86.7615 25.7836 86.4654 25.3483 86.2446 24.838C86.0238 24.3276 85.9134 23.7322 85.9134 23.0567C85.9134 22.111 86.1091 21.2954 86.5056 20.6199C86.902 19.9394 87.439 19.384 88.1165 18.9437C88.794 18.5084 89.582 18.1931 90.4703 17.998C91.3586 17.8028 92.297 17.7078 93.2857 17.7078C94.4701 17.7078 95.5641 17.8829 96.5628 18.2382C97.5615 18.5884 98.4047 19.1188 99.0822 19.8193C99.7597 20.5248 100.186 21.4105 100.362 22.4762H97.9179C97.6469 21.6757 97.0798 21.0552 96.2115 20.6199C95.3483 20.1846 94.3446 19.9644 93.2104 19.9644C92.7888 19.9644 92.3071 19.9994 91.7651 20.0745C91.223 20.1495 90.7011 20.2846 90.2093 20.4948C89.7175 20.6999 89.3059 21.0052 88.9848 21.4055C88.6636 21.8058 88.503 22.3461 88.503 23.0266C88.503 23.6571 88.6636 24.1775 88.9848 24.5928C89.3059 25.0031 89.7526 25.3283 90.3197 25.5585C90.8868 25.7886 91.5041 25.9888 92.1716 26.1589C92.9846 26.329 93.8829 26.4942 94.8565 26.6493C95.8301 26.8094 96.6431 26.9845 97.2855 27.1797C98.0985 27.4198 98.7911 27.7501 99.3582 28.1604C99.9253 28.5707 100.357 29.076 100.653 29.6715C100.949 30.2669 101.1 30.9774 101.1 31.803C101.1 32.9188 100.879 33.8345 100.432 34.55C99.9855 35.2655 99.3883 35.8259 98.6355 36.2262C97.8827 36.6265 97.0496 36.9117 96.1363 37.0819C95.2229 37.252 94.3095 37.337 93.3961 37.337M55.7215 37.1169L62.7576 27.3248L56.128 17.9329H59.2747L64.5341 25.5785L69.6832 17.9329H72.7596L66.1652 27.3598L73.2414 37.1169H70.0947L64.3886 29.3262L58.7226 37.1169H55.7215ZM44.4597 37.337C41.7447 37.337 39.7122 36.6215 38.3672 35.1905C37.0222 33.7594 36.3497 31.6229 36.3497 28.7858V17.9379H38.9794V28.7108C38.9794 29.9967 39.1701 31.1175 39.5516 32.0782C39.933 33.0389 40.5252 33.7795 41.3281 34.2998C42.1311 34.8202 43.175 35.0804 44.4597 35.0804C45.7445 35.0804 46.8386 34.8252 47.6616 34.3148C48.4897 33.8045 49.0869 33.0689 49.4583 32.1132C49.8296 31.1525 50.0153 30.0217 50.0153 28.7108V17.9379H52.6451V28.7858C52.6451 31.6229 51.9676 33.7594 50.6075 35.1905C49.2475 36.6215 47.1999 37.337 44.4597 37.337ZM28.6813 11.3832H31.2759V37.1169H28.6813V11.3582V11.3832Z" fill="#E6C396"/>
</g>
<defs>
<clipPath id="clip0_1_498">
<rect width="170" height="55" fill="white"/>
</clipPath>
</defs>
</svg>
