<svg width="220" height="55" viewBox="0 0 220 55" fill="none" xmlns="http://www.w3.org/2000/svg">
<path fill-rule="evenodd" clip-rule="evenodd" d="M27.6479 0H220V27.5C220 42.625 207.558 55 192.352 55H0V27.5C0 12.375 12.4416 0 27.6479 0Z" fill="#FF6600"/>
<path d="M27.4157 43.5929V18.3369H32.5582L32.8347 20.4929C33.6531 19.5909 34.5157 18.9419 35.4447 18.5569C36.3626 18.1719 37.4021 17.9849 38.5412 17.9849C40.3328 17.9849 41.8258 18.4029 43.0202 19.2499C44.2146 20.0969 45.0993 21.2299 45.6965 22.6379C46.2937 24.0569 46.5923 25.6519 46.5923 27.4339C46.5923 29.2159 46.2826 30.8329 45.6523 32.2739C45.0219 33.7149 44.0929 34.8479 42.8543 35.6839C41.6157 36.5199 40.0895 36.9379 38.2758 36.9379C37.5017 36.9379 36.7828 36.8499 36.1082 36.6629C35.4336 36.4759 34.8254 36.2339 34.2945 35.9369C33.7637 35.6399 33.3213 35.3099 33.0006 34.9579V43.5819H27.4378L27.4157 43.5929ZM37.2141 31.9439C38.2426 31.9439 39.0278 31.7239 39.5919 31.2839C40.1559 30.8439 40.5429 30.2829 40.7862 29.6119C41.0185 28.9409 41.1401 28.2699 41.1401 27.5989C41.1401 26.8619 41.0074 26.1359 40.7531 25.4209C40.4987 24.7169 40.0785 24.1449 39.4923 23.6939C38.9062 23.2539 38.121 23.0339 37.1146 23.0339C36.2077 23.0339 35.4447 23.2539 34.8254 23.6719C34.2061 24.1009 33.7415 24.6509 33.4208 25.3219C33.1112 25.9929 32.9453 26.7189 32.9453 27.4779C32.9453 28.2369 33.1001 28.9629 33.3987 29.6339C33.6973 30.3049 34.1729 30.8549 34.8032 31.2839C35.4336 31.7129 36.2409 31.9329 37.2141 31.9329V31.9439ZM58.2708 36.9489C56.4239 36.9489 54.7871 36.5749 53.3605 35.8379C51.9228 35.1009 50.8059 34.0229 49.9875 32.6149C49.1691 31.2069 48.7599 29.5239 48.7599 27.5549C48.7599 25.5859 49.1691 23.8149 49.9985 22.3849C50.828 20.9549 51.956 19.8659 53.3716 19.1179C54.7872 18.3699 56.4018 17.9849 58.1934 17.9849C59.9849 17.9849 61.6217 18.3699 63.0152 19.1509C64.4086 19.9319 65.5256 21.0319 66.3329 22.4509C67.1513 23.8809 67.5605 25.5969 67.5605 27.6209C67.5605 29.6449 67.1734 31.2729 66.3882 32.6699C65.603 34.0669 64.5192 35.1229 63.1147 35.8489C61.7102 36.5749 60.0956 36.9489 58.2487 36.9489H58.2708ZM58.1713 31.8339C59.1555 31.8339 59.9297 31.6249 60.5158 31.2069C61.1019 30.7889 61.5111 30.2609 61.7544 29.6119C61.9977 28.9629 62.1194 28.2919 62.1194 27.5989C62.1194 26.9059 61.9977 26.2019 61.7544 25.5089C61.5111 24.8159 61.1019 24.2439 60.5269 23.7819C59.9518 23.3309 59.1666 23.0999 58.1713 23.0999C57.1759 23.0999 56.4129 23.3309 55.8267 23.7819C55.2406 24.2329 54.8203 24.8049 54.566 25.4869C54.3116 26.1689 54.1789 26.8729 54.1789 27.5879C54.1789 28.3029 54.3116 28.9629 54.577 29.6229C54.8424 30.2829 55.2627 30.8219 55.8378 31.2179C56.4129 31.6249 57.187 31.8229 58.1602 31.8229L58.1713 31.8339ZM79.2611 36.9489C77.4142 36.9489 75.7775 36.5749 74.3508 35.8379C72.9131 35.1009 71.7961 34.0229 70.9778 32.6149C70.1594 31.2069 69.7502 29.5239 69.7502 27.5549C69.7502 25.5859 70.1594 23.8149 70.9888 22.3849C71.8183 20.9549 72.9463 19.8659 74.3619 19.1179C75.7885 18.3589 77.3921 17.9849 79.1837 17.9849C80.9753 17.9849 82.612 18.3699 84.0055 19.1509C85.3989 19.9319 86.5159 21.0319 87.3232 22.4509C88.1416 23.8809 88.5508 25.5969 88.5508 27.6209C88.5508 29.6449 88.1637 31.2729 87.3785 32.6699C86.5933 34.0669 85.5095 35.1229 84.105 35.8489C82.7116 36.5749 81.0858 36.9489 79.239 36.9489H79.2611ZM79.1616 31.8339C80.1458 31.8339 80.92 31.6249 81.5061 31.2069C82.0922 30.7889 82.5014 30.2609 82.7447 29.6119C82.988 28.9629 83.1097 28.2919 83.1097 27.5989C83.1097 26.9059 82.988 26.2019 82.7447 25.5089C82.5014 24.8159 82.0922 24.2439 81.5172 23.7819C80.9421 23.3309 80.1569 23.0999 79.1616 23.0999C78.1662 23.0999 77.4032 23.3309 76.817 23.7819C76.2309 24.2329 75.8106 24.8049 75.5563 25.4869C75.3019 26.1689 75.1692 26.8729 75.1692 27.5879C75.1692 28.3029 75.3019 28.9629 75.5673 29.6229C75.8328 30.2829 76.253 30.8219 76.8281 31.2179C77.4031 31.6249 78.1773 31.8229 79.1505 31.8229L79.1616 31.8339ZM91.4372 36.6739V12.0339L96.9668 12.0669L97 36.6629H91.4372V36.6739ZM117.946 36.9489C117.061 36.9489 116.154 36.8499 115.237 36.6409C114.319 36.4319 113.456 36.0909 112.671 35.6289C111.875 35.1669 111.211 34.5289 110.68 33.7149C110.149 32.9009 109.784 31.8779 109.596 30.6569H115.192C115.336 31.0309 115.546 31.3499 115.834 31.6139C116.121 31.8779 116.486 32.0759 116.918 32.2079C117.349 32.3399 117.791 32.3949 118.234 32.3949C118.532 32.3949 118.831 32.3729 119.107 32.3289C119.384 32.2849 119.638 32.1969 119.859 32.0869C120.08 31.9659 120.246 31.8229 120.368 31.6469C120.49 31.4709 120.545 31.2619 120.545 30.9979C120.545 30.6239 120.423 30.3489 120.18 30.1839C119.937 30.0079 119.594 29.8759 119.163 29.7659C118.731 29.6669 118.234 29.5459 117.681 29.4359C116.774 29.2489 115.801 29.0179 114.761 28.7429C113.721 28.4679 112.848 28.0939 112.118 27.6319C111.764 27.4009 111.465 27.1369 111.211 26.8509C110.957 26.5649 110.747 26.2459 110.603 25.9159C110.448 25.5749 110.337 25.2229 110.249 24.8379C110.16 24.4529 110.127 24.0459 110.127 23.6059C110.127 22.5829 110.359 21.7139 110.813 20.9989C111.266 20.2839 111.864 19.7009 112.593 19.2609C113.323 18.8209 114.153 18.5019 115.06 18.3039C115.966 18.1059 116.873 18.0069 117.791 18.0069C119.074 18.0069 120.257 18.2049 121.363 18.6119C122.458 19.0189 123.376 19.6679 124.106 20.5589C124.836 21.4499 125.3 22.6159 125.488 24.0569H120.136C120.069 23.5949 119.793 23.2209 119.328 22.9459C118.864 22.6709 118.278 22.5279 117.581 22.5279C117.327 22.5279 117.072 22.5609 116.807 22.6159C116.553 22.6709 116.32 22.7479 116.121 22.8249C115.922 22.9019 115.756 23.0229 115.635 23.1879C115.502 23.3529 115.447 23.5509 115.447 23.7819C115.447 23.9469 115.502 24.1119 115.602 24.2659C115.701 24.4199 115.867 24.5739 116.088 24.7059C116.309 24.8379 116.597 24.9589 116.94 25.0689C117.736 25.2339 118.499 25.3879 119.251 25.5419C119.992 25.6959 120.711 25.8389 121.385 25.9819C122.126 26.1469 122.856 26.3999 123.553 26.7629C124.25 27.1259 124.825 27.6319 125.289 28.2809C125.743 28.9299 125.975 29.8099 125.975 30.9209C125.975 32.0319 125.732 33.0549 125.256 33.8469C124.781 34.6389 124.139 35.2549 123.354 35.6949C122.558 36.1349 121.695 36.4649 120.766 36.6739C119.837 36.8829 118.897 36.9819 117.968 36.9819L117.946 36.9489ZM136.835 36.6739C135.254 36.6739 133.904 36.4979 132.81 36.1349C131.715 35.7719 130.885 35.1449 130.31 34.2539C129.735 33.3629 129.459 32.0979 129.459 30.4809V23.2429H126.804V18.3369H129.459V13.6069H135.021V18.3369H138.693V23.2429H135.021V29.6779C135.021 30.2829 135.132 30.7779 135.331 31.1519C135.541 31.5369 136.072 31.7239 136.935 31.7239H138.505V36.6629H136.824L136.835 36.6739ZM149.774 36.9489C147.927 36.9489 146.291 36.5749 144.864 35.8379C143.426 35.1009 142.309 34.0229 141.491 32.6149C140.673 31.2069 140.263 29.5239 140.263 27.5549C140.263 25.5859 140.673 23.8149 141.502 22.3849C142.332 20.9549 143.46 19.8659 144.875 19.1179C146.302 18.3589 147.905 17.9849 149.697 17.9849C151.488 17.9849 153.125 18.3699 154.519 19.1509C155.912 19.9319 157.029 21.0319 157.836 22.4509C158.655 23.8809 159.064 25.5969 159.064 27.6209C159.064 29.6449 158.677 31.2729 157.892 32.6699C157.107 34.0669 156.023 35.1229 154.618 35.8489C153.225 36.5749 151.599 36.9489 149.752 36.9489H149.774ZM149.675 31.8339C150.659 31.8339 151.433 31.6249 152.019 31.2069C152.606 30.7889 153.015 30.2609 153.258 29.6119C153.501 28.9629 153.623 28.2919 153.623 27.5989C153.623 26.9059 153.501 26.2019 153.258 25.5089C153.015 24.8159 152.606 24.2439 152.03 23.7819C151.455 23.3309 150.67 23.0999 149.675 23.0999C148.68 23.0999 147.916 23.3309 147.33 23.7819C146.744 24.2329 146.324 24.8049 146.07 25.4869C145.815 26.1689 145.682 26.8729 145.682 27.5879C145.682 28.3029 145.815 28.9629 146.081 29.6229C146.346 30.2829 146.766 30.8219 147.341 31.2179C147.916 31.6249 148.691 31.8229 149.664 31.8229L149.675 31.8339ZM161.95 36.6739V18.3369H166.85L167.237 20.2839C167.701 19.6129 168.221 19.1179 168.796 18.7879C169.371 18.4579 169.946 18.2489 170.543 18.1499C171.141 18.0509 171.716 17.9959 172.28 17.9959C172.634 17.9959 172.954 17.9959 173.242 18.0179C173.529 18.0289 173.728 18.0509 173.817 18.0729V23.3639H172.667C171.683 23.3639 170.809 23.5179 170.024 23.8149C169.238 24.1119 168.63 24.6179 168.188 25.3109C167.745 26.0039 167.524 26.9829 167.524 28.2369V36.6849H161.962L161.95 36.6739ZM184.124 36.9489C182.211 36.9489 180.563 36.5639 179.17 35.8049C177.787 35.0349 176.714 33.9569 175.973 32.5489C175.233 31.1409 174.857 29.4909 174.857 27.5879C174.857 25.6849 175.244 24.0129 176.007 22.5829C176.781 21.1419 177.854 20.0199 179.247 19.2059C180.64 18.3919 182.277 17.9849 184.157 17.9849C185.529 17.9849 186.756 18.2049 187.807 18.6449C188.868 19.0849 189.775 19.7119 190.538 20.5259C191.301 21.3399 191.866 22.2969 192.253 23.4079C192.64 24.5189 192.828 25.7399 192.828 27.0599C192.806 27.4119 192.783 27.7529 192.761 28.0829C192.739 28.4239 192.684 28.7649 192.584 29.1059H180.342C180.408 29.6889 180.585 30.2169 180.862 30.7009C181.138 31.1849 181.536 31.5699 182.056 31.8449C182.565 32.1199 183.217 32.2629 184.014 32.2629C184.578 32.2629 185.075 32.1969 185.54 32.0759C186.004 31.9549 186.369 31.7679 186.679 31.5149C186.977 31.2729 187.176 30.9979 187.276 30.7009H192.728C192.43 32.1639 191.843 33.3519 190.981 34.2649C190.118 35.1779 189.09 35.8489 187.906 36.2779C186.712 36.7069 185.462 36.9269 184.124 36.9269V36.9489ZM180.452 25.3989H187.552C187.552 24.9149 187.431 24.4419 187.188 23.9689C186.944 23.5069 186.568 23.1329 186.048 22.8359C185.54 22.5499 184.876 22.3959 184.058 22.3959C183.239 22.3959 182.598 22.5499 182.067 22.8469C181.525 23.1439 181.138 23.5289 180.873 23.9909C180.618 24.4529 180.475 24.9149 180.452 25.3879V25.3989Z" fill="white"/>
</svg>
