<svg width="200" height="51" viewBox="0 0 200 51" fill="none" xmlns="http://www.w3.org/2000/svg">
<g clip-path="url(#clip0_1_280)">
<path fill-rule="evenodd" clip-rule="evenodd" d="M25.4332 0.5H124.707V25.4985C124.707 39.2469 113.457 50.497 99.7075 50.497H0.433594V25.4985C0.433594 11.7501 11.6842 0.5 25.4332 0.5Z" fill="#000064"/>
<path d="M33.9415 34.8727C32.7178 34.8727 31.6324 34.6924 30.6854 34.3346C29.7353 33.9768 28.9085 33.4748 28.2019 32.8314C27.4954 32.188 26.9151 31.4304 26.4611 30.5555C26.0071 29.6806 25.6704 28.7276 25.4479 27.6934C25.2254 26.6592 25.1172 25.5859 25.1172 24.4675C25.1172 22.8861 25.2164 21.4641 25.4178 20.1983C25.6193 18.9326 25.935 17.8172 26.3679 16.8462C26.8009 15.8751 27.3902 15.0423 28.1388 14.3478C28.8874 13.6533 29.8104 13.0941 30.9048 12.6702C31.7046 12.3125 32.5855 12.0479 33.5446 11.8795C34.5037 11.7112 35.553 11.5518 36.6925 11.4045C37.853 11.2783 38.7369 11.173 39.3503 11.0888C39.9606 11.0047 40.4296 10.9295 40.7574 10.8664C41.0851 10.8032 41.3737 10.7491 41.6263 10.707V15.9262C41.4368 15.9683 41.2324 16.0104 41.0099 16.0525C40.7874 16.0946 40.5499 16.1306 40.2974 16.1637C40.0448 16.1968 39.7802 16.2208 39.5066 16.2419C39.233 16.2629 38.9624 16.278 38.7009 16.29C38.4363 16.299 38.1777 16.317 37.9252 16.3381C36.9751 16.4223 36.016 16.5185 35.0479 16.6237C34.0768 16.7289 33.2019 16.9183 32.4232 17.1919C31.6414 17.4655 31.0221 17.8984 30.5561 18.4877C30.4087 18.6771 30.2614 18.9296 30.1141 19.2453C29.9668 19.561 29.8465 19.9037 29.7503 20.2735C29.6541 20.6433 29.609 21.0582 29.609 21.5242C30.1141 20.7666 30.7064 20.1863 31.3799 19.7835C32.0533 19.3836 32.7449 19.104 33.4514 18.9447C34.1579 18.7853 34.7953 18.7072 35.3636 18.7072C36.924 18.7072 38.2318 19.0559 39.2841 19.7504C40.3394 20.4449 41.1332 21.3799 41.6714 22.5494C42.2095 23.7189 42.4771 25.0327 42.4771 26.4878C42.4771 28.1955 42.1193 29.6776 41.4008 30.9313C40.6852 32.185 39.687 33.1561 38.4122 33.8415C37.1374 34.527 35.6462 34.8697 33.9385 34.8697L33.9415 34.8727ZM33.9415 30.4142C34.7412 30.4142 35.4057 30.2338 35.9348 29.8761C36.461 29.5183 36.8518 29.0643 37.1044 28.5171C37.3569 27.97 37.4832 27.3988 37.4832 26.8095C37.4832 26.2202 37.3569 25.634 37.1044 25.1169C36.8518 24.5998 36.467 24.1728 35.9499 23.8361C35.4327 23.4994 34.7863 23.331 34.0046 23.331C33.2229 23.331 32.5975 23.4934 32.0594 23.8211C31.5212 24.1488 31.1093 24.5757 30.8267 25.1018C30.541 25.628 30.3997 26.1992 30.3997 26.8095C30.3997 27.4198 30.526 27.97 30.7786 28.5171C31.0311 29.0643 31.422 29.5183 31.9481 29.8761C32.4743 30.2338 33.1387 30.4142 33.9415 30.4142ZM52.949 34.8727C51.2623 34.8727 49.8071 34.53 48.5835 33.8445C47.3598 33.1591 46.4157 32.173 45.7543 30.8862C45.0898 29.5995 44.7591 28.0812 44.7591 26.3315C44.7591 24.5817 45.1019 22.9943 45.7873 21.6986C46.4728 20.4028 47.438 19.4016 48.6827 18.6951C49.9274 17.9886 51.4036 17.6369 53.1113 17.6369C54.5244 17.6369 55.7842 17.8954 56.8906 18.4125C57.997 18.9296 58.884 19.6722 59.5484 20.6433C60.2129 21.6144 60.5857 22.8049 60.6699 24.2179H55.7992C55.6309 23.5445 55.3092 23.0424 54.8341 22.7147C54.3591 22.387 53.7758 22.2247 53.0783 22.2247C52.1943 22.2247 51.5119 22.4411 51.0398 22.8741C50.5648 23.307 50.228 23.8391 50.0266 24.4705C49.8252 25.1018 49.726 25.7151 49.726 26.3044C49.726 26.9779 49.8372 27.6272 50.0567 28.2496C50.2792 28.8719 50.6369 29.371 51.133 29.7528C51.6291 30.1316 52.2665 30.321 53.0452 30.321C53.7608 30.321 54.3681 30.1526 54.8642 29.8159C55.3603 29.4792 55.682 28.9831 55.8293 28.3307H60.8262C60.7631 29.7648 60.3692 30.9674 59.6416 31.9355C58.914 32.9065 57.97 33.6371 56.8124 34.1332C55.6519 34.6292 54.3681 34.8758 52.955 34.8758L52.949 34.8727ZM71.9234 34.8727C70.6998 34.8727 69.6144 34.6924 68.6673 34.3346C67.7173 33.9768 66.8904 33.4748 66.1839 32.8314C65.4774 32.188 64.8971 31.4304 64.4431 30.5555C63.9891 29.6806 63.6524 28.7276 63.4299 27.6934C63.2074 26.6592 63.0992 25.5859 63.0992 24.4675C63.0992 22.8861 63.1984 21.4641 63.3998 20.1983C63.6013 18.9326 63.917 17.8172 64.3499 16.8462C64.7828 15.8751 65.3721 15.0423 66.1208 14.3478C66.8694 13.6533 67.7924 13.0941 68.8868 12.6702C69.6866 12.3125 70.5675 12.0479 71.5266 11.8795C72.4857 11.7112 73.535 11.5518 74.6745 11.4045C75.835 11.2783 76.7189 11.173 77.3323 11.0888C77.9426 11.0047 78.4116 10.9295 78.7393 10.8664C79.0671 10.8032 79.3557 10.7491 79.6082 10.707V15.9262C79.4188 15.9683 79.2144 16.0104 78.9919 16.0525C78.7694 16.0946 78.5319 16.1306 78.2793 16.1637C78.0268 16.1968 77.7622 16.2208 77.4886 16.2419C77.215 16.2629 76.9444 16.278 76.6828 16.29C76.4183 16.299 76.1597 16.317 75.9071 16.3381C74.9571 16.4223 73.998 16.5185 73.0299 16.6237C72.0587 16.7289 71.1838 16.9183 70.4051 17.1919C69.6264 17.4655 69.0041 17.8984 68.5381 18.4877C68.3907 18.6771 68.2434 18.9296 68.0961 19.2453C67.9488 19.561 67.8285 19.9037 67.7323 20.2735C67.6361 20.6433 67.591 21.0582 67.591 21.5242C68.0961 20.7666 68.6884 20.1863 69.3619 19.7835C70.0353 19.3836 70.7268 19.104 71.4334 18.9447C72.1399 18.7853 72.7773 18.7072 73.3456 18.7072C74.906 18.7072 76.2138 19.0559 77.2661 19.7504C78.3214 20.4449 79.1152 21.3799 79.6533 22.5494C80.1915 23.7189 80.4591 25.0327 80.4591 26.4878C80.4591 28.1955 80.1013 29.6776 79.3827 30.9313C78.6672 32.185 77.669 33.1561 76.3942 33.8415C75.1194 34.527 73.6282 34.8697 71.9204 34.8697L71.9234 34.8727ZM71.9234 30.4142C72.7232 30.4142 73.3876 30.2338 73.9168 29.8761C74.443 29.5183 74.8338 29.0643 75.0864 28.5171C75.3389 27.97 75.4652 27.3988 75.4652 26.8095C75.4652 26.2202 75.3389 25.634 75.0864 25.1169C74.8338 24.5998 74.449 24.1728 73.9318 23.8361C73.4147 23.4994 72.7683 23.331 71.9866 23.331C71.2049 23.331 70.5795 23.4934 70.0413 23.8211C69.5032 24.1488 69.0913 24.5757 68.8086 25.1018C68.523 25.628 68.3817 26.1992 68.3817 26.8095C68.3817 27.4198 68.508 27.97 68.7605 28.5171C69.0131 29.0643 69.4039 29.5183 69.9301 29.8761C70.4562 30.2338 71.1207 30.4142 71.9234 30.4142ZM83.0568 34.6202V17.9525H88.0868V24.0887H90.489L94.2532 17.9525H99.8815L94.7884 25.7633L99.7853 34.6172H94.0307L90.7085 28.5773H88.0838V34.6172H83.0538L83.0568 34.6202Z" fill="white"/>
<path d="M135.994 11.5211V4.6875H140.645V5.45113H136.836V7.51054H138.393C138.727 7.51054 139.049 7.5376 139.355 7.58871C139.662 7.63982 139.936 7.73302 140.173 7.86831C140.411 8.0036 140.6 8.19601 140.738 8.44254C140.877 8.68906 140.946 9.01376 140.946 9.41361C140.946 9.81347 140.883 10.1382 140.753 10.4087C140.624 10.6793 140.444 10.8958 140.212 11.0611C139.981 11.2265 139.707 11.3437 139.391 11.4129C139.076 11.482 138.73 11.5181 138.357 11.5181H135.997L135.994 11.5211ZM136.836 10.7575H138.246C138.477 10.7575 138.706 10.7425 138.928 10.7094C139.151 10.6763 139.349 10.6192 139.524 10.529C139.698 10.4418 139.836 10.3125 139.939 10.1412C140.041 9.9698 140.092 9.74733 140.092 9.47074C140.092 9.19414 140.044 8.97467 139.942 8.81233C139.842 8.65299 139.704 8.53273 139.53 8.45456C139.355 8.37639 139.163 8.32829 138.949 8.30424C138.736 8.28019 138.516 8.27117 138.291 8.27117H136.833V10.7545L136.836 10.7575Z" fill="#000064"/>
<path d="M144.328 11.5782C143.787 11.5782 143.339 11.467 142.984 11.2445C142.629 11.0221 142.365 10.7154 142.191 10.3216C142.016 9.92772 141.929 9.47976 141.929 8.97768C141.929 8.47561 142.019 8.01863 142.206 7.6308C142.392 7.24297 142.66 6.93331 143.011 6.70783C143.366 6.48234 143.802 6.37111 144.316 6.37111C144.695 6.37111 145.029 6.44326 145.317 6.58757C145.603 6.73188 145.844 6.9273 146.033 7.17082C146.222 7.41434 146.361 7.68792 146.448 7.99157C146.535 8.29522 146.571 8.60789 146.559 8.92958C146.553 8.9867 146.55 9.04683 146.55 9.10395C146.55 9.16108 146.547 9.2212 146.541 9.27833H142.762C142.789 9.57596 142.861 9.84354 142.984 10.081C143.108 10.3186 143.279 10.508 143.507 10.6463C143.736 10.7845 144.013 10.8537 144.349 10.8537C144.518 10.8537 144.686 10.8327 144.857 10.7906C145.029 10.7485 145.182 10.6763 145.32 10.5741C145.459 10.4719 145.558 10.3336 145.615 10.1592H146.457C146.379 10.4869 146.234 10.7575 146.021 10.9649C145.807 11.1754 145.555 11.3287 145.257 11.4279C144.963 11.5271 144.65 11.5782 144.328 11.5782ZM142.783 8.5628H145.732C145.726 8.27418 145.66 8.01863 145.54 7.79916C145.417 7.57969 145.251 7.40832 145.041 7.28807C144.83 7.1648 144.584 7.10467 144.292 7.10467C143.976 7.10467 143.709 7.17082 143.495 7.30611C143.279 7.4414 143.114 7.61878 142.996 7.83824C142.879 8.05771 142.81 8.29823 142.783 8.5628Z" fill="#000064"/>
<path d="M147.151 11.5336V10.818C147.281 10.818 147.395 10.791 147.5 10.7369C147.602 10.6827 147.693 10.5986 147.771 10.4903C147.861 10.361 147.93 10.1747 147.984 9.93113C148.035 9.68761 148.071 9.42605 148.089 9.14946C148.117 8.83979 148.135 8.53614 148.147 8.2355C148.159 7.93486 148.171 7.63722 148.18 7.33958C148.189 7.04495 148.195 6.7413 148.195 6.43164H151.733V11.5245H150.913V7.15619H148.997C148.991 7.37566 148.982 7.59513 148.973 7.81761C148.964 8.04008 148.952 8.26256 148.943 8.48503C148.934 8.70751 148.922 8.92999 148.91 9.15547C148.904 9.41402 148.877 9.70264 148.832 10.0273C148.787 10.349 148.691 10.6437 148.54 10.9082C148.399 11.1578 148.228 11.3261 148.023 11.4103C147.822 11.4945 147.527 11.5366 147.148 11.5366L147.151 11.5336Z" fill="#000064"/>
<path d="M155.251 11.5782C154.716 11.5782 154.268 11.467 153.907 11.2445C153.546 11.0221 153.276 10.7154 153.101 10.3216C152.927 9.92772 152.837 9.47976 152.837 8.97768C152.837 8.47561 152.924 8.01863 153.101 7.6308C153.279 7.24297 153.549 6.93331 153.907 6.70783C154.268 6.48234 154.722 6.37111 155.272 6.37111C155.822 6.37111 156.252 6.48535 156.61 6.70783C156.968 6.93331 157.235 7.23996 157.413 7.6308C157.59 8.02164 157.677 8.4696 157.677 8.97768C157.677 9.48577 157.587 9.92772 157.407 10.3216C157.226 10.7154 156.959 11.0221 156.601 11.2445C156.243 11.467 155.795 11.5782 155.251 11.5782ZM155.251 10.8537C155.624 10.8537 155.931 10.7695 156.165 10.6012C156.4 10.4328 156.574 10.2073 156.688 9.92471C156.802 9.64211 156.857 9.32643 156.857 8.97768C156.857 8.62894 156.799 8.31326 156.688 8.03066C156.574 7.74805 156.403 7.52257 156.165 7.35421C155.928 7.18585 155.624 7.10167 155.251 7.10167C154.878 7.10167 154.584 7.18585 154.346 7.35421C154.109 7.52257 153.937 7.74805 153.823 8.03066C153.709 8.31326 153.655 8.62894 153.655 8.97768C153.655 9.32643 153.712 9.64211 153.823 9.92471C153.934 10.2073 154.109 10.4328 154.346 10.6012C154.581 10.7695 154.884 10.8537 155.251 10.8537Z" fill="#000064"/>
<path d="M158.781 13.358V6.42822H159.563L159.602 7.21289C159.776 6.9363 160.014 6.72585 160.312 6.58455C160.612 6.44325 160.934 6.37109 161.283 6.37109C161.797 6.37109 162.221 6.48534 162.548 6.71383C162.876 6.94232 163.12 7.25499 163.279 7.64582C163.438 8.03966 163.517 8.48462 163.517 8.98068C163.517 9.47674 163.435 9.92169 163.273 10.3155C163.114 10.7094 162.864 11.019 162.53 11.2445C162.194 11.47 161.767 11.5812 161.244 11.5812C160.985 11.5812 160.754 11.5542 160.549 11.5001C160.342 11.446 160.161 11.3678 160.008 11.2626C159.852 11.1603 159.716 11.0431 159.602 10.9138V13.3611H158.781V13.358ZM161.177 10.8537C161.55 10.8537 161.848 10.7695 162.067 10.5981C162.287 10.4268 162.446 10.2013 162.545 9.91568C162.645 9.63007 162.696 9.32041 162.696 8.97767C162.696 8.63494 162.645 8.31325 162.545 8.03064C162.446 7.74804 162.284 7.52256 162.058 7.3542C161.833 7.18584 161.532 7.10166 161.159 7.10166C160.823 7.10166 160.54 7.18884 160.303 7.3572C160.065 7.52556 159.888 7.75706 159.764 8.04267C159.641 8.32828 159.581 8.64396 159.581 8.98368C159.581 9.32341 159.638 9.65713 159.755 9.93973C159.87 10.2223 160.047 10.4448 160.288 10.6072C160.525 10.7665 160.823 10.8477 161.177 10.8477V10.8537Z" fill="#000064"/>
<path d="M164.743 13.7073V12.9226C165.059 12.9226 165.311 12.8775 165.498 12.7933C165.684 12.7061 165.84 12.5709 165.967 12.3875C166.093 12.2041 166.213 11.9696 166.331 11.687L164.097 6.42871H165.065L166.785 10.7219L168.195 6.42871H169.124L167.693 10.4393C167.62 10.6467 167.542 10.8782 167.452 11.1338C167.362 11.3923 167.263 11.6539 167.151 11.9215C167.043 12.189 166.92 12.4356 166.791 12.6641C166.658 12.8925 166.511 13.0789 166.352 13.2202C166.216 13.3435 166.084 13.4397 165.955 13.5089C165.825 13.581 165.669 13.6291 165.486 13.6592C165.302 13.6892 165.056 13.7043 164.746 13.7043L164.743 13.7073Z" fill="#000064"/>
<path d="M172.063 11.5783C171.528 11.5783 171.083 11.4671 170.735 11.2446C170.386 11.0221 170.124 10.7155 169.953 10.3216C169.781 9.92778 169.697 9.48283 169.697 8.98677C169.697 8.49071 169.784 8.06379 169.962 7.66694C170.139 7.27009 170.41 6.95442 170.774 6.71992C171.137 6.48542 171.6 6.36816 172.163 6.36816C172.511 6.36816 172.821 6.42529 173.095 6.54254C173.368 6.65979 173.597 6.82815 173.777 7.05062C173.958 7.2731 174.084 7.5527 174.153 7.88641H173.311C173.215 7.60381 173.062 7.40238 172.851 7.28212C172.641 7.16186 172.394 7.10173 172.112 7.10173C171.724 7.10173 171.417 7.19193 171.183 7.37231C170.951 7.5527 170.78 7.7872 170.674 8.07281C170.569 8.35842 170.515 8.66508 170.515 8.98677C170.515 9.30846 170.569 9.63014 170.68 9.91576C170.792 10.2014 170.96 10.4268 171.192 10.5982C171.423 10.7696 171.724 10.8538 172.091 10.8538C172.361 10.8538 172.617 10.7966 172.86 10.6794C173.104 10.5621 173.26 10.3577 173.338 10.0601H174.189C174.126 10.4088 173.988 10.6944 173.777 10.9199C173.567 11.1454 173.314 11.3107 173.014 11.419C172.713 11.5242 172.397 11.5783 172.063 11.5783Z" fill="#000064"/>
<path d="M177.506 11.5782C176.971 11.5782 176.526 11.467 176.177 11.2445C175.828 11.0221 175.566 10.7154 175.395 10.3216C175.224 9.92771 175.14 9.48276 175.14 8.9867C175.14 8.49064 175.227 8.06372 175.404 7.66687C175.581 7.27003 175.852 6.95435 176.216 6.71985C176.58 6.48535 177.043 6.3681 177.605 6.3681C177.954 6.3681 178.263 6.42522 178.537 6.54247C178.811 6.65972 179.039 6.82808 179.219 7.05056C179.4 7.27303 179.526 7.55263 179.595 7.88634H178.753C178.657 7.60374 178.504 7.40231 178.293 7.28205C178.083 7.16179 177.836 7.10166 177.554 7.10166C177.166 7.10166 176.859 7.19186 176.625 7.37224C176.393 7.55263 176.222 7.78713 176.117 8.07274C176.011 8.35835 175.957 8.66501 175.957 8.9867C175.957 9.30839 176.011 9.63008 176.123 9.91569C176.234 10.2013 176.402 10.4268 176.634 10.5981C176.865 10.7695 177.166 10.8537 177.533 10.8537C177.803 10.8537 178.059 10.7966 178.302 10.6793C178.546 10.5621 178.702 10.3576 178.78 10.06H179.631C179.568 10.4087 179.43 10.6944 179.219 10.9198C179.009 11.1453 178.756 11.3107 178.456 11.4189C178.155 11.5241 177.839 11.5782 177.506 11.5782Z" fill="#000064"/>
<path d="M180.675 11.5216V6.42871H181.496V8.62341H182.386L183.895 6.42871H184.833L183.131 8.8549L184.977 11.5216H184.009L182.482 9.33593H181.496V11.5216H180.675Z" fill="#000064"/>
<path d="M187.229 11.5782C186.997 11.5782 186.772 11.5482 186.558 11.4881C186.345 11.4279 186.15 11.3317 185.978 11.2085C185.807 11.0822 185.672 10.9258 185.572 10.7334C185.473 10.544 185.422 10.3216 185.422 10.072C185.422 9.7834 185.476 9.53688 185.581 9.33845C185.687 9.14003 185.831 8.98069 186.011 8.86644C186.192 8.74919 186.402 8.66802 186.64 8.6139C186.877 8.55979 187.127 8.53573 187.385 8.53573H188.883C188.883 8.24411 188.843 7.99458 188.762 7.78112C188.681 7.56766 188.552 7.40231 188.371 7.28205C188.191 7.16179 187.954 7.10167 187.656 7.10167C187.475 7.10167 187.307 7.1197 187.154 7.15879C187 7.19787 186.868 7.258 186.757 7.34218C186.649 7.42636 186.567 7.54061 186.516 7.6789H185.635C185.681 7.44741 185.771 7.24898 185.903 7.08363C186.035 6.91827 186.195 6.78298 186.387 6.67776C186.58 6.57253 186.781 6.49136 187 6.44025C187.22 6.38914 187.439 6.36208 187.659 6.36208C188.149 6.36208 188.543 6.4613 188.837 6.65671C189.135 6.85514 189.352 7.13173 189.487 7.4895C189.622 7.84726 189.688 8.27117 189.688 8.76122V11.5151H189.003L188.955 10.8657C188.813 11.0581 188.642 11.2085 188.444 11.3107C188.242 11.4129 188.038 11.482 187.83 11.5181C187.623 11.5542 187.424 11.5722 187.235 11.5722L187.229 11.5782ZM187.307 10.8537C187.629 10.8537 187.908 10.7996 188.143 10.6944C188.377 10.5891 188.561 10.4328 188.69 10.2254C188.819 10.0179 188.883 9.76837 188.883 9.47074V9.2212H187.984C187.773 9.2212 187.563 9.22421 187.355 9.23022C187.148 9.23623 186.961 9.26329 186.796 9.30839C186.628 9.35348 186.495 9.43165 186.396 9.53988C186.297 9.64812 186.246 9.80746 186.246 10.0149C186.246 10.2073 186.297 10.3667 186.396 10.4869C186.495 10.6102 186.628 10.7004 186.793 10.7635C186.958 10.8236 187.13 10.8537 187.31 10.8537H187.307Z" fill="#000064"/>
<path d="M190.642 11.5216L191.964 9.51031C191.598 9.40809 191.306 9.23973 191.096 9.00222C190.885 8.76471 190.777 8.45204 190.777 8.0612C190.777 7.75154 190.822 7.49299 190.912 7.28254C191.002 7.07209 191.135 6.90673 191.309 6.78046C191.483 6.65419 191.694 6.564 191.937 6.50988C192.181 6.45577 192.464 6.42871 192.779 6.42871H194.827V11.5216H194.006V9.63658H192.836L191.598 11.5216H190.642ZM193.396 8.92104H194.006V7.15326H192.915C192.722 7.15326 192.545 7.16228 192.382 7.18333C192.223 7.20136 192.085 7.24345 191.97 7.30358C191.856 7.36672 191.769 7.4509 191.703 7.56514C191.637 7.67939 191.607 7.82971 191.607 8.02513C191.607 8.23858 191.661 8.40394 191.766 8.5272C191.871 8.65047 192.01 8.73765 192.181 8.79477C192.352 8.84889 192.542 8.88497 192.755 8.9C192.969 8.91503 193.182 8.92405 193.393 8.92405L193.396 8.92104Z" fill="#000064"/>
<path d="M138.76 22.6003C138.056 22.6003 137.473 22.45 137.004 22.1524C136.538 21.8517 136.189 21.4398 135.961 20.9137C135.732 20.3876 135.618 19.7863 135.618 19.1098C135.618 18.4334 135.732 17.8441 135.967 17.318C136.198 16.7919 136.547 16.377 137.016 16.0703C137.485 15.7637 138.072 15.6104 138.781 15.6104C139.283 15.6104 139.716 15.6885 140.08 15.8479C140.444 16.0072 140.738 16.2237 140.964 16.5003C141.189 16.7768 141.346 17.1015 141.427 17.4773H140.576C140.48 17.1406 140.272 16.8761 139.954 16.6746C139.635 16.4732 139.235 16.374 138.751 16.374C138.21 16.374 137.771 16.5033 137.44 16.7558C137.106 17.0114 136.866 17.3421 136.71 17.7509C136.553 18.1598 136.478 18.6048 136.478 19.0798C136.478 19.5819 136.559 20.0448 136.719 20.4627C136.881 20.8806 137.13 21.2143 137.473 21.4639C137.816 21.7134 138.249 21.8367 138.778 21.8367C139.1 21.8367 139.388 21.7916 139.644 21.7014C139.9 21.6112 140.11 21.4819 140.281 21.3136C140.453 21.1452 140.57 20.9528 140.633 20.7333H141.55C141.454 21.1061 141.28 21.4338 141.033 21.7134C140.786 21.993 140.471 22.2125 140.092 22.3658C139.713 22.5221 139.268 22.5973 138.757 22.5973L138.76 22.6003Z" fill="#000064"/>
<path d="M143.952 22.5216V18.1533H142.202V17.4287H146.523V18.1533H144.773V22.5216H143.952Z" fill="#000064"/>
<path d="M147.257 24.359V17.4292H148.039L148.078 18.2139C148.252 17.9373 148.49 17.7268 148.787 17.5855C149.088 17.4442 149.41 17.3721 149.758 17.3721C150.272 17.3721 150.696 17.4863 151.024 17.7148C151.352 17.9433 151.595 18.256 151.755 18.6468C151.914 19.0406 151.992 19.4856 151.992 19.9817C151.992 20.4777 151.911 20.9227 151.749 21.3165C151.589 21.7104 151.34 22.02 151.006 22.2455C150.669 22.471 150.242 22.5822 149.719 22.5822C149.461 22.5822 149.229 22.5552 149.025 22.501C148.817 22.4469 148.637 22.3688 148.484 22.2635C148.327 22.1613 148.192 22.0441 148.078 21.9148V24.362H147.257V24.359ZM149.653 21.8547C150.026 21.8547 150.324 21.7705 150.543 21.5991C150.762 21.4278 150.922 21.2023 151.021 20.9167C151.12 20.631 151.171 20.3214 151.171 19.9786C151.171 19.6359 151.12 19.3142 151.021 19.0316C150.922 18.749 150.759 18.5235 150.534 18.3552C150.309 18.1868 150.008 18.1026 149.635 18.1026C149.298 18.1026 149.016 18.1898 148.778 18.3582C148.541 18.5265 148.363 18.758 148.24 19.0436C148.117 19.3293 148.057 19.6449 148.057 19.9847C148.057 20.3244 148.114 20.6581 148.231 20.9407C148.345 21.2233 148.523 21.4458 148.763 21.6081C149.001 21.7675 149.298 21.8487 149.653 21.8487V21.8547Z" fill="#000064"/>
<path d="M155.281 22.5792C154.746 22.5792 154.298 22.468 153.938 22.2455C153.577 22.023 153.306 21.7164 153.132 21.3225C152.957 20.9287 152.867 20.4807 152.867 19.9786C152.867 19.4766 152.954 19.0196 153.132 18.6318C153.309 18.2439 153.58 17.9343 153.938 17.7088C154.298 17.4833 154.752 17.3721 155.303 17.3721C155.853 17.3721 156.283 17.4863 156.64 17.7088C156.998 17.9343 157.266 18.2409 157.443 18.6318C157.621 19.0226 157.708 19.4706 157.708 19.9786C157.708 20.4867 157.618 20.9287 157.437 21.3225C157.257 21.7164 156.989 22.023 156.631 22.2455C156.274 22.468 155.826 22.5792 155.281 22.5792ZM155.281 21.8547C155.654 21.8547 155.961 21.7705 156.195 21.6021C156.43 21.4338 156.604 21.2083 156.719 20.9257C156.833 20.6431 156.887 20.3274 156.887 19.9786C156.887 19.6299 156.83 19.3142 156.719 19.0316C156.604 18.749 156.433 18.5235 156.195 18.3552C155.958 18.1868 155.654 18.1026 155.281 18.1026C154.909 18.1026 154.614 18.1868 154.376 18.3552C154.139 18.5235 153.968 18.749 153.853 19.0316C153.739 19.3142 153.685 19.6299 153.685 19.9786C153.685 20.3274 153.742 20.6431 153.853 20.9257C153.965 21.2083 154.139 21.4338 154.376 21.6021C154.611 21.7705 154.915 21.8547 155.281 21.8547Z" fill="#000064"/>
<path d="M158.808 22.5217V17.4288H159.629V21.3341C159.674 21.2439 159.734 21.1447 159.812 21.0395C159.89 20.9343 159.95 20.8501 159.995 20.793L162.461 17.4288H163.273V22.5217H162.452V18.6163C162.401 18.7125 162.344 18.8027 162.283 18.8869C162.22 18.9711 162.166 19.0462 162.115 19.1184L159.611 22.5217H158.808Z" fill="#000064"/>
<path d="M165.759 22.5216V18.1533H164.009V17.4287H168.329V18.1533H166.579V22.5216H165.759Z" fill="#000064"/>
<path d="M171.27 22.5792C170.729 22.5792 170.281 22.468 169.926 22.2455C169.572 22.023 169.307 21.7164 169.133 21.3225C168.958 20.9287 168.871 20.4807 168.871 19.9786C168.871 19.4766 168.961 19.0196 169.148 18.6318C169.334 18.2439 169.602 17.9343 169.953 17.7088C170.308 17.4833 170.744 17.3721 171.258 17.3721C171.637 17.3721 171.971 17.4442 172.26 17.5885C172.545 17.7328 172.786 17.9283 172.975 18.1718C173.164 18.4153 173.303 18.6889 173.39 18.9925C173.477 19.2962 173.513 19.6089 173.501 19.9305C173.495 19.9877 173.492 20.0478 173.492 20.1049C173.492 20.162 173.489 20.2222 173.483 20.2793H169.704C169.731 20.5769 169.803 20.8445 169.926 21.082C170.05 21.3195 170.221 21.5089 170.45 21.6472C170.678 21.7855 170.955 21.8547 171.291 21.8547C171.46 21.8547 171.628 21.8336 171.799 21.7915C171.971 21.7494 172.124 21.6773 172.263 21.5751C172.401 21.4728 172.5 21.3346 172.557 21.1602H173.399C173.321 21.4879 173.177 21.7585 172.963 21.9659C172.75 22.1764 172.497 22.3297 172.199 22.4289C171.905 22.5281 171.592 22.5792 171.27 22.5792ZM169.725 19.5638H172.674C172.668 19.2751 172.602 19.0196 172.482 18.8001C172.359 18.5807 172.193 18.4093 171.983 18.289C171.772 18.1658 171.526 18.1056 171.234 18.1056C170.919 18.1056 170.651 18.1718 170.438 18.3071C170.221 18.4424 170.056 18.6197 169.938 18.8392C169.821 19.0587 169.752 19.2992 169.725 19.5638Z" fill="#000064"/>
<path d="M174.093 22.5306V21.8151C174.222 21.8151 174.336 21.788 174.442 21.7339C174.544 21.6798 174.634 21.5956 174.712 21.4874C174.802 21.3581 174.872 21.1717 174.926 20.9282C174.977 20.6847 175.013 20.4231 175.031 20.1465C175.058 19.8369 175.076 19.5332 175.088 19.2326C175.1 18.9319 175.112 18.6343 175.121 18.3367C175.13 18.042 175.136 17.7384 175.136 17.4287H178.675V22.5216H177.854V18.1533H175.939C175.933 18.3727 175.924 18.5922 175.915 18.8147C175.906 19.0372 175.894 19.2596 175.885 19.4821C175.876 19.7046 175.864 19.9271 175.852 20.1525C175.846 20.4111 175.819 20.6997 175.774 21.0244C175.728 21.3461 175.632 21.6407 175.482 21.9053C175.341 22.1548 175.169 22.3232 174.965 22.4074C174.763 22.4915 174.469 22.5336 174.09 22.5336L174.093 22.5306Z" fill="#000064"/>
<path d="M179.971 22.5216V17.4287H180.813V19.3709H181.934C182.238 19.3709 182.508 19.3949 182.749 19.443C182.989 19.4911 183.2 19.5723 183.374 19.6895C183.549 19.8038 183.681 19.9601 183.774 20.1586C183.867 20.357 183.915 20.6065 183.915 20.9072C183.915 21.1837 183.867 21.4243 183.771 21.6257C183.675 21.8301 183.539 21.9955 183.365 22.1278C183.191 22.2601 182.983 22.3593 182.743 22.4224C182.502 22.4855 182.235 22.5186 181.946 22.5186H179.974L179.971 22.5216ZM180.813 21.8061H181.297C181.522 21.8061 181.739 21.8001 181.949 21.788C182.159 21.776 182.352 21.7429 182.523 21.6918C182.698 21.6407 182.833 21.5535 182.935 21.4363C183.037 21.319 183.086 21.1507 183.086 20.9372C183.086 20.7238 183.046 20.5734 182.965 20.4592C182.884 20.345 182.779 20.2608 182.653 20.2067C182.526 20.1525 182.385 20.1195 182.232 20.1044C182.078 20.0894 181.931 20.0834 181.784 20.0834H180.819V21.8031L180.813 21.8061Z" fill="#000064"/>
<path d="M184.986 22.5216V17.4287H185.807V19.6625H188.36V17.4287H189.18V22.5216H188.36V20.384H185.807V22.5216H184.986Z" fill="#000064"/>
<path d="M192.112 22.5785C191.88 22.5785 191.655 22.5484 191.441 22.4883C191.228 22.4281 191.032 22.3319 190.861 22.2087C190.69 22.0824 190.554 21.9261 190.455 21.7337C190.356 21.5443 190.305 21.3218 190.305 21.0722C190.305 20.7836 190.359 20.5371 190.464 20.3387C190.569 20.1402 190.714 19.9809 190.894 19.8667C191.074 19.7494 191.285 19.6682 191.522 19.6141C191.76 19.56 192.009 19.536 192.268 19.536H193.765C193.765 19.2443 193.726 18.9948 193.645 18.7813C193.564 18.5679 193.435 18.4025 193.254 18.2823C193.074 18.162 192.836 18.1019 192.539 18.1019C192.358 18.1019 192.19 18.1199 192.036 18.159C191.883 18.1981 191.751 18.2582 191.64 18.3424C191.531 18.4266 191.45 18.5408 191.399 18.6791H190.518C190.563 18.4476 190.653 18.2492 190.786 18.0838C190.918 17.9185 191.077 17.7832 191.27 17.678C191.462 17.5728 191.664 17.4916 191.883 17.4405C192.103 17.3894 192.322 17.3623 192.542 17.3623C193.032 17.3623 193.426 17.4615 193.72 17.6569C194.018 17.8554 194.234 18.132 194.37 18.4897C194.505 18.8475 194.571 19.2714 194.571 19.7614V22.5153H193.886L193.837 21.8659C193.696 22.0584 193.525 22.2087 193.326 22.3109C193.125 22.4131 192.92 22.4823 192.713 22.5183C192.505 22.5544 192.307 22.5725 192.118 22.5725L192.112 22.5785ZM192.19 21.8539C192.511 21.8539 192.791 21.7998 193.026 21.6946C193.26 21.5894 193.444 21.433 193.573 21.2256C193.702 21.0181 193.765 20.7686 193.765 20.471V20.2214H192.866C192.656 20.2214 192.445 20.2244 192.238 20.2304C192.03 20.2365 191.844 20.2635 191.679 20.3086C191.51 20.3537 191.378 20.4319 191.279 20.5401C191.18 20.6483 191.128 20.8077 191.128 21.0151C191.128 21.2075 191.18 21.3669 191.279 21.4871C191.378 21.6104 191.51 21.7006 191.676 21.7637C191.841 21.8239 192.012 21.8539 192.193 21.8539H192.19Z" fill="#000064"/>
<path d="M195.524 22.5216L196.847 20.5103C196.481 20.4081 196.189 20.2397 195.978 20.0022C195.768 19.7647 195.66 19.452 195.66 19.0612C195.66 18.7515 195.705 18.493 195.795 18.2825C195.885 18.0721 196.017 17.9067 196.192 17.7805C196.366 17.6542 196.577 17.564 196.82 17.5099C197.064 17.4558 197.346 17.4287 197.662 17.4287H199.71V22.5216H198.889V20.6366H197.719L196.481 22.5216H195.524ZM198.278 19.921H198.889V18.1533H197.797C197.605 18.1533 197.428 18.1623 197.265 18.1833C197.106 18.2014 196.968 18.2435 196.853 18.3036C196.739 18.3667 196.652 18.4509 196.586 18.5651C196.52 18.6794 196.49 18.8297 196.49 19.0251C196.49 19.2386 196.544 19.4039 196.649 19.5272C196.754 19.6505 196.892 19.7377 197.064 19.7948C197.235 19.8489 197.425 19.885 197.638 19.9C197.851 19.915 198.065 19.9241 198.275 19.9241L198.278 19.921Z" fill="#000064"/>
<path d="M135.994 33.5222V26.6886H140.645V27.4522H136.836V29.5116H138.393C138.727 29.5116 139.049 29.5387 139.355 29.5898C139.662 29.6409 139.936 29.7341 140.173 29.8694C140.411 30.0047 140.6 30.1971 140.738 30.4436C140.877 30.6901 140.946 31.0148 140.946 31.4147C140.946 31.8146 140.883 32.1392 140.753 32.4098C140.624 32.6804 140.444 32.8969 140.212 33.0622C139.981 33.2276 139.707 33.3448 139.391 33.414C139.076 33.4831 138.73 33.5192 138.357 33.5192H135.997L135.994 33.5222ZM136.836 32.7586H138.246C138.477 32.7586 138.706 32.7435 138.928 32.7105C139.151 32.6774 139.349 32.6203 139.524 32.5301C139.698 32.4429 139.836 32.3136 139.939 32.1423C140.041 31.9709 140.092 31.7484 140.092 31.4718C140.092 31.1952 140.044 30.9758 139.942 30.8134C139.842 30.6541 139.704 30.5338 139.53 30.4556C139.355 30.3775 139.163 30.3294 138.949 30.3053C138.736 30.2813 138.516 30.2723 138.291 30.2723H136.833V32.7556L136.836 32.7586Z" fill="#000064"/>
<path d="M143.757 33.5793C143.525 33.5793 143.3 33.5493 143.086 33.4891C142.873 33.429 142.678 33.3328 142.506 33.2095C142.335 33.0833 142.2 32.9269 142.1 32.7345C142.001 32.5451 141.95 32.3226 141.95 32.0731C141.95 31.7845 142.004 31.538 142.109 31.3395C142.215 31.1411 142.359 30.9818 142.539 30.8675C142.72 30.7503 142.93 30.6691 143.168 30.615C143.405 30.5609 143.655 30.5368 143.913 30.5368H145.411C145.411 30.2452 145.371 29.9957 145.29 29.7822C145.209 29.5687 145.08 29.4034 144.899 29.2831C144.719 29.1629 144.482 29.1027 144.184 29.1027C144.003 29.1027 143.835 29.1208 143.682 29.1599C143.528 29.199 143.396 29.2591 143.285 29.3433C143.177 29.4274 143.095 29.5417 143.044 29.68H142.163C142.209 29.4485 142.299 29.2501 142.431 29.0847C142.563 28.9194 142.723 28.7841 142.915 28.6788C143.108 28.5736 143.309 28.4924 143.528 28.4413C143.748 28.3902 143.967 28.3632 144.187 28.3632C144.677 28.3632 145.071 28.4624 145.365 28.6578C145.663 28.8562 145.88 29.1328 146.015 29.4906C146.15 29.8483 146.216 30.2723 146.216 30.7623V33.5162H145.531L145.483 32.8668C145.341 33.0592 145.17 33.2095 144.972 33.3118C144.77 33.414 144.566 33.4831 144.358 33.5192C144.151 33.5553 143.952 33.5733 143.763 33.5733L143.757 33.5793ZM143.835 32.8548C144.157 32.8548 144.436 32.8007 144.671 32.6954C144.905 32.5902 145.089 32.4339 145.218 32.2264C145.347 32.019 145.411 31.7695 145.411 31.4718V31.2223H144.512C144.301 31.2223 144.091 31.2253 143.883 31.2313C143.676 31.2373 143.489 31.2644 143.324 31.3095C143.156 31.3546 143.023 31.4327 142.924 31.541C142.825 31.6492 142.774 31.8085 142.774 32.016C142.774 32.2084 142.825 32.3677 142.924 32.488C143.023 32.6113 143.156 32.7015 143.321 32.7646C143.486 32.8247 143.658 32.8548 143.838 32.8548H143.835Z" fill="#000064"/>
<path d="M149.665 33.5793C149.13 33.5793 148.685 33.4681 148.336 33.2456C147.987 33.0231 147.726 32.7165 147.554 32.3226C147.383 31.9288 147.299 31.4838 147.299 30.9878C147.299 30.4917 147.386 30.0648 147.563 29.668C147.741 29.2711 148.011 28.9554 148.375 28.7209C148.739 28.4864 149.202 28.3692 149.764 28.3692C150.113 28.3692 150.422 28.4263 150.696 28.5436C150.97 28.6608 151.198 28.8292 151.379 29.0516C151.559 29.2741 151.685 29.5537 151.754 29.8874H150.913C150.816 29.6048 150.663 29.4034 150.453 29.2831C150.242 29.1629 149.996 29.1027 149.713 29.1027C149.325 29.1027 149.018 29.1929 148.784 29.3733C148.552 29.5537 148.381 29.7882 148.276 30.0738C148.171 30.3594 148.116 30.6661 148.116 30.9878C148.116 31.3095 148.171 31.6312 148.282 31.9168C148.393 32.2024 148.561 32.4279 148.793 32.5992C149.024 32.7706 149.325 32.8548 149.692 32.8548C149.962 32.8548 150.218 32.7977 150.462 32.6804C150.705 32.5632 150.861 32.3587 150.94 32.0611H151.79C151.727 32.4098 151.589 32.6954 151.379 32.9209C151.168 33.1464 150.916 33.3118 150.615 33.42C150.314 33.5252 149.999 33.5793 149.665 33.5793Z" fill="#000064"/>
<path d="M155.106 33.5793C154.571 33.5793 154.126 33.4681 153.778 33.2456C153.429 33.0231 153.167 32.7164 152.996 32.3226C152.824 31.9288 152.74 31.4838 152.74 30.9877C152.74 30.4917 152.827 30.0648 153.005 29.6679C153.182 29.2711 153.453 28.9554 153.817 28.7209C154.18 28.4864 154.643 28.3691 155.206 28.3691C155.554 28.3691 155.864 28.4263 156.138 28.5435C156.411 28.6608 156.64 28.8291 156.82 29.0516C157.001 29.2741 157.127 29.5537 157.196 29.8874H156.354C156.258 29.6048 156.105 29.4034 155.894 29.2831C155.684 29.1628 155.437 29.1027 155.155 29.1027C154.767 29.1027 154.46 29.1929 154.225 29.3733C153.994 29.5537 153.823 29.7882 153.717 30.0738C153.612 30.3594 153.558 30.6661 153.558 30.9877C153.558 31.3094 153.612 31.6311 153.723 31.9167C153.835 32.2023 154.003 32.4278 154.234 32.5992C154.466 32.7706 154.767 32.8547 155.133 32.8547C155.404 32.8547 155.66 32.7976 155.903 32.6804C156.147 32.5631 156.303 32.3587 156.381 32.061H157.232C157.169 32.4098 157.031 32.6954 156.82 32.9209C156.61 33.1464 156.357 33.3117 156.056 33.42C155.756 33.5252 155.44 33.5793 155.106 33.5793Z" fill="#000064"/>
<path d="M160.483 33.5793C159.941 33.5793 159.493 33.4681 159.139 33.2456C158.784 33.0231 158.519 32.7165 158.345 32.3226C158.17 31.9288 158.083 31.4808 158.083 30.9788C158.083 30.4767 158.173 30.0197 158.36 29.6319C158.546 29.2441 158.814 28.9344 159.166 28.7089C159.52 28.4834 159.956 28.3722 160.47 28.3722C160.849 28.3722 161.183 28.4443 161.472 28.5886C161.757 28.733 161.998 28.9284 162.187 29.1719C162.377 29.4154 162.515 29.689 162.602 29.9927C162.689 30.2963 162.725 30.609 162.713 30.9307C162.707 30.9878 162.704 31.0479 162.704 31.105C162.704 31.1622 162.701 31.2223 162.695 31.2794H158.916C158.943 31.577 159.015 31.8446 159.139 32.0821C159.262 32.3196 159.433 32.509 159.662 32.6473C159.89 32.7856 160.167 32.8548 160.504 32.8548C160.672 32.8548 160.84 32.8337 161.012 32.7916C161.183 32.7496 161.336 32.6774 161.475 32.5752C161.613 32.473 161.712 32.3347 161.769 32.1603H162.611C162.533 32.488 162.389 32.7586 162.175 32.966C161.962 33.1765 161.709 33.3298 161.412 33.429C161.117 33.5282 160.804 33.5793 160.483 33.5793ZM158.937 30.5639H161.887C161.881 30.2753 161.814 30.0197 161.694 29.8002C161.571 29.5808 161.406 29.4094 161.195 29.2891C160.985 29.1659 160.738 29.1058 160.446 29.1058C160.131 29.1058 159.863 29.1719 159.65 29.3072C159.433 29.4425 159.268 29.6199 159.151 29.8393C159.033 30.0588 158.964 30.2993 158.937 30.5639Z" fill="#000064"/>
<path d="M163.816 33.5219V28.429H164.637V32.3343C164.682 32.2441 164.742 32.1449 164.821 32.0397C164.899 31.9345 164.959 31.8503 165.004 31.7932L167.469 28.429H168.281V33.5219H167.46V29.6165C167.409 29.7127 167.352 29.8029 167.292 29.8871C167.229 29.9713 167.175 30.0464 167.124 30.1186L164.619 33.5219H163.816ZM166.116 27.7134C165.608 27.7134 165.208 27.6052 164.923 27.3857C164.637 27.1663 164.487 26.8476 164.475 26.4297H165.229C165.242 26.6552 165.329 26.8205 165.485 26.9227C165.641 27.025 165.858 27.0791 166.128 27.0791C166.399 27.0791 166.613 27.028 166.772 26.9227C166.931 26.8205 167.015 26.6552 167.027 26.4297H167.782C167.776 26.7063 167.704 26.9438 167.569 27.1362C167.433 27.3286 167.244 27.4729 166.997 27.5721C166.754 27.6683 166.459 27.7164 166.116 27.7164V27.7134Z" fill="#000064"/>
<path d="M169.577 33.5226V28.4297H170.398V30.6635H172.951V28.4297H173.771V33.5226H172.951V31.385H170.398V33.5226H169.577Z" fill="#000064"/>
<path d="M177.292 33.5793C176.757 33.5793 176.309 33.4681 175.948 33.2456C175.587 33.0231 175.317 32.7165 175.143 32.3226C174.968 31.9288 174.878 31.4808 174.878 30.9788C174.878 30.4767 174.965 30.0197 175.143 29.6319C175.32 29.2441 175.59 28.9344 175.948 28.7089C176.309 28.4834 176.763 28.3722 177.313 28.3722C177.863 28.3722 178.293 28.4864 178.651 28.7089C179.009 28.9344 179.277 29.241 179.454 29.6319C179.631 30.0227 179.718 30.4707 179.718 30.9788C179.718 31.4868 179.628 31.9288 179.448 32.3226C179.268 32.7165 179 33.0231 178.642 33.2456C178.284 33.4681 177.836 33.5793 177.292 33.5793ZM177.292 32.8548C177.665 32.8548 177.972 32.7706 178.206 32.6022C178.441 32.4339 178.615 32.2084 178.729 31.9258C178.844 31.6432 178.898 31.3275 178.898 30.9788C178.898 30.63 178.841 30.3143 178.729 30.0317C178.615 29.7491 178.444 29.5237 178.206 29.3553C177.969 29.1869 177.665 29.1027 177.292 29.1027C176.919 29.1027 176.625 29.1869 176.387 29.3553C176.15 29.5237 175.978 29.7491 175.864 30.0317C175.75 30.3143 175.696 30.63 175.696 30.9788C175.696 31.3275 175.753 31.6432 175.864 31.9258C175.975 32.2084 176.15 32.4339 176.387 32.6022C176.622 32.7706 176.925 32.8548 177.292 32.8548Z" fill="#000064"/>
<path d="M180.819 33.5226V28.4297H182.791C183.016 28.4297 183.242 28.4447 183.461 28.4748C183.684 28.5048 183.888 28.562 184.072 28.6492C184.255 28.7363 184.402 28.8626 184.517 29.031C184.631 29.1993 184.685 29.4218 184.685 29.6984C184.685 29.8668 184.658 30.0201 184.607 30.1584C184.556 30.2967 184.478 30.4169 184.378 30.5222C184.279 30.6274 184.15 30.7146 183.996 30.7927C184.345 30.8709 184.595 31.0212 184.751 31.2467C184.907 31.4722 184.983 31.7308 184.983 32.0194C184.983 32.2779 184.934 32.5004 184.841 32.6898C184.748 32.8792 184.619 33.0355 184.453 33.1588C184.288 33.2821 184.099 33.3723 183.882 33.4354C183.666 33.4955 183.437 33.5256 183.191 33.5256H180.812L180.819 33.5226ZM181.66 30.6033H182.364C182.493 30.6033 182.643 30.5973 182.815 30.5853C182.986 30.5733 183.152 30.5402 183.317 30.4921C183.482 30.444 183.618 30.3688 183.723 30.2666C183.828 30.1644 183.882 30.0231 183.882 29.8397C183.882 29.6022 183.816 29.4368 183.684 29.3406C183.551 29.2474 183.395 29.1933 183.215 29.1753C183.034 29.1602 182.866 29.1512 182.713 29.1512H181.66V30.6003V30.6033ZM181.66 32.8071H183.004C183.203 32.8071 183.392 32.789 183.563 32.7499C183.735 32.7108 183.879 32.6387 183.99 32.5335C184.102 32.4282 184.156 32.2749 184.156 32.0735C184.156 31.8721 184.111 31.7127 184.014 31.6045C183.921 31.4993 183.804 31.4241 183.657 31.382C183.509 31.3399 183.356 31.3159 183.188 31.3099C183.019 31.3038 182.863 31.3008 182.716 31.3008H181.663V32.8101L181.66 32.8071Z" fill="#000064"/>
<path d="M187.74 33.5794C187.508 33.5794 187.283 33.5494 187.069 33.4893C186.856 33.4291 186.66 33.3329 186.489 33.2097C186.317 33.0834 186.182 32.927 186.083 32.7346C185.984 32.5452 185.933 32.3228 185.933 32.0732C185.933 31.7846 185.987 31.5381 186.092 31.3397C186.197 31.1412 186.342 30.9819 186.522 30.8676C186.702 30.7504 186.913 30.6692 187.15 30.6151C187.388 30.561 187.637 30.5369 187.896 30.5369H189.393C189.393 30.2453 189.354 29.9958 189.273 29.7823C189.192 29.5689 189.062 29.4035 188.882 29.2832C188.702 29.163 188.464 29.1029 188.166 29.1029C187.986 29.1029 187.818 29.1209 187.664 29.16C187.511 29.1991 187.379 29.2592 187.268 29.3434C187.159 29.4276 187.078 29.5418 187.027 29.6801H186.146C186.191 29.4486 186.281 29.2502 186.414 29.0848C186.546 28.9195 186.705 28.7842 186.898 28.679C187.09 28.5737 187.292 28.4926 187.511 28.4414C187.731 28.3903 187.95 28.3633 188.17 28.3633C188.66 28.3633 189.053 28.4625 189.348 28.6579C189.646 28.8563 189.862 29.1329 189.998 29.4907C190.133 29.8485 190.199 30.2724 190.199 30.7624V33.5163H189.513L189.465 32.8669C189.324 33.0593 189.153 33.2097 188.954 33.3119C188.753 33.4141 188.548 33.4832 188.341 33.5193C188.133 33.5554 187.935 33.5734 187.746 33.5734L187.74 33.5794ZM187.818 32.8549C188.139 32.8549 188.419 32.8008 188.654 32.6956C188.888 32.5903 189.071 32.434 189.201 32.2265C189.33 32.0191 189.393 31.7696 189.393 31.4719V31.2224H188.494C188.284 31.2224 188.073 31.2254 187.866 31.2314C187.658 31.2374 187.472 31.2645 187.307 31.3096C187.138 31.3547 187.006 31.4328 186.907 31.5411C186.808 31.6493 186.756 31.8087 186.756 32.0161C186.756 32.2085 186.808 32.3679 186.907 32.4881C187.006 32.6114 187.138 32.7016 187.304 32.7647C187.469 32.8248 187.64 32.8549 187.821 32.8549H187.818Z" fill="#000064"/>
<path d="M191.152 33.5226L192.475 31.5113C192.108 31.4091 191.817 31.2407 191.606 31.0032C191.396 30.7657 191.288 30.453 191.288 30.0622C191.288 29.7525 191.333 29.494 191.423 29.2835C191.513 29.0731 191.645 28.9077 191.82 28.7814C191.994 28.6552 192.205 28.565 192.448 28.5109C192.692 28.4567 192.974 28.4297 193.29 28.4297H195.337V33.5226H194.517V31.6376H193.347L192.108 33.5226H191.152ZM193.906 30.922H194.517V29.1542H193.425C193.233 29.1542 193.055 29.1633 192.893 29.1843C192.734 29.2023 192.595 29.2444 192.481 29.3046C192.367 29.3677 192.28 29.4519 192.214 29.5661C192.148 29.6804 192.117 29.8307 192.117 30.0261C192.117 30.2396 192.172 30.4049 192.277 30.5282C192.382 30.6514 192.52 30.7386 192.692 30.7957C192.863 30.8499 193.052 30.8859 193.266 30.901C193.479 30.916 193.693 30.925 193.903 30.925L193.906 30.922Z" fill="#000064"/>
<path d="M135.994 44.5201V37.6865H136.836V40.8373H137.852L140.077 37.6865H141.042L138.586 41.0778L141.06 44.5201H140.065L137.918 41.6009H136.836V44.5201H135.994Z" fill="#000064"/>
<path d="M143.874 44.5802C143.339 44.5802 142.891 44.4689 142.53 44.2465C142.17 44.024 141.899 43.7173 141.725 43.3235C141.55 42.9297 141.46 42.4817 141.46 41.9796C141.46 41.4776 141.547 41.0206 141.725 40.6327C141.902 40.2449 142.173 39.9352 142.53 39.7098C142.891 39.4843 143.345 39.373 143.895 39.373C144.445 39.373 144.875 39.4873 145.233 39.7098C145.591 39.9352 145.859 40.2419 146.036 40.6327C146.213 41.0236 146.301 41.4715 146.301 41.9796C146.301 42.4877 146.21 42.9297 146.03 43.3235C145.85 43.7173 145.582 44.024 145.224 44.2465C144.866 44.4689 144.418 44.5802 143.874 44.5802ZM143.874 43.8556C144.247 43.8556 144.554 43.7715 144.788 43.6031C145.023 43.4347 145.197 43.2093 145.311 42.9266C145.426 42.644 145.48 42.3284 145.48 41.9796C145.48 41.6309 145.423 41.3152 145.311 41.0326C145.197 40.75 145.026 40.5245 144.788 40.3562C144.551 40.1878 144.247 40.1036 143.874 40.1036C143.501 40.1036 143.207 40.1878 142.969 40.3562C142.732 40.5245 142.56 40.75 142.446 41.0326C142.332 41.3152 142.278 41.6309 142.278 41.9796C142.278 42.3284 142.335 42.644 142.446 42.9266C142.557 43.2093 142.732 43.4347 142.969 43.6031C143.204 43.7715 143.507 43.8556 143.874 43.8556Z" fill="#000064"/>
<path d="M147.401 44.5197V39.4268H148.502L150.155 41.9792L151.779 39.4268H152.861V44.5197H152.05V40.3347L150.252 43.2149H150.02L148.213 40.3347V44.5197H147.401Z" fill="#000064"/>
<path d="M154.16 44.5197V39.4268H158.384V44.5197H157.564V40.1513H154.981V44.5197H154.16Z" fill="#000064"/>
<path d="M161.312 44.5794C161.08 44.5794 160.855 44.5494 160.641 44.4893C160.428 44.4291 160.232 44.3329 160.061 44.2097C159.89 44.0834 159.754 43.927 159.655 43.7346C159.556 43.5452 159.505 43.3228 159.505 43.0732C159.505 42.7846 159.559 42.5381 159.664 42.3396C159.769 42.1412 159.914 41.9819 160.094 41.8676C160.275 41.7504 160.485 41.6692 160.723 41.6151C160.96 41.561 161.21 41.5369 161.468 41.5369H162.965C162.965 41.2453 162.926 40.9958 162.845 40.7823C162.764 40.5689 162.635 40.4035 162.454 40.2832C162.274 40.163 162.036 40.1029 161.739 40.1029C161.558 40.1029 161.39 40.1209 161.237 40.16C161.083 40.1991 160.951 40.2592 160.84 40.3434C160.732 40.4276 160.65 40.5418 160.599 40.6801H159.718C159.763 40.4486 159.854 40.2502 159.986 40.0848C160.118 39.9195 160.278 39.7842 160.47 39.679C160.662 39.5737 160.864 39.4926 161.083 39.4414C161.303 39.3903 161.522 39.3633 161.742 39.3633C162.232 39.3633 162.626 39.4625 162.92 39.6579C163.218 39.8563 163.434 40.1329 163.57 40.4907C163.705 40.8485 163.771 41.2724 163.771 41.7624V44.5163H163.086L163.038 43.8669C162.896 44.0593 162.725 44.2097 162.526 44.3119C162.325 44.4141 162.121 44.4832 161.913 44.5193C161.706 44.5554 161.507 44.5734 161.318 44.5734L161.312 44.5794ZM161.39 43.8549C161.712 43.8549 161.991 43.8008 162.226 43.6955C162.46 43.5903 162.644 43.434 162.773 43.2265C162.902 43.0191 162.965 42.7696 162.965 42.4719V42.2224H162.066C161.856 42.2224 161.646 42.2254 161.438 42.2314C161.231 42.2374 161.044 42.2645 160.879 42.3096C160.711 42.3547 160.578 42.4328 160.479 42.5411C160.38 42.6493 160.329 42.8087 160.329 43.0161C160.329 43.2085 160.38 43.3679 160.479 43.4881C160.578 43.6114 160.711 43.7016 160.876 43.7647C161.041 43.8248 161.213 43.8549 161.393 43.8549H161.39Z" fill="#000064"/>
<path d="M165.043 44.5197V39.4268H165.864V41.6605H168.416V39.4268H169.237V44.5197H168.416V42.3821H165.864V44.5197H165.043Z" fill="#000064"/>
<path d="M170.536 44.5197V39.4268H171.357V43.3321C171.402 43.2419 171.462 43.1427 171.54 43.0375C171.618 42.9323 171.679 42.8481 171.724 42.791L174.189 39.4268H175.001V44.5197H174.18V40.6143C174.129 40.7105 174.072 40.8007 174.012 40.8849C173.949 40.9691 173.894 41.0442 173.843 41.1164L171.339 44.5197H170.536Z" fill="#000064"/>
<path d="M175.978 44.5197L177.301 42.5084C176.934 42.4062 176.643 42.2379 176.432 42.0003C176.222 41.7628 176.114 41.4502 176.114 41.0593C176.114 40.7497 176.159 40.4911 176.249 40.2807C176.339 40.0702 176.471 39.9049 176.646 39.7786C176.82 39.6523 177.031 39.5621 177.274 39.508C177.518 39.4539 177.8 39.4268 178.116 39.4268H180.163V44.5197H179.343V42.6347H178.173L176.934 44.5197H175.978ZM178.732 41.9192H179.343V40.1514H178.251C178.059 40.1514 177.881 40.1604 177.719 40.1815C177.56 40.1995 177.421 40.2416 177.307 40.3017C177.193 40.3649 177.106 40.449 177.04 40.5633C176.974 40.6775 176.943 40.8278 176.943 41.0233C176.943 41.2367 176.998 41.4021 177.103 41.5253C177.208 41.6486 177.346 41.7358 177.518 41.7929C177.689 41.847 177.878 41.8831 178.092 41.8981C178.305 41.9132 178.519 41.9222 178.729 41.9222L178.732 41.9192Z" fill="#000064"/>
</g>
<defs>
<clipPath id="clip0_1_280">
<rect width="199.275" height="50" fill="white" transform="translate(0.433594 0.5)"/>
</clipPath>
</defs>
</svg>
