<svg width="125" height="51" viewBox="0 0 125 51" fill="none" xmlns="http://www.w3.org/2000/svg">
<path fill-rule="evenodd" clip-rule="evenodd" d="M25.4332 0.5H124.707V25.4985C124.707 39.2469 113.457 50.497 99.7075 50.497H0.433594V25.4985C0.433594 11.7501 11.6842 0.5 25.4332 0.5Z" fill="#000064"/>
<path d="M33.9415 34.8727C32.7178 34.8727 31.6324 34.6924 30.6854 34.3346C29.7353 33.9768 28.9085 33.4748 28.2019 32.8314C27.4954 32.188 26.9151 31.4304 26.4611 30.5555C26.0071 29.6806 25.6704 28.7276 25.4479 27.6934C25.2254 26.6592 25.1172 25.5859 25.1172 24.4675C25.1172 22.8861 25.2164 21.4641 25.4178 20.1983C25.6193 18.9326 25.935 17.8172 26.3679 16.8462C26.8009 15.8751 27.3902 15.0423 28.1388 14.3478C28.8874 13.6533 29.8104 13.0941 30.9048 12.6702C31.7046 12.3125 32.5855 12.0479 33.5446 11.8795C34.5037 11.7112 35.553 11.5518 36.6925 11.4045C37.853 11.2783 38.7369 11.173 39.3503 11.0888C39.9606 11.0047 40.4296 10.9295 40.7574 10.8664C41.0851 10.8032 41.3737 10.7491 41.6263 10.707V15.9262C41.4368 15.9683 41.2324 16.0104 41.0099 16.0525C40.7874 16.0946 40.5499 16.1306 40.2974 16.1637C40.0448 16.1968 39.7802 16.2208 39.5066 16.2419C39.233 16.2629 38.9624 16.278 38.7009 16.29C38.4363 16.299 38.1777 16.317 37.9252 16.3381C36.9751 16.4223 36.016 16.5185 35.0479 16.6237C34.0768 16.7289 33.2019 16.9183 32.4232 17.1919C31.6414 17.4655 31.0221 17.8984 30.5561 18.4877C30.4087 18.6771 30.2614 18.9296 30.1141 19.2453C29.9668 19.561 29.8465 19.9037 29.7503 20.2735C29.6541 20.6433 29.609 21.0582 29.609 21.5242C30.1141 20.7666 30.7064 20.1863 31.3799 19.7835C32.0533 19.3836 32.7449 19.104 33.4514 18.9447C34.1579 18.7853 34.7953 18.7072 35.3636 18.7072C36.924 18.7072 38.2318 19.0559 39.2841 19.7504C40.3394 20.4449 41.1332 21.3799 41.6714 22.5494C42.2095 23.7189 42.4771 25.0327 42.4771 26.4878C42.4771 28.1955 42.1193 29.6776 41.4008 30.9313C40.6852 32.185 39.687 33.1561 38.4122 33.8415C37.1374 34.527 35.6462 34.8697 33.9385 34.8697L33.9415 34.8727ZM33.9415 30.4142C34.7412 30.4142 35.4057 30.2338 35.9348 29.8761C36.461 29.5183 36.8518 29.0643 37.1044 28.5171C37.3569 27.97 37.4832 27.3988 37.4832 26.8095C37.4832 26.2202 37.3569 25.634 37.1044 25.1169C36.8518 24.5998 36.467 24.1728 35.9499 23.8361C35.4327 23.4994 34.7863 23.331 34.0046 23.331C33.2229 23.331 32.5975 23.4934 32.0594 23.8211C31.5212 24.1488 31.1093 24.5757 30.8267 25.1018C30.541 25.628 30.3997 26.1992 30.3997 26.8095C30.3997 27.4198 30.526 27.97 30.7786 28.5171C31.0311 29.0643 31.422 29.5183 31.9481 29.8761C32.4743 30.2338 33.1387 30.4142 33.9415 30.4142ZM52.949 34.8727C51.2623 34.8727 49.8071 34.53 48.5835 33.8445C47.3598 33.1591 46.4157 32.173 45.7543 30.8862C45.0898 29.5995 44.7591 28.0812 44.7591 26.3315C44.7591 24.5817 45.1019 22.9943 45.7873 21.6986C46.4728 20.4028 47.438 19.4016 48.6827 18.6951C49.9274 17.9886 51.4036 17.6369 53.1113 17.6369C54.5244 17.6369 55.7842 17.8954 56.8906 18.4125C57.997 18.9296 58.884 19.6722 59.5484 20.6433C60.2129 21.6144 60.5857 22.8049 60.6699 24.2179H55.7992C55.6309 23.5445 55.3092 23.0424 54.8341 22.7147C54.3591 22.387 53.7758 22.2247 53.0783 22.2247C52.1943 22.2247 51.5119 22.4411 51.0398 22.8741C50.5648 23.307 50.228 23.8391 50.0266 24.4705C49.8252 25.1018 49.726 25.7151 49.726 26.3044C49.726 26.9779 49.8372 27.6272 50.0567 28.2496C50.2792 28.8719 50.6369 29.371 51.133 29.7528C51.6291 30.1316 52.2665 30.321 53.0452 30.321C53.7608 30.321 54.3681 30.1526 54.8642 29.8159C55.3603 29.4792 55.682 28.9831 55.8293 28.3307H60.8262C60.7631 29.7648 60.3692 30.9674 59.6416 31.9355C58.914 32.9065 57.97 33.6371 56.8124 34.1332C55.6519 34.6292 54.3681 34.8758 52.955 34.8758L52.949 34.8727ZM71.9234 34.8727C70.6998 34.8727 69.6144 34.6924 68.6673 34.3346C67.7173 33.9768 66.8904 33.4748 66.1839 32.8314C65.4774 32.188 64.8971 31.4304 64.4431 30.5555C63.9891 29.6806 63.6524 28.7276 63.4299 27.6934C63.2074 26.6592 63.0992 25.5859 63.0992 24.4675C63.0992 22.8861 63.1984 21.4641 63.3998 20.1983C63.6013 18.9326 63.917 17.8172 64.3499 16.8462C64.7828 15.8751 65.3721 15.0423 66.1208 14.3478C66.8694 13.6533 67.7924 13.0941 68.8868 12.6702C69.6866 12.3125 70.5675 12.0479 71.5266 11.8795C72.4857 11.7112 73.535 11.5518 74.6745 11.4045C75.835 11.2783 76.7189 11.173 77.3323 11.0888C77.9426 11.0047 78.4116 10.9295 78.7393 10.8664C79.0671 10.8032 79.3557 10.7491 79.6082 10.707V15.9262C79.4188 15.9683 79.2144 16.0104 78.9919 16.0525C78.7694 16.0946 78.5319 16.1306 78.2793 16.1637C78.0268 16.1968 77.7622 16.2208 77.4886 16.2419C77.215 16.2629 76.9444 16.278 76.6828 16.29C76.4183 16.299 76.1597 16.317 75.9071 16.3381C74.9571 16.4223 73.998 16.5185 73.0299 16.6237C72.0587 16.7289 71.1838 16.9183 70.4051 17.1919C69.6264 17.4655 69.0041 17.8984 68.5381 18.4877C68.3907 18.6771 68.2434 18.9296 68.0961 19.2453C67.9488 19.561 67.8285 19.9037 67.7323 20.2735C67.6361 20.6433 67.591 21.0582 67.591 21.5242C68.0961 20.7666 68.6884 20.1863 69.3619 19.7835C70.0353 19.3836 70.7268 19.104 71.4334 18.9447C72.1399 18.7853 72.7773 18.7072 73.3456 18.7072C74.906 18.7072 76.2138 19.0559 77.2661 19.7504C78.3214 20.4449 79.1152 21.3799 79.6533 22.5494C80.1915 23.7189 80.4591 25.0327 80.4591 26.4878C80.4591 28.1955 80.1013 29.6776 79.3827 30.9313C78.6672 32.185 77.669 33.1561 76.3942 33.8415C75.1194 34.527 73.6282 34.8697 71.9204 34.8697L71.9234 34.8727ZM71.9234 30.4142C72.7232 30.4142 73.3876 30.2338 73.9168 29.8761C74.443 29.5183 74.8338 29.0643 75.0864 28.5171C75.3389 27.97 75.4652 27.3988 75.4652 26.8095C75.4652 26.2202 75.3389 25.634 75.0864 25.1169C74.8338 24.5998 74.449 24.1728 73.9318 23.8361C73.4147 23.4994 72.7683 23.331 71.9866 23.331C71.2049 23.331 70.5795 23.4934 70.0413 23.8211C69.5032 24.1488 69.0913 24.5757 68.8086 25.1018C68.523 25.628 68.3817 26.1992 68.3817 26.8095C68.3817 27.4198 68.508 27.97 68.7605 28.5171C69.0131 29.0643 69.4039 29.5183 69.9301 29.8761C70.4562 30.2338 71.1207 30.4142 71.9234 30.4142ZM83.0568 34.6202V17.9525H88.0868V24.0887H90.489L94.2532 17.9525H99.8815L94.7884 25.7633L99.7853 34.6172H94.0307L90.7085 28.5773H88.0838V34.6172H83.0538L83.0568 34.6202Z" fill="white"/>
</svg>
