<svg width="26" height="26" viewBox="0 0 26 26" fill="none" xmlns="http://www.w3.org/2000/svg">
<path d="M13 26C12.9236 26 12.8345 25.9741 12.7708 25.9224C12.2488 25.4959 0 15.3877 0 7.15376C0 3.54738 1.82076 0.884603 4.762 0.173668C7.85602 -0.56312 11.1538 1.09142 12.9873 4.24539C14.999 0.651933 18.5642 -0.369228 21.1616 0.225372C24.7267 1.05264 26 4.34879 26 7.15376C26 10.6309 23.8482 14.8448 19.5828 19.6921C16.4378 23.2726 13.2547 25.8966 13.2165 25.9224C13.1528 25.9741 13.0764 26 12.9873 26H13ZM6.28992 0.716564C5.84427 0.716564 5.3859 0.768268 4.92753 0.884603C2.29187 1.51798 0.725759 3.8576 0.725759 7.15376C0.725759 14.4311 11.3066 23.725 13 25.1598C14.6934 23.725 25.2742 14.4441 25.2742 7.15376C25.2742 3.88346 23.6827 1.55676 20.9961 0.936307C18.526 0.367559 15.0754 1.45335 13.3183 5.17607C13.2547 5.30533 13.1273 5.38288 13 5.38288C12.8727 5.38288 12.7326 5.30533 12.669 5.17607C11.5358 2.87522 9.15475 0.716564 6.28992 0.716564Z" fill="white"/>
</svg>
