<svg width="24" height="29" viewBox="0 0 24 29" fill="none" xmlns="http://www.w3.org/2000/svg">
<path d="M12.5632 27.923H0.801011V22.344C0.801011 17.7909 4.51096 14.095 9.05003 14.095C12.1838 14.095 15.0084 15.8375 16.4278 18.6341C16.5261 18.8308 16.765 18.9151 16.9618 18.8167C17.1585 18.7184 17.2428 18.4795 17.1445 18.2827C15.964 15.9359 13.8842 14.2777 11.425 13.6172C14.0528 12.5913 15.9359 10.0337 15.9359 7.05453C15.9359 3.16189 12.774 0 8.88139 0C4.98876 0 1.82687 3.16189 1.82687 7.05453C1.82687 10.104 3.78021 12.6897 6.49241 13.6734C2.7403 14.7836 0 18.2546 0 22.3581V28.3305C0 28.5554 0.182687 28.724 0.393479 28.724H12.5492C12.774 28.724 12.9427 28.5413 12.9427 28.3305C12.9427 28.1197 12.76 27.937 12.5492 27.937L12.5632 27.923ZM2.64193 7.04047C2.64193 3.59753 5.4525 0.78696 8.89544 0.78696C12.3384 0.78696 15.149 3.59753 15.149 7.04047C15.149 10.4834 12.3384 13.294 8.89544 13.294C5.4525 13.294 2.64193 10.4834 2.64193 7.04047Z" fill="white"/>
<path d="M22.9902 20.4181C22.8216 20.2776 22.5686 20.2916 22.4281 20.4602L16.2308 27.5991L14.5585 24.6199C14.4461 24.4231 14.2072 24.3529 14.0105 24.4653C13.8137 24.5777 13.7575 24.8166 13.8559 25.0134L15.8092 28.4985C15.8795 28.6109 15.9919 28.6811 16.1184 28.6952C16.1184 28.6952 16.1465 28.6952 16.1605 28.6952C16.273 28.6952 16.3854 28.639 16.4557 28.5547L23.0324 20.9942C23.1729 20.8256 23.1589 20.5727 22.9902 20.4321V20.4181Z" fill="white"/>
</svg>
