<svg width="28" height="28" viewBox="0 0 28 28" fill="none" xmlns="http://www.w3.org/2000/svg">
<path d="M14 28C6.28483 28 0 21.7152 0 14C0 6.28482 6.28483 0 14 0C21.7152 0 28 6.28482 28 14C28 21.7152 21.7152 28 14 28ZM14 1.23529C6.95665 1.23529 1.23529 6.95665 1.23529 14C1.23529 21.0433 6.95665 26.7647 14 26.7647C21.0433 26.7647 26.7647 21.0433 26.7647 14C26.7647 6.95665 21.0433 1.23529 14 1.23529Z" fill="white"/>
<path d="M13.9773 6.17631C13.6305 6.17631 13.3705 5.89458 13.3705 5.5695V0.693342C13.3705 0.346593 13.6522 0.0865253 13.9773 0.0865253C14.3024 0.0865253 14.5841 0.368265 14.5841 0.693342V5.5695C14.5841 5.91625 14.3024 6.17631 13.9773 6.17631Z" fill="white"/>
<path d="M13.9773 27.9566C13.6305 27.9566 13.3705 27.6749 13.3705 27.3498V22.4736C13.3705 22.1269 13.6522 21.8668 13.9773 21.8668C14.3024 21.8668 14.5841 22.1486 14.5841 22.4736V27.3498C14.5841 27.6966 14.3024 27.9566 13.9773 27.9566Z" fill="white"/>
<path d="M13.9773 14.5632C13.6305 14.5632 13.3705 14.2815 13.3705 13.9564V9.08027C13.3705 8.73352 13.6522 8.47346 13.9773 8.47346C14.3024 8.47346 14.5841 8.75519 14.5841 9.08027V13.9564C14.5841 14.3032 14.3024 14.5632 13.9773 14.5632Z" fill="white"/>
<path d="M14.4104 14.39C14.172 14.6284 13.782 14.6284 13.5436 14.39L10.0977 10.9442C9.85936 10.7058 9.85936 10.3157 10.0977 10.0773C10.3361 9.8389 10.7262 9.8389 10.9646 10.0773L14.4104 13.5231C14.6488 13.7615 14.6488 14.1516 14.4104 14.39Z" fill="white"/>
<path d="M27.2629 14.8447H22.3868C22.04 14.8447 21.78 14.563 21.78 14.2379C21.78 13.9129 22.0617 13.6311 22.3868 13.6311H27.2629C27.6097 13.6311 27.8697 13.9129 27.8697 14.2379C27.8697 14.563 27.588 14.8447 27.2629 14.8447Z" fill="white"/>
<path d="M5.50415 14.8447H0.627985C0.281236 14.8447 0.021175 14.563 0.021175 14.2379C0.021175 13.9129 0.302908 13.6311 0.627985 13.6311H5.50415C5.8509 13.6311 6.11096 13.9129 6.11096 14.2379C6.11096 14.563 5.82922 14.8447 5.50415 14.8447Z" fill="white"/>
</svg>
