<svg width="30" height="32" viewBox="0 0 30 32" fill="none" xmlns="http://www.w3.org/2000/svg">
<path d="M19.6807 6.51929C19.5408 6.51929 19.4009 6.44896 19.3309 6.30832L16.7562 1.63895C16.7003 1.52644 16.6863 1.39986 16.7562 1.27328C16.8122 1.16076 16.9102 1.07638 17.0361 1.04825L22.2414 0.0074854C22.4513 -0.0347077 22.6611 0.105936 22.7031 0.316902C22.7451 0.527867 22.6052 0.738832 22.3953 0.781026L17.7217 1.72334L20.0305 5.91452C20.1425 6.11142 20.0725 6.35051 19.8766 6.46303C19.8206 6.49116 19.7507 6.51929 19.6807 6.51929Z" fill="white"/>
<path d="M7.05928 31.3426C6.87737 31.3426 6.70946 31.2161 6.66748 31.0192C6.6255 30.8082 6.76543 30.5972 6.97532 30.555L11.6489 29.6127L9.34008 25.4215C9.22814 25.2246 9.29811 24.9855 9.494 24.873C9.6899 24.7605 9.92778 24.8308 10.0397 25.0277L12.6144 29.6971C12.6703 29.8096 12.6843 29.9362 12.6144 30.0628C12.5584 30.1753 12.4605 30.2597 12.3345 30.2878L7.12924 31.3286C7.12924 31.3286 7.07327 31.3286 7.04528 31.3286L7.05928 31.3426Z" fill="white"/>
<path d="M12.0964 30.1334C12.0964 30.1334 12.0544 30.1334 12.0264 30.1334C9.17189 29.6271 6.55526 28.277 4.45635 26.2517C-1.33662 20.6259 -1.50453 11.3153 4.09254 5.49268C6.23342 3.25645 8.97599 1.79376 12.0264 1.24525C12.2503 1.20305 12.4462 1.35776 12.4882 1.56873C12.5301 1.77969 12.3762 1.99066 12.1663 2.03285C9.29782 2.55323 6.69518 3.9456 4.66624 6.05526C-0.622992 11.5685 -0.469072 20.3728 5.01606 25.6891C6.98903 27.6159 9.46573 28.8817 12.1663 29.3599C12.3762 29.4021 12.5301 29.599 12.4882 29.824C12.4602 30.0209 12.2923 30.1475 12.0964 30.1475V30.1334Z" fill="white"/>
<path d="M17.1194 30.1192C16.9375 30.1192 16.7696 29.9785 16.7276 29.7957C16.6857 29.5847 16.8396 29.3738 17.0495 29.3316C19.918 28.8112 22.5206 27.4188 24.5495 25.3092C27.1102 22.6369 28.4815 19.1349 28.4255 15.4219C28.3556 11.7089 26.8583 8.24911 24.2137 5.67533C22.2408 3.74851 19.764 2.48272 17.0635 2.00453C16.8536 1.96234 16.6996 1.76544 16.7416 1.54041C16.7836 1.32944 16.9795 1.17473 17.2034 1.21693C20.0579 1.72324 22.6745 3.07342 24.7734 5.09869C27.586 7.82718 29.1671 11.4839 29.2371 15.4079C29.3071 19.3318 27.8518 23.0448 25.1372 25.8577C22.9964 28.0939 20.2538 29.5566 17.2034 30.1051C17.1754 30.1051 17.1614 30.1051 17.1334 30.1051L17.1194 30.1192Z" fill="white"/>
<path d="M15.9858 21.9326C15.7199 21.9326 15.468 21.7639 15.3701 21.4967L15.1602 20.9341C15.1042 20.7794 14.9783 20.6809 14.7824 20.695C14.5725 20.695 14.3486 20.695 14.1387 20.6809C13.9708 20.6669 13.8029 20.7512 13.7329 20.92L13.4951 21.4545C13.3411 21.792 12.9493 21.9326 12.6135 21.792L11.3822 21.2294C11.2143 21.1591 11.1023 21.0185 11.0323 20.8638C10.9764 20.695 10.9764 20.5121 11.0463 20.3574L11.2842 19.823C11.3542 19.6683 11.3122 19.4854 11.1863 19.3589C11.0323 19.2042 10.8784 19.0495 10.7385 18.8807C10.6266 18.7541 10.4586 18.6978 10.3047 18.7541L9.74502 18.9651C9.57711 19.0354 9.3952 19.0213 9.24128 18.951C9.07337 18.8807 8.96143 18.74 8.89146 18.5853L8.41571 17.3195C8.28978 16.982 8.45769 16.5882 8.79352 16.4616L9.36722 16.2506C9.52114 16.1944 9.61908 16.0397 9.60509 15.8709C9.60509 15.6459 9.60509 15.4349 9.61908 15.2239C9.63308 15.0552 9.54912 14.8864 9.3952 14.8161L8.84949 14.577C8.51366 14.4223 8.37373 14.0285 8.51366 13.6909L9.07337 12.4533C9.22729 12.1157 9.61908 11.9751 9.95491 12.1157L10.5146 12.3689C10.6685 12.4392 10.8504 12.397 10.9624 12.2704C11.1023 12.1157 11.2702 11.961 11.4241 11.8344C11.5501 11.7219 11.606 11.5531 11.5501 11.3984L11.3262 10.8218C11.2702 10.653 11.2702 10.4702 11.3402 10.3155C11.4101 10.1467 11.5501 10.0342 11.704 9.96387L12.9633 9.48569C13.1312 9.41536 13.3132 9.42943 13.4671 9.49975C13.635 9.57007 13.7469 9.71072 13.8169 9.86542L14.0408 10.4561C14.0967 10.6108 14.2507 10.7093 14.4186 10.6952C14.6285 10.6952 14.8524 10.6952 15.0622 10.7093C15.2302 10.7233 15.3981 10.639 15.454 10.4843L15.7059 9.90762C15.8598 9.57007 16.2516 9.42943 16.5874 9.57007L17.8188 10.1326C17.9867 10.203 18.0987 10.3436 18.1686 10.4983C18.2246 10.6671 18.2246 10.8499 18.1546 11.0046L17.9028 11.5672C17.8328 11.7219 17.8748 11.8907 18.0007 12.0173C18.1546 12.1579 18.3085 12.3126 18.4345 12.4814C18.5464 12.608 18.7143 12.6642 18.8682 12.608L19.4559 12.3829C19.6239 12.3126 19.8058 12.3267 19.9597 12.397C20.1276 12.4673 20.2395 12.608 20.3095 12.7627L20.7852 14.0285C20.8412 14.1972 20.8412 14.3801 20.7713 14.5348C20.7013 14.6895 20.5614 14.8161 20.4074 14.8864L19.8337 15.1114C19.6798 15.1677 19.5819 15.3224 19.5959 15.4912C19.5959 15.7021 19.5959 15.9272 19.5819 16.1381C19.5679 16.3069 19.6518 16.4757 19.8058 16.546L20.3515 16.7992C20.6873 16.9539 20.8272 17.3477 20.6873 17.6852L20.1276 18.9229C20.0576 19.0916 19.9177 19.2042 19.7638 19.2745C19.5959 19.3448 19.414 19.3307 19.26 19.2604L18.7143 19.0213C18.5604 18.951 18.3785 18.9932 18.2666 19.1198C18.1266 19.2745 17.9587 19.4292 17.7908 19.5698C17.6649 19.6824 17.6089 19.8511 17.6649 20.0058L17.8748 20.5684C18.0007 20.9059 17.8328 21.2998 17.483 21.4263L16.2236 21.9045C16.1397 21.9326 16.0697 21.9467 15.9858 21.9467V21.9326ZM14.7964 19.9074C15.2861 19.9074 15.7199 20.2027 15.9018 20.6669L16.0697 21.1029L17.0912 20.709L16.9233 20.259C16.7414 19.7949 16.8953 19.2604 17.2871 18.9369C17.427 18.8244 17.5669 18.6978 17.6789 18.5572C18.0287 18.1775 18.5744 18.0649 19.0362 18.2759L19.4559 18.4728L19.9037 17.4742L19.4699 17.2773C19.0082 17.0664 18.7283 16.5882 18.7843 16.0678C18.7983 15.885 18.8123 15.7021 18.7983 15.5334C18.7843 15.027 19.0781 14.5629 19.5539 14.3801L20.0156 14.2113L19.6239 13.1846L19.1621 13.3675C18.7003 13.5503 18.1686 13.3956 17.8468 13.0018C17.7348 12.8611 17.6089 12.7346 17.483 12.608C17.1052 12.2564 16.9932 11.7079 17.2031 11.2578L17.399 10.8077L16.4055 10.3577L16.2096 10.8077C15.9997 11.2719 15.524 11.5391 15.0203 11.4969C14.8384 11.4828 14.6564 11.4688 14.4885 11.4828C13.9708 11.4969 13.523 11.2015 13.3411 10.7234L13.1592 10.2592L12.1378 10.653L12.3057 11.1172C12.4876 11.5953 12.3337 12.1298 11.9419 12.4533C11.8019 12.5658 11.676 12.6924 11.5501 12.8189C11.2003 13.1987 10.6545 13.3112 10.1928 13.1002L9.75901 12.9033L9.31125 13.9019L9.73103 14.0988C10.1928 14.3098 10.4726 14.788 10.4167 15.3083C10.4027 15.4912 10.3887 15.674 10.4027 15.8568C10.4167 16.3632 10.1228 16.8273 9.64707 17.0101L9.1993 17.1789L9.5911 18.2056L10.0249 18.0368C10.5006 17.854 11.0184 18.0087 11.3542 18.4025C11.4661 18.5431 11.5921 18.6838 11.732 18.7963C12.1098 19.1479 12.2217 19.6964 12.0118 20.1746L11.8299 20.5825L12.8234 21.0325L13.0053 20.6247C13.2152 20.1605 13.691 19.8793 14.2087 19.9214C14.3906 19.9355 14.5725 19.9496 14.7544 19.9355C14.7684 19.9355 14.7824 19.9355 14.7964 19.9355V19.9074Z" fill="white"/>
<path d="M14.6015 18.8247C14.1678 18.8247 13.734 18.7403 13.3142 18.5434C12.5586 18.1918 11.9709 17.573 11.6771 16.7854C11.3832 15.9978 11.4112 15.1399 11.747 14.3804C12.0968 13.6209 12.7125 13.0302 13.4961 12.7349C14.2797 12.4395 15.1333 12.4676 15.8889 12.8052C16.6585 13.1568 17.2322 13.7756 17.526 14.5632C17.8198 15.3508 17.7919 16.2088 17.456 16.9682C16.9383 18.1356 15.7909 18.8247 14.6015 18.8247ZM14.6015 13.3256C14.3217 13.3256 14.0418 13.3818 13.776 13.4803C13.1883 13.7053 12.7265 14.1413 12.4746 14.7179C12.2228 15.2946 12.1948 15.9275 12.4187 16.5182C12.6426 17.1089 13.0763 17.573 13.65 17.8262C14.8254 18.3606 16.2107 17.8262 16.7424 16.6448C16.9943 16.0681 17.0223 15.4352 16.7984 14.8445C16.5745 14.2538 16.1407 13.7897 15.567 13.5365C15.2592 13.3959 14.9374 13.3256 14.6015 13.3256Z" fill="white"/>
</svg>
