<svg width="29" height="29" viewBox="0 0 29 29" fill="none" xmlns="http://www.w3.org/2000/svg">
<path d="M10.8583 28.3719H8.64748C8.2277 28.3719 7.87788 28.0203 7.87788 27.5984V26.642C7.87788 26.2763 7.654 25.9529 7.31817 25.8403C6.98235 25.7278 6.66052 25.5872 6.35268 25.4325C6.04484 25.2778 5.68103 25.3481 5.42916 25.5872L4.72953 26.2904C4.43568 26.5858 3.93195 26.5858 3.65209 26.2904L2.08491 24.7152C1.79107 24.4198 1.79107 23.9276 2.08491 23.6322L2.78455 22.929C3.03642 22.6759 3.09238 22.3102 2.93846 22.0008C2.78454 21.6914 2.64462 21.3538 2.53268 21.0303C2.42074 20.6928 2.0989 20.4678 1.74909 20.4678H0.769597C0.349816 20.4678 0 20.1161 0 19.6942V17.472C0 17.0501 0.349816 16.6985 0.769597 16.6985H1.76308C2.12689 16.6985 2.43473 16.4594 2.56066 16.0937C2.65861 15.7984 2.78454 15.503 2.92447 15.2218C3.09238 14.8842 3.03642 14.5045 2.78455 14.2654L2.05693 13.534C1.76308 13.2387 1.76308 12.7464 2.05693 12.4511L3.62411 10.8759C3.91795 10.5805 4.42169 10.5805 4.70154 10.8759L5.42916 11.6072C5.68103 11.8604 6.04484 11.9026 6.38067 11.7479C6.66052 11.6072 6.95436 11.4806 7.24821 11.3822C7.61202 11.2556 7.8359 10.9462 7.8359 10.5805V9.55381C7.8359 9.13188 8.18572 8.78027 8.6055 8.78027H10.8163C11.2361 8.78027 11.5859 9.13188 11.5859 9.55381V10.5805C11.5859 10.9462 11.8238 11.2556 12.1736 11.3822C12.4675 11.4806 12.7613 11.6072 13.0412 11.7479C13.377 11.9166 13.7548 11.8604 13.9927 11.6072L14.7203 10.8759C15.0141 10.5805 15.5179 10.5805 15.7977 10.8759L17.3649 12.4511C17.5049 12.5917 17.5888 12.7886 17.5888 12.9996C17.5888 13.2105 17.5049 13.3934 17.3649 13.5481L16.6373 14.2794C16.3994 14.5185 16.3435 14.9123 16.4974 15.2358C16.6373 15.5171 16.7632 15.8125 16.8612 16.1078C16.9871 16.4735 17.309 16.7126 17.6588 16.7126H18.6523C19.072 16.7126 19.4218 17.0642 19.4218 17.4861V19.7083C19.4218 20.1302 19.072 20.4818 18.6523 20.4818H17.6728C17.3089 20.4818 17.0011 20.7069 16.8892 21.0444C16.7772 21.3819 16.6373 21.7054 16.4834 22.0148C16.3295 22.3243 16.3994 22.6899 16.6373 22.9431L17.3369 23.6463C17.4769 23.7869 17.5608 23.9838 17.5608 24.1948C17.5608 24.4058 17.4769 24.5886 17.3369 24.7433L15.7698 26.3185C15.4759 26.6139 14.9722 26.6139 14.6923 26.3185L13.9927 25.6153C13.7408 25.3622 13.377 25.3059 13.0692 25.4606C12.7613 25.6153 12.4255 25.756 12.1037 25.8685C11.7678 25.981 11.544 26.3045 11.544 26.6701V27.6265C11.544 28.0485 11.1941 28.4001 10.7744 28.4001L10.8583 28.3719ZM6.00286 24.5464C6.24074 24.5464 6.47861 24.6027 6.7025 24.7152C6.98235 24.8558 7.2762 24.9824 7.57004 25.0809C8.2277 25.3059 8.66147 25.9247 8.66147 26.642V27.5984L10.8443 27.5703L10.8163 26.642C10.8163 25.9388 11.2641 25.3059 11.9078 25.0809C12.2016 24.9824 12.4955 24.8558 12.7753 24.7152C13.391 24.4058 14.1186 24.5324 14.6084 25.0246L15.308 25.7278L16.8332 24.1526L16.1336 23.4775C15.6438 22.9853 15.5179 22.2539 15.8257 21.6351C15.9657 21.3538 16.0916 21.0585 16.1895 20.7631C16.4134 20.1021 17.0291 19.6661 17.7287 19.6661H18.6802V17.472L17.7147 17.5002C17.0291 17.5002 16.3994 17.0501 16.1616 16.361C16.0636 16.0937 15.9657 15.8265 15.8397 15.5734C15.5319 14.9405 15.6438 14.181 16.1196 13.6887L16.8472 12.9574L15.28 11.4244L14.5804 12.1557C14.1046 12.6339 13.349 12.7605 12.7193 12.4511C12.4675 12.3245 12.2016 12.212 11.9358 12.1276C11.2641 11.8885 10.8024 11.2697 10.8024 10.5805V9.55381L8.61949 9.58194L8.64748 10.5805C8.64748 11.2697 8.19971 11.9026 7.51407 12.1276C7.24821 12.212 6.98235 12.3245 6.73048 12.4511C6.10081 12.7605 5.3452 12.648 4.86945 12.1557L4.14183 11.4244L2.61663 12.9996L3.34425 13.6887C3.83399 14.181 3.94594 14.9264 3.62411 15.5734C3.49817 15.8265 3.38623 16.0937 3.30227 16.361C3.0644 17.0361 2.44872 17.5002 1.74909 17.5002H0.755606L0.783592 19.6942L1.7351 19.6661C2.43473 19.6661 3.05041 20.1021 3.27429 20.7631C3.37224 21.0585 3.49817 21.3538 3.6381 21.6351C3.94594 22.2539 3.82 22.9853 3.33026 23.4775L2.63063 24.1807L4.19781 25.7138L4.85546 25.0105C5.1633 24.7011 5.56909 24.5324 5.98887 24.5324L6.00286 24.5464Z" fill="white"/>
<path d="M9.75401 24.1103C6.7176 24.1103 4.25488 21.6349 4.25488 18.583C4.25488 15.531 6.7176 13.0557 9.75401 13.0557C12.7904 13.0557 15.2531 15.531 15.2531 18.583C15.2531 21.6349 12.7904 24.1103 9.75401 24.1103ZM9.75401 13.8573C7.16536 13.8573 5.05247 15.9811 5.05247 18.583C5.05247 21.1849 7.16536 23.3086 9.75401 23.3086C12.3427 23.3086 14.4556 21.1849 14.4556 18.583C14.4556 15.9811 12.3427 13.8573 9.75401 13.8573Z" fill="white"/>
<path d="M23.3396 12.4932C23.0738 12.4932 22.8219 12.3244 22.724 12.0572L22.5141 11.4946C22.4581 11.3399 22.3322 11.2415 22.1363 11.2555C21.9264 11.2555 21.7025 11.2555 21.4926 11.2415C21.3247 11.2274 21.1568 11.3118 21.0868 11.4806L20.8489 12.015C20.695 12.3525 20.3032 12.4932 19.9674 12.3525L18.736 11.79C18.5681 11.7197 18.4562 11.579 18.3862 11.4243C18.3303 11.2555 18.3303 11.0727 18.4002 10.918L18.6381 10.3835C18.7081 10.2288 18.6661 10.046 18.5402 9.91942C18.3862 9.76471 18.2323 9.61 18.0924 9.44123C17.9804 9.31465 17.8125 9.25839 17.6586 9.31465L17.0989 9.52561C16.931 9.59593 16.7491 9.58187 16.5952 9.51155C16.4273 9.44123 16.3153 9.30058 16.2454 9.14588L15.7696 7.88008C15.6437 7.54254 15.8116 7.14874 16.1474 7.02216L16.7211 6.81119C16.875 6.75493 16.973 6.60023 16.959 6.43145C16.959 6.20642 16.959 5.99546 16.973 5.78449C16.987 5.61572 16.903 5.44695 16.7491 5.37663L16.2034 5.13753C15.8676 4.98282 15.7276 4.58902 15.8675 4.25148L16.4273 3.01381C16.5812 2.67627 16.973 2.53562 17.3088 2.67627L17.8685 2.92943C18.0224 2.99975 18.2043 2.95756 18.3163 2.83098C18.4562 2.67627 18.6241 2.52156 18.778 2.39498C18.904 2.28247 18.9599 2.11369 18.904 1.95899L18.6801 1.38235C18.6241 1.21357 18.6241 1.03074 18.6941 0.876031C18.764 0.707258 18.904 0.594743 19.0579 0.524422L20.3172 0.046233C20.4851 -0.0240888 20.667 -0.0100241 20.821 0.0602977C20.9889 0.130619 21.1008 0.271263 21.1708 0.425971L21.3947 1.01667C21.4506 1.17138 21.6045 1.26983 21.7725 1.25577C21.9823 1.25577 22.2062 1.25577 22.4161 1.26983C22.584 1.2839 22.752 1.19951 22.8079 1.0448L23.0598 0.468164C23.2137 0.130619 23.6055 -0.0100245 23.9413 0.130619L25.1727 0.693194C25.3406 0.763516 25.4525 0.904159 25.5225 1.05887C25.5785 1.22764 25.5785 1.41048 25.5085 1.56518L25.2566 2.12776C25.1867 2.28247 25.2287 2.45124 25.3546 2.57782C25.5085 2.71846 25.6624 2.87317 25.7884 3.04194C25.9003 3.16852 26.0682 3.22478 26.2221 3.16852L26.8098 2.94349C26.9777 2.87317 27.1596 2.88723 27.3136 2.95756C27.4815 3.02788 27.5934 3.16852 27.6634 3.32323L28.1391 4.58902C28.1951 4.75779 28.1951 4.94063 28.1251 5.09534C28.0552 5.25005 27.9152 5.37663 27.7613 5.44695L27.1876 5.67198C27.0337 5.72824 26.9358 5.88294 26.9498 6.05172C26.9498 6.26268 26.9498 6.48771 26.9358 6.69868C26.9218 6.86745 27.0057 7.03622 27.1596 7.10654L27.7054 7.3597C28.0412 7.51441 28.1811 7.90821 28.0412 8.24576L27.4815 9.48342C27.4115 9.65219 27.2716 9.76471 27.1177 9.83503C26.9497 9.90535 26.7678 9.89129 26.6139 9.82096L26.0682 9.58187C25.9143 9.51155 25.7324 9.55374 25.6204 9.68032C25.4805 9.83503 25.3126 9.98974 25.1447 10.1304C25.0188 10.2429 24.9628 10.4117 25.0188 10.5664L25.2287 11.129C25.3546 11.4665 25.1867 11.8603 24.8369 11.9869L23.5775 12.4651C23.4936 12.4932 23.4236 12.5073 23.3396 12.5073V12.4932ZM22.1503 10.4679C22.64 10.4679 23.0738 10.7633 23.2557 11.2274L23.4236 11.6634L24.4451 11.2696L24.2772 10.8195C24.0952 10.3554 24.2492 9.82097 24.641 9.49749C24.7809 9.38497 24.9208 9.25839 25.0328 9.11775C25.3826 8.73801 25.9283 8.62549 26.39 8.83646L26.8098 9.03336L27.2576 8.03479L26.8238 7.83789C26.3621 7.62692 26.0822 7.14874 26.1382 6.62836C26.1522 6.44552 26.1662 6.26268 26.1522 6.09391C26.1382 5.58759 26.432 5.12347 26.9078 4.94063L27.3695 4.77186L26.9777 3.74516L26.516 3.928C26.0542 4.11083 25.5225 3.95613 25.2007 3.56232C25.0887 3.42168 24.9628 3.2951 24.8369 3.16852C24.4591 2.81691 24.3471 2.2684 24.557 1.81834L24.7529 1.36828L23.7594 0.918223L23.5635 1.36828C23.3536 1.83241 22.8779 2.09963 22.3741 2.05744C22.1922 2.04337 22.0103 2.02931 21.8424 2.04337C21.3247 2.05744 20.8769 1.76209 20.695 1.2839L20.5131 0.819773L19.4917 1.21357L19.6596 1.6777C19.8415 2.15589 19.6876 2.69033 19.2958 3.01381C19.1558 3.12633 19.0299 3.25291 18.904 3.37949C18.5541 3.75922 18.0084 3.87174 17.5467 3.66077L17.1129 3.46387L16.6651 4.46244L17.0849 4.65934C17.5467 4.87031 17.8265 5.3485 17.7705 5.86888C17.7566 6.05172 17.7426 6.23455 17.7566 6.41739C17.7706 6.92371 17.4767 7.38783 17.001 7.57067L16.5532 7.73944L16.945 8.76614L17.3788 8.59737C17.8545 8.41453 18.3722 8.56924 18.7081 8.96304C18.82 9.10368 18.9459 9.24433 19.0859 9.35684C19.4637 9.70845 19.5756 10.257 19.3657 10.7351L19.1838 11.143L20.1773 11.5931L20.3592 11.1852C20.5691 10.7211 21.0448 10.4398 21.5626 10.482C21.7445 10.4961 21.9264 10.5101 22.1083 10.4961C22.1223 10.4961 22.1363 10.4961 22.1503 10.4961V10.4679Z" fill="white"/>
<path d="M21.954 9.3716C21.5202 9.3716 21.0864 9.28722 20.6666 9.09032C19.911 8.73871 19.3233 8.11988 19.0295 7.33227C18.7356 6.54467 18.7636 5.68674 19.0994 4.92727C19.4493 4.16779 20.0649 3.57709 20.8485 3.28173C21.6321 2.98638 22.4857 3.01451 23.2413 3.35206C24.0109 3.70367 24.5846 4.3225 24.8784 5.1101C25.1723 5.89771 25.1443 6.75563 24.8085 7.51511C24.2907 8.68245 23.1433 9.3716 21.954 9.3716ZM21.954 3.87244C21.6741 3.87244 21.3942 3.9287 21.1284 4.02715C20.5407 4.25218 20.0789 4.68817 19.8271 5.26481C19.5752 5.84145 19.5472 6.47434 19.7711 7.06505C19.995 7.65575 20.4287 8.11988 21.0024 8.37303C22.1778 8.90748 23.5631 8.37303 24.0948 7.19163C24.3467 6.61499 24.3747 5.98209 24.1508 5.39139C23.9269 4.80069 23.4931 4.33656 22.9194 4.0834C22.6116 3.94276 22.2898 3.87244 21.954 3.87244Z" fill="white"/>
</svg>
